NotoSerifBengali-CondensedBold.ufo
<glyph name="exclam" format="2">
  <advance width="336.3"/>
  <unicode hex="0021"/>
  <outline>
    <contour>
      <point x="143.20000000000002" y="221.6" type="line"/>
      <point x="198.39999999999998" y="221.6" type="line"/>
      <point x="245.0" y="714.0" type="line"/>
      <point x="96.60000000000001" y="714.0" type="line"/>
    </contour>
    <contour>
      <point x="172.0" y="-8.0" type="curve" smooth="yes"/>
      <point x="208.9" y="-8.0"/>
      <point x="240.79999999999998" y="10.3"/>
      <point x="240.79999999999998" y="66.3" type="curve" smooth="yes"/>
      <point x="240.79999999999998" y="122.3"/>
      <point x="208.9" y="140.29999999999998"/>
      <point x="172.0" y="140.29999999999998" type="curve" smooth="yes"/>
      <point x="132.4" y="140.29999999999998"/>
      <point x="102.2" y="122.3"/>
      <point x="102.2" y="66.3" type="curve" smooth="yes"/>
      <point x="102.2" y="10.3"/>
      <point x="132.4" y="-8.0"/>
    </contour>
  </outline>
</glyph>
<glyph name="quotedbl" format="2">
  <advance width="437.1"/>
  <unicode hex="0022"/>
  <outline>
    <contour>
      <point x="286.5" y="453.5" type="line"/>
      <point x="342.8" y="453.5" type="line"/>
      <point x="379.0" y="714.0" type="line"/>
      <point x="246.0" y="714.0" type="line"/>
    </contour>
    <contour>
      <point x="96.5" y="453.5" type="line"/>
      <point x="152.4" y="453.5" type="line"/>
      <point x="191.1" y="714.0" type="line"/>
      <point x="57.8" y="714.0" type="line"/>
    </contour>
  </outline>
</glyph>
<glyph name="numbersign" format="2">
  <advance width="486.90000000000003"/>
  <unicode hex="0023"/>
  <outline>
    <contour>
      <point x="58.9" y="0.0" type="line"/>
      <point x="127.0" y="0.0" type="line"/>
      <point x="165.0" y="202.0" type="line"/>
      <point x="260.0" y="202.0" type="line"/>
      <point x="222.70000000000002" y="0.0" type="line"/>
      <point x="290.79999999999995" y="0.0" type="line"/>
      <point x="327.79999999999995" y="202.0" type="line"/>
      <point x="439.09999999999997" y="202.0" type="line"/>
      <point x="439.09999999999997" y="267.1" type="line"/>
      <point x="341.5" y="267.1" type="line"/>
      <point x="375.79999999999995" y="451.9" type="line"/>
      <point x="471.09999999999997" y="451.9" type="line"/>
      <point x="471.09999999999997" y="518.0" type="line"/>
      <point x="388.09999999999997" y="518.0" type="line"/>
      <point x="425.8" y="714.0" type="line"/>
      <point x="357.0" y="714.0" type="line"/>
      <point x="320.0" y="518.0" type="line"/>
      <point x="225.0" y="518.0" type="line"/>
      <point x="262.0" y="714.0" type="line"/>
      <point x="192.9" y="714.0" type="line"/>
      <point x="157.20000000000002" y="518.0" type="line"/>
      <point x="47.8" y="518.0" type="line"/>
      <point x="47.8" y="451.9" type="line"/>
      <point x="144.5" y="451.9" type="line"/>
      <point x="108.9" y="267.1" type="line"/>
      <point x="15.500000000000002" y="267.1" type="line"/>
      <point x="15.500000000000002" y="202.0" type="line"/>
      <point x="97.2" y="202.0" type="line"/>
    </contour>
    <contour>
      <point x="177.29999999999998" y="267.1" type="line"/>
      <point x="213.0" y="451.9" type="line"/>
      <point x="309.0" y="451.9" type="line"/>
      <point x="273.7" y="267.1" type="line"/>
    </contour>
  </outline>
</glyph>
<glyph name="percent" format="2">
  <advance width="788.3000000000001"/>
  <unicode hex="0025"/>
  <outline>
    <contour>
      <point x="209.0" y="0.0" type="line"/>
      <point x="276.09999999999997" y="0.0" type="line"/>
      <point x="576.7" y="714.0" type="line"/>
      <point x="509.90000000000003" y="714.0" type="line"/>
    </contour>
    <contour>
      <point x="185.79999999999998" y="280.0" type="curve" smooth="yes"/>
      <point x="291.6" y="280.0"/>
      <point x="342.3" y="369.0"/>
      <point x="342.3" y="503.0" type="curve"/>
      <point x="342.3" y="637.0"/>
      <point x="291.6" y="724.0"/>
      <point x="186.79999999999998" y="724.0" type="curve" smooth="yes"/>
      <point x="76.0" y="724.0"/>
      <point x="29.9" y="637.0"/>
      <point x="29.9" y="503.0" type="curve" smooth="yes"/>
      <point x="29.9" y="369.0"/>
      <point x="76.0" y="280.0"/>
    </contour>
    <contour>
      <point x="185.79999999999998" y="325.29999999999995" type="curve" smooth="yes"/>
      <point x="141.1" y="325.29999999999995"/>
      <point x="124.3" y="389.59999999999997"/>
      <point x="124.3" y="503.0" type="curve"/>
      <point x="124.3" y="614.4"/>
      <point x="140.79999999999998" y="677.7"/>
      <point x="186.8" y="677.7" type="curve" smooth="yes"/>
      <point x="232.10000000000002" y="677.7"/>
      <point x="246.60000000000002" y="614.4"/>
      <point x="246.60000000000002" y="503.0" type="curve" smooth="yes"/>
      <point x="246.60000000000002" y="389.6"/>
      <point x="232.10000000000002" y="325.29999999999995"/>
    </contour>
    <contour>
      <point x="602.2" y="-10.0" type="curve" smooth="yes"/>
      <point x="707.3" y="-10.0"/>
      <point x="758.7" y="79.0"/>
      <point x="758.7" y="213.0" type="curve" smooth="yes"/>
      <point x="758.7" y="347.0"/>
      <point x="707.3" y="434.0"/>
      <point x="603.2" y="434.0" type="curve" smooth="yes"/>
      <point x="492.40000000000003" y="434.0"/>
      <point x="446.29999999999995" y="347.0"/>
      <point x="446.29999999999995" y="213.0" type="curve" smooth="yes"/>
      <point x="446.29999999999995" y="79.0"/>
      <point x="492.40000000000003" y="-10.0"/>
    </contour>
    <contour>
      <point x="602.2" y="35.3" type="curve" smooth="yes"/>
      <point x="557.5" y="35.3"/>
      <point x="540.7" y="99.60000000000001"/>
      <point x="540.7" y="213.0" type="curve" smooth="yes"/>
      <point x="540.7" y="324.4"/>
      <point x="557.2" y="387.70000000000005"/>
      <point x="602.5" y="387.70000000000005" type="curve" smooth="yes"/>
      <point x="648.5" y="387.70000000000005"/>
      <point x="662.7" y="324.40000000000003"/>
      <point x="662.7" y="213.0" type="curve" smooth="yes"/>
      <point x="662.7" y="99.6"/>
      <point x="648.5" y="35.3"/>
    </contour>
  </outline>
</glyph>
<glyph name="quotesingle" format="2">
  <advance width="249.20000000000002"/>
  <unicode hex="0027"/>
  <outline>
    <contour>
      <point x="96.5" y="453.5" type="line"/>
      <point x="152.4" y="453.5" type="line"/>
      <point x="191.1" y="714.0" type="line"/>
      <point x="57.8" y="714.0" type="line"/>
    </contour>
  </outline>
</glyph>
<glyph name="parenleft" format="2">
  <advance width="358.4"/>
  <unicode hex="0028"/>
  <outline>
    <contour>
      <point x="312.7" y="-135.39999999999998" type="curve"/>
      <point x="312.7" y="-77.3" type="line"/>
      <point x="203.7" y="4.7"/>
      <point x="182.0" y="159.0"/>
      <point x="182.0" y="318.0" type="curve" smooth="yes"/>
      <point x="182.0" y="476.0"/>
      <point x="203.7" y="628.6"/>
      <point x="312.7" y="711.3000000000001" type="curve"/>
      <point x="312.7" y="767.4" type="line"/>
      <point x="120.3" y="685.0"/>
      <point x="44.2" y="541.2"/>
      <point x="44.2" y="318.0" type="curve" smooth="yes"/>
      <point x="44.2" y="92.8"/>
      <point x="120.3" y="-51.599999999999994"/>
    </contour>
  </outline>
</glyph>
<glyph name="parenright" format="2">
  <advance width="367.1"/>
  <unicode hex="0029"/>
  <outline>
    <contour>
      <point x="55.10000000000001" y="-135.39999999999998" type="line"/>
      <point x="247.50000000000003" y="-51.599999999999994"/>
      <point x="322.90000000000003" y="92.8"/>
      <point x="322.90000000000003" y="318.0" type="curve" smooth="yes"/>
      <point x="322.90000000000003" y="541.2"/>
      <point x="247.50000000000003" y="685.0"/>
      <point x="55.10000000000001" y="767.4" type="curve"/>
      <point x="55.10000000000001" y="711.3000000000001" type="line"/>
      <point x="163.1" y="628.6"/>
      <point x="185.8" y="476.0"/>
      <point x="185.8" y="318.0" type="curve" smooth="yes"/>
      <point x="185.8" y="159.0"/>
      <point x="163.1" y="4.7"/>
      <point x="55.10000000000001" y="-77.3" type="curve"/>
    </contour>
  </outline>
</glyph>
<glyph name="asterisk" format="2">
  <advance width="430.1"/>
  <unicode hex="002A"/>
  <outline>
    <contour>
      <point x="168.89999999999998" y="369.2" type="line"/>
      <point x="263.0" y="369.2" type="line"/>
      <point x="233.1" y="532.3000000000001" type="line"/>
      <point x="361.7" y="431.6" type="line"/>
      <point x="400.59999999999997" y="521.3" type="line"/>
      <point x="266.5" y="564.6" type="line"/>
      <point x="400.59999999999997" y="607.9" type="line"/>
      <point x="361.7" y="697.6" type="line"/>
      <point x="233.1" y="596.1999999999999" type="line"/>
      <point x="264.0" y="760.0" type="line"/>
      <point x="168.89999999999998" y="760.0" type="line"/>
      <point x="197.20000000000002" y="595.2" type="line"/>
      <point x="68.9" y="699.6" type="line"/>
      <point x="31.0" y="608.9" type="line"/>
      <point x="165.1" y="564.6" type="line"/>
      <point x="31.0" y="520.3" type="line"/>
      <point x="68.9" y="429.6" type="line"/>
      <point x="196.5" y="533.0" type="line"/>
    </contour>
  </outline>
</glyph>
<glyph name="plus" format="2">
  <advance width="465.2"/>
  <unicode hex="002B"/>
  <outline>
    <contour>
      <point x="197.70000000000002" y="143.0" type="line"/>
      <point x="266.5" y="143.0" type="line"/>
      <point x="266.5" y="324.3" type="line"/>
      <point x="419.1" y="324.3" type="line"/>
      <point x="419.1" y="390.7" type="line"/>
      <point x="266.5" y="390.7" type="line"/>
      <point x="266.5" y="572.0" type="line"/>
      <point x="197.70000000000002" y="572.0" type="line"/>
      <point x="197.70000000000002" y="390.7" type="line"/>
      <point x="46.099999999999994" y="390.7" type="line"/>
      <point x="46.099999999999994" y="324.3" type="line"/>
      <point x="197.70000000000002" y="324.3" type="line"/>
    </contour>
  </outline>
</glyph>
<glyph name="comma" format="2">
  <advance width="272.9"/>
  <unicode hex="002C"/>
  <outline>
    <contour>
      <point x="58.400000000000006" y="-154.0" type="line"/>
      <point x="168.4" y="-120.4"/>
      <point x="209.8" y="-46.8"/>
      <point x="209.8" y="35.1" type="curve" smooth="yes"/>
      <point x="209.8" y="100.5"/>
      <point x="183.1" y="140.29999999999998"/>
      <point x="135.5" y="140.29999999999998" type="curve" smooth="yes"/>
      <point x="100.0" y="140.29999999999998"/>
      <point x="71.5" y="117.3"/>
      <point x="71.5" y="76.7" type="curve" smooth="yes"/>
      <point x="71.5" y="5.3"/>
      <point x="133.3" y="12.200000000000001"/>
      <point x="133.3" y="-24.700000000000003" type="curve" smooth="yes"/>
      <point x="133.3" y="-61.0"/>
      <point x="107.80000000000001" y="-86.7"/>
      <point x="58.400000000000006" y="-107.0" type="curve"/>
    </contour>
  </outline>
</glyph>
<glyph name="hyphen" format="2">
  <advance width="270.8"/>
  <unicode hex="002D"/>
  <outline>
    <contour>
      <point x="22.2" y="224.9" type="line"/>
      <point x="248.6" y="224.9" type="line"/>
      <point x="248.6" y="320.09999999999997" type="line"/>
      <point x="22.2" y="320.09999999999997" type="line"/>
    </contour>
  </outline>
</glyph>
<glyph name="period" format="2">
  <advance width="271.1"/>
  <unicode hex="002E"/>
  <outline>
    <contour>
      <point x="144.9" y="-8.0" type="curve" smooth="yes"/>
      <point x="181.8" y="-8.0"/>
      <point x="214.10000000000002" y="10.3"/>
      <point x="214.10000000000002" y="66.3" type="curve" smooth="yes"/>
      <point x="214.10000000000002" y="122.3"/>
      <point x="181.8" y="140.29999999999998"/>
      <point x="144.9" y="140.29999999999998" type="curve" smooth="yes"/>
      <point x="105.3" y="140.29999999999998"/>
      <point x="74.7" y="122.3"/>
      <point x="74.7" y="66.3" type="curve" smooth="yes"/>
      <point x="74.7" y="10.3"/>
      <point x="105.3" y="-8.0"/>
    </contour>
  </outline>
</glyph>
<glyph name="zero" format="2">
  <advance width="486.90000000000003"/>
  <unicode hex="0030"/>
  <outline>
    <contour>
      <point x="243.6" y="-10.0" type="curve" smooth="yes"/>
      <point x="395.2" y="-10.0"/>
      <point x="456.3" y="132.1"/>
      <point x="456.3" y="358.0" type="curve" smooth="yes"/>
      <point x="456.3" y="585.5999999999999"/>
      <point x="396.6" y="724.0"/>
      <point x="244.6" y="724.0" type="curve" smooth="yes"/>
      <point x="84.0" y="724.0"/>
      <point x="29.900000000000002" y="583.5"/>
      <point x="29.900000000000002" y="359.0" type="curve" smooth="yes"/>
      <point x="29.900000000000002" y="130.7"/>
      <point x="84.7" y="-10.0"/>
    </contour>
    <contour>
      <point x="243.6" y="50.0" type="curve" smooth="yes"/>
      <point x="177.10000000000002" y="50.0"/>
      <point x="162.2" y="163.3"/>
      <point x="162.2" y="358.0" type="curve" smooth="yes"/>
      <point x="162.2" y="552.7"/>
      <point x="177.10000000000002" y="664.0"/>
      <point x="244.6" y="664.0" type="curve" smooth="yes"/>
      <point x="309.40000000000003" y="664.0"/>
      <point x="324.7" y="552.7"/>
      <point x="324.7" y="358.0" type="curve" smooth="yes"/>
      <point x="324.7" y="163.3"/>
      <point x="309.40000000000003" y="50.0"/>
    </contour>
  </outline>
</glyph>
<glyph name="one" format="2">
  <advance width="486.90000000000003"/>
  <unicode hex="0031"/>
  <outline>
    <contour>
      <point x="78.1" y="0.0" type="line"/>
      <point x="436.5" y="0.0" type="line"/>
      <point x="436.5" y="49.4" type="line"/>
      <point x="384.90000000000003" y="49.4" type="line" smooth="yes"/>
      <point x="347.2" y="49.4"/>
      <point x="326.5" y="67.4"/>
      <point x="326.5" y="116.0" type="curve" smooth="yes"/>
      <point x="326.5" y="718.0" type="line"/>
      <point x="232.4" y="718.0" type="line"/>
      <point x="171.5" y="668.1" type="line" smooth="yes"/>
      <point x="113.2" y="619.8"/>
      <point x="72.39999999999999" y="602.5"/>
      <point x="37.300000000000004" y="592.5" type="curve"/>
      <point x="37.300000000000004" y="551.1"/>
      <point x="59.2" y="525.8000000000001"/>
      <point x="87.4" y="525.8000000000001" type="curve" smooth="yes"/>
      <point x="122.5" y="525.8000000000001"/>
      <point x="157.0" y="563.6"/>
      <point x="200.3" y="622.1" type="curve"/>
      <point x="200.3" y="116.0" type="line" smooth="yes"/>
      <point x="200.3" y="61.0"/>
      <point x="175.3" y="49.4"/>
      <point x="141.2" y="49.4" type="curve" smooth="yes"/>
      <point x="78.1" y="49.4" type="line"/>
    </contour>
  </outline>
</glyph>
<glyph name="two" format="2">
  <advance width="486.90000000000003"/>
  <unicode hex="0032"/>
  <outline>
    <contour>
      <point x="33.400000000000006" y="0.0" type="line"/>
      <point x="445.0" y="0.0" type="line"/>
      <point x="449.29999999999995" y="197.5" type="line"/>
      <point x="398.0" y="197.5" type="line"/>
      <point x="391.3" y="170.39999999999998" type="line" smooth="yes"/>
      <point x="380.3" y="124.89999999999999"/>
      <point x="354.9" y="99.80000000000001"/>
      <point x="318.5" y="99.80000000000001" type="curve" smooth="yes"/>
      <point x="122.2" y="99.80000000000001" type="line"/>
      <point x="246.3" y="238.70000000000002" type="line" smooth="yes"/>
      <point x="362.9" y="360.59999999999997"/>
      <point x="428.5" y="446.8"/>
      <point x="428.5" y="553.8" type="curve" smooth="yes"/>
      <point x="428.5" y="655.8"/>
      <point x="357.9" y="724.0"/>
      <point x="228.0" y="724.0" type="curve" smooth="yes"/>
      <point x="100.9" y="724.0"/>
      <point x="38.3" y="659.0999999999999"/>
      <point x="38.3" y="587.6" type="curve" smooth="yes"/>
      <point x="38.3" y="523.9000000000001"/>
      <point x="87.80000000000001" y="505.7"/>
      <point x="144.8" y="505.7" type="curve"/>
      <point x="144.8" y="607.5"/>
      <point x="166.1" y="666.6"/>
      <point x="228.0" y="666.6" type="curve" smooth="yes"/>
      <point x="271.7" y="666.6"/>
      <point x="298.5" y="627.4000000000001"/>
      <point x="298.5" y="547.9" type="curve" smooth="yes"/>
      <point x="298.5" y="451.3"/>
      <point x="268.3" y="376.3"/>
      <point x="164.9" y="250.60000000000002" type="curve" smooth="yes"/>
      <point x="33.400000000000006" y="88.6" type="line"/>
    </contour>
  </outline>
</glyph>
<glyph name="three" format="2">
  <advance width="486.90000000000003"/>
  <unicode hex="0033"/>
  <outline>
    <contour>
      <point x="216.3" y="-10.0" type="curve" smooth="yes"/>
      <point x="335.2" y="-10.0"/>
      <point x="449.9" y="43.0"/>
      <point x="449.9" y="202.20000000000002" type="curve" smooth="yes"/>
      <point x="449.9" y="320.0"/>
      <point x="367.90000000000003" y="366.2"/>
      <point x="296.2" y="379.59999999999997" type="curve"/>
      <point x="371.2" y="406.3"/>
      <point x="428.4" y="469.5"/>
      <point x="428.4" y="559.5" type="curve" smooth="yes"/>
      <point x="428.4" y="664.3"/>
      <point x="351.2" y="724.0"/>
      <point x="229.5" y="724.0" type="curve" smooth="yes"/>
      <point x="103.10000000000001" y="724.0"/>
      <point x="40.199999999999996" y="662.4"/>
      <point x="40.199999999999996" y="591.2" type="curve" smooth="yes"/>
      <point x="40.199999999999996" y="535.6"/>
      <point x="82.10000000000001" y="515.6999999999999"/>
      <point x="143.1" y="515.6999999999999" type="curve"/>
      <point x="143.1" y="594.6999999999999"/>
      <point x="161.89999999999998" y="666.6"/>
      <point x="223.70000000000002" y="666.6" type="curve" smooth="yes"/>
      <point x="272.3" y="666.6"/>
      <point x="297.8" y="621.6"/>
      <point x="297.8" y="548.0" type="curve" smooth="yes"/>
      <point x="297.8" y="457.0"/>
      <point x="263.70000000000005" y="398.7"/>
      <point x="188.6" y="398.7" type="curve"/>
      <point x="134.10000000000002" y="398.7" type="line"/>
      <point x="134.10000000000002" y="341.7" type="line"/>
      <point x="185.2" y="341.7" type="line" smooth="yes"/>
      <point x="273.4" y="341.7"/>
      <point x="319.0" y="286.0"/>
      <point x="319.0" y="203.20000000000002" type="curve" smooth="yes"/>
      <point x="319.0" y="89.7"/>
      <point x="269.3" y="54.4"/>
      <point x="212.3" y="54.4" type="curve" smooth="yes"/>
      <point x="148.20000000000002" y="54.4"/>
      <point x="104.80000000000001" y="104.2"/>
      <point x="104.80000000000001" y="183.6" type="curve"/>
      <point x="63.5" y="183.6"/>
      <point x="28.4" y="158.6"/>
      <point x="28.4" y="110.9" type="curve" smooth="yes"/>
      <point x="28.4" y="44.3"/>
      <point x="81.7" y="-10.0"/>
    </contour>
  </outline>
</glyph>
<glyph name="four" format="2">
  <advance width="486.90000000000003"/>
  <unicode hex="0034"/>
  <outline>
    <contour>
      <point x="159.3" y="0.0" type="line"/>
      <point x="462.0" y="0.0" type="line"/>
      <point x="462.0" y="49.4" type="line"/>
      <point x="451.1" y="49.4" type="line" smooth="yes"/>
      <point x="411.7" y="49.4"/>
      <point x="378.9" y="58.4"/>
      <point x="378.9" y="121.39999999999999" type="curve" smooth="yes"/>
      <point x="378.9" y="189.29999999999998" type="line"/>
      <point x="469.90000000000003" y="189.29999999999998" type="line"/>
      <point x="469.90000000000003" y="252.0" type="line"/>
      <point x="378.9" y="252.0" type="line"/>
      <point x="378.9" y="714.0" type="line"/>
      <point x="257.2" y="714.0" type="line"/>
      <point x="12.2" y="243.70000000000002" type="line"/>
      <point x="12.2" y="189.29999999999998" type="line"/>
      <point x="254.6" y="189.29999999999998" type="line"/>
      <point x="254.6" y="121.39999999999999" type="line" smooth="yes"/>
      <point x="254.6" y="58.4"/>
      <point x="223.2" y="49.4"/>
      <point x="183.1" y="49.4" type="curve" smooth="yes"/>
      <point x="159.3" y="49.4" type="line"/>
    </contour>
    <contour>
      <point x="78.30000000000001" y="252.0" type="line"/>
      <point x="190.9" y="469.8" type="line" smooth="yes"/>
      <point x="211.0" y="511.0"/>
      <point x="246.5" y="585.3"/>
      <point x="260.9" y="623.6999999999999" type="curve"/>
      <point x="255.89999999999998" y="561.6999999999999"/>
      <point x="254.6" y="493.90000000000003"/>
      <point x="254.6" y="435.90000000000003" type="curve" smooth="yes"/>
      <point x="254.6" y="252.0" type="line"/>
    </contour>
  </outline>
</glyph>
<glyph name="five" format="2">
  <advance width="486.90000000000003"/>
  <unicode hex="0035"/>
  <outline>
    <contour>
      <point x="213.5" y="-10.0" type="curve" smooth="yes"/>
      <point x="320.2" y="-10.0"/>
      <point x="439.9" y="58.49999999999999"/>
      <point x="439.9" y="219.0" type="curve" smooth="yes"/>
      <point x="439.9" y="361.0"/>
      <point x="351.5" y="432.7"/>
      <point x="216.6" y="432.7" type="curve" smooth="yes"/>
      <point x="183.29999999999998" y="432.7"/>
      <point x="140.70000000000002" y="424.7"/>
      <point x="121.1" y="416.0" type="curve"/>
      <point x="137.70000000000002" y="614.9" type="line"/>
      <point x="315.9" y="614.9" type="line" smooth="yes"/>
      <point x="344.9" y="614.9"/>
      <point x="349.40000000000003" y="601.5999999999999"/>
      <point x="356.5" y="572.0999999999999" type="curve" smooth="yes"/>
      <point x="363.9" y="542.9" type="line"/>
      <point x="413.5" y="542.9" type="line"/>
      <point x="409.2" y="714.0" type="line"/>
      <point x="89.4" y="714.0" type="line"/>
      <point x="59.5" y="366.09999999999997" type="line"/>
      <point x="91.3" y="350.3" type="line"/>
      <point x="117.9" y="360.3"/>
      <point x="147.20000000000002" y="371.7"/>
      <point x="190.5" y="371.7" type="curve" smooth="yes"/>
      <point x="264.8" y="371.7"/>
      <point x="309.0" y="321.0"/>
      <point x="309.0" y="219.0" type="curve" smooth="yes"/>
      <point x="309.0" y="92.6"/>
      <point x="259.40000000000003" y="53.599999999999994"/>
      <point x="200.4" y="53.599999999999994" type="curve" smooth="yes"/>
      <point x="129.6" y="53.599999999999994"/>
      <point x="104.3" y="114.2"/>
      <point x="104.3" y="172.6" type="curve"/>
      <point x="63.2" y="172.6"/>
      <point x="35.5" y="149.20000000000002"/>
      <point x="35.5" y="106.5" type="curve" smooth="yes"/>
      <point x="35.5" y="50.1"/>
      <point x="82.39999999999999" y="-10.0"/>
    </contour>
  </outline>
</glyph>
<glyph name="six" format="2">
  <advance width="486.90000000000003"/>
  <unicode hex="0036"/>
  <outline>
    <contour>
      <point x="255.20000000000002" y="-10.0" type="curve" smooth="yes"/>
      <point x="386.90000000000003" y="-10.0"/>
      <point x="455.4" y="88.0"/>
      <point x="455.4" y="230.0" type="curve" smooth="yes"/>
      <point x="455.4" y="359.0"/>
      <point x="386.90000000000003" y="436.0"/>
      <point x="282.0" y="436.0" type="curve" smooth="yes"/>
      <point x="222.0" y="436.0"/>
      <point x="187.1" y="414.3"/>
      <point x="163.0" y="393.7" type="curve"/>
      <point x="169.29999999999998" y="570.6"/>
      <point x="206.0" y="668.6"/>
      <point x="274.8" y="668.6" type="curve" smooth="yes"/>
      <point x="322.3" y="668.6"/>
      <point x="342.4" y="612.1999999999999"/>
      <point x="342.4" y="543.9" type="curve"/>
      <point x="410.9" y="543.9"/>
      <point x="438.09999999999997" y="573.2"/>
      <point x="438.09999999999997" y="615.3" type="curve" smooth="yes"/>
      <point x="438.09999999999997" y="672.0"/>
      <point x="390.6" y="724.0"/>
      <point x="279.40000000000003" y="724.0" type="curve" smooth="yes"/>
      <point x="117.6" y="724.0"/>
      <point x="40.099999999999994" y="573.1"/>
      <point x="40.099999999999994" y="337.4" type="curve" smooth="yes"/>
      <point x="40.099999999999994" y="97.0"/>
      <point x="127.2" y="-10.0"/>
    </contour>
    <contour>
      <point x="256.1" y="50.3" type="curve" smooth="yes"/>
      <point x="196.20000000000002" y="50.3"/>
      <point x="164.7" y="139.7"/>
      <point x="162.7" y="332.59999999999997" type="curve"/>
      <point x="180.5" y="352.7"/>
      <point x="211.79999999999998" y="377.9"/>
      <point x="251.3" y="377.9" type="curve" smooth="yes"/>
      <point x="301.6" y="377.9"/>
      <point x="331.9" y="331.0"/>
      <point x="331.9" y="220.0" type="curve" smooth="yes"/>
      <point x="331.9" y="103.0"/>
      <point x="303.9" y="50.3"/>
    </contour>
  </outline>
</glyph>
<glyph name="seven" format="2">
  <advance width="486.90000000000003"/>
  <unicode hex="0037"/>
  <outline>
    <contour>
      <point x="140.3" y="0.0" type="line"/>
      <point x="220.3" y="0.0" type="line"/>
      <point x="451.4" y="671.6" type="line"/>
      <point x="451.4" y="714.0" type="line"/>
      <point x="45.9" y="714.0" type="line"/>
      <point x="40.9" y="513.9" type="line"/>
      <point x="93.9" y="513.9" type="line"/>
      <point x="99.60000000000001" y="562.5" type="line" smooth="yes"/>
      <point x="102.60000000000001" y="597.6"/>
      <point x="117.4" y="614.9"/>
      <point x="149.2" y="614.9" type="curve" smooth="yes"/>
      <point x="370.2" y="614.9" type="line"/>
    </contour>
  </outline>
</glyph>
<glyph name="eight" format="2">
  <advance width="486.90000000000003"/>
  <unicode hex="0038"/>
  <outline>
    <contour>
      <point x="238.7" y="-10.0" type="curve" smooth="yes"/>
      <point x="377.59999999999997" y="-10.0"/>
      <point x="459.7" y="64.4"/>
      <point x="459.7" y="184.4" type="curve" smooth="yes"/>
      <point x="459.7" y="280.7"/>
      <point x="414.5" y="334.1"/>
      <point x="319.6" y="385.0" type="curve"/>
      <point x="391.09999999999997" y="422.79999999999995"/>
      <point x="435.7" y="468.4"/>
      <point x="435.7" y="556.3000000000001" type="curve" smooth="yes"/>
      <point x="435.7" y="652.4"/>
      <point x="371.40000000000003" y="724.0"/>
      <point x="248.60000000000002" y="724.0" type="curve" smooth="yes"/>
      <point x="104.2" y="724.0"/>
      <point x="47.4" y="641.5999999999999"/>
      <point x="47.4" y="544.4" type="curve" smooth="yes"/>
      <point x="47.4" y="457.40000000000003"/>
      <point x="91.19999999999999" y="405.3"/>
      <point x="158.70000000000002" y="363.1" type="curve"/>
      <point x="84.0" y="326.4"/>
      <point x="27.200000000000003" y="275.2"/>
      <point x="27.200000000000003" y="176.10000000000002" type="curve" smooth="yes"/>
      <point x="27.200000000000003" y="73.60000000000001"/>
      <point x="93.4" y="-10.0"/>
    </contour>
    <contour>
      <point x="242.3" y="45.5" type="curve" smooth="yes"/>
      <point x="182.1" y="45.5"/>
      <point x="142.70000000000002" y="93.5"/>
      <point x="142.70000000000002" y="179.1" type="curve" smooth="yes"/>
      <point x="142.70000000000002" y="249.0"/>
      <point x="168.2" y="298.40000000000003"/>
      <point x="209.29999999999998" y="330.8" type="curve"/>
      <point x="297.4" y="280.5"/>
      <point x="337.9" y="234.9"/>
      <point x="337.9" y="167.5" type="curve" smooth="yes"/>
      <point x="337.9" y="91.8"/>
      <point x="299.4" y="45.5"/>
    </contour>
    <contour>
      <point x="265.7" y="414.3" type="curve"/>
      <point x="203.79999999999998" y="448.6"/>
      <point x="167.7" y="486.4"/>
      <point x="167.7" y="559.2" type="curve" smooth="yes"/>
      <point x="167.7" y="624.5"/>
      <point x="195.0" y="668.2"/>
      <point x="244.7" y="668.2" type="curve" smooth="yes"/>
      <point x="299.6" y="668.2"/>
      <point x="325.7" y="615.2"/>
      <point x="325.7" y="554.8" type="curve" smooth="yes"/>
      <point x="325.7" y="485.7"/>
      <point x="306.8" y="443.9"/>
    </contour>
  </outline>
</glyph>
<glyph name="nine" format="2">
  <advance width="486.90000000000003"/>
  <unicode hex="0039"/>
  <outline>
    <contour>
      <point x="197.6" y="-10.0" type="curve"/>
      <point x="375.90000000000003" y="-10.0"/>
      <point x="447.5" y="160.8"/>
      <point x="447.5" y="388.0" type="curve" smooth="yes"/>
      <point x="447.5" y="627.9"/>
      <point x="354.6" y="724.0"/>
      <point x="229.0" y="724.0" type="curve" smooth="yes"/>
      <point x="104.7" y="724.0"/>
      <point x="31.500000000000004" y="625.4"/>
      <point x="31.500000000000004" y="483.5" type="curve" smooth="yes"/>
      <point x="31.500000000000004" y="349.2"/>
      <point x="102.0" y="277.8"/>
      <point x="201.6" y="277.8" type="curve" smooth="yes"/>
      <point x="261.2" y="277.8"/>
      <point x="299.8" y="306.7"/>
      <point x="324.6" y="340.90000000000003" type="curve"/>
      <point x="319.0" y="147.70000000000002"/>
      <point x="280.40000000000003" y="50.4"/>
      <point x="203.4" y="50.4" type="curve" smooth="yes"/>
      <point x="143.3" y="50.4"/>
      <point x="117.7" y="95.5"/>
      <point x="100.8" y="149.6" type="curve"/>
      <point x="69.2" y="142.89999999999998"/>
      <point x="55.599999999999994" y="118.3"/>
      <point x="55.599999999999994" y="90.3" type="curve" smooth="yes"/>
      <point x="55.599999999999994" y="38.9"/>
      <point x="93.6" y="-10.0"/>
    </contour>
    <contour>
      <point x="237.0" y="342.0" type="curve" smooth="yes"/>
      <point x="182.3" y="342.7"/>
      <point x="155.0" y="392.9"/>
      <point x="155.0" y="488.0" type="curve" smooth="yes"/>
      <point x="155.0" y="602.0"/>
      <point x="183.3" y="662.7"/>
      <point x="235.1" y="662.7" type="curve" smooth="yes"/>
      <point x="290.5" y="662.7"/>
      <point x="323.3" y="590.1"/>
      <point x="325.59999999999997" y="404.2" type="curve"/>
      <point x="307.3" y="370.9"/>
      <point x="279.8" y="342.7"/>
    </contour>
  </outline>
</glyph>
<glyph name="colon" format="2">
  <advance width="270.4"/>
  <unicode hex="003A"/>
  <outline>
    <contour>
      <point x="144.2" y="392.59999999999997" type="curve" smooth="yes"/>
      <point x="181.1" y="392.59999999999997"/>
      <point x="213.4" y="410.6"/>
      <point x="213.4" y="465.9" type="curve" smooth="yes"/>
      <point x="213.4" y="522.1999999999999"/>
      <point x="181.1" y="539.9"/>
      <point x="144.2" y="539.9" type="curve" smooth="yes"/>
      <point x="105.3" y="539.9"/>
      <point x="74.7" y="522.1999999999999"/>
      <point x="74.7" y="465.9" type="curve" smooth="yes"/>
      <point x="74.7" y="410.6"/>
      <point x="105.3" y="392.59999999999997"/>
    </contour>
    <contour>
      <point x="144.2" y="-8.0" type="curve" smooth="yes"/>
      <point x="181.1" y="-8.0"/>
      <point x="213.4" y="10.3"/>
      <point x="213.4" y="66.3" type="curve" smooth="yes"/>
      <point x="213.4" y="122.3"/>
      <point x="181.1" y="140.29999999999998"/>
      <point x="144.2" y="140.29999999999998" type="curve" smooth="yes"/>
      <point x="105.3" y="140.29999999999998"/>
      <point x="74.7" y="122.3"/>
      <point x="74.7" y="66.3" type="curve" smooth="yes"/>
      <point x="74.7" y="10.3"/>
      <point x="105.3" y="-8.0"/>
    </contour>
  </outline>
</glyph>
<glyph name="semicolon" format="2">
  <advance width="273.59999999999997"/>
  <unicode hex="003B"/>
  <outline>
    <contour>
      <point x="58.400000000000006" y="-154.0" type="line"/>
      <point x="169.1" y="-120.4"/>
      <point x="210.5" y="-46.8"/>
      <point x="210.5" y="35.1" type="curve" smooth="yes"/>
      <point x="210.5" y="100.5"/>
      <point x="183.5" y="140.29999999999998"/>
      <point x="135.20000000000002" y="140.29999999999998" type="curve" smooth="yes"/>
      <point x="100.69999999999999" y="140.29999999999998"/>
      <point x="72.19999999999999" y="117.3"/>
      <point x="72.19999999999999" y="76.7" type="curve" smooth="yes"/>
      <point x="72.19999999999999" y="5.3"/>
      <point x="134.0" y="12.200000000000001"/>
      <point x="134.0" y="-24.700000000000003" type="curve"/>
      <point x="134.0" y="-62.7"/>
      <point x="108.9" y="-86.7"/>
      <point x="58.400000000000006" y="-107.0" type="curve"/>
    </contour>
    <contour>
      <point x="142.1" y="392.59999999999997" type="curve" smooth="yes"/>
      <point x="179.4" y="392.59999999999997"/>
      <point x="211.6" y="410.6"/>
      <point x="211.6" y="465.9" type="curve" smooth="yes"/>
      <point x="211.6" y="522.1999999999999"/>
      <point x="179.4" y="539.9"/>
      <point x="142.1" y="539.9" type="curve" smooth="yes"/>
      <point x="102.9" y="539.9"/>
      <point x="72.6" y="522.1999999999999"/>
      <point x="72.6" y="465.9" type="curve" smooth="yes"/>
      <point x="72.6" y="410.6"/>
      <point x="102.9" y="392.59999999999997"/>
    </contour>
  </outline>
</glyph>
<glyph name="less" format="2">
  <advance width="465.2"/>
  <unicode hex="003C"/>
  <outline>
    <contour>
      <point x="419.1" y="106.3" type="line"/>
      <point x="419.1" y="181.1" type="line"/>
      <point x="137.4" y="357.0" type="line"/>
      <point x="419.1" y="534.9" type="line"/>
      <point x="419.1" y="609.7" type="line"/>
      <point x="46.1" y="377.0" type="line"/>
      <point x="46.1" y="338.0" type="line"/>
    </contour>
  </outline>
</glyph>
<glyph name="equal" format="2">
  <advance width="465.2"/>
  <unicode hex="003D"/>
  <outline>
    <contour>
      <point x="44.400000000000006" y="416.7" type="line"/>
      <point x="421.1" y="416.7" type="line"/>
      <point x="421.1" y="482.79999999999995" type="line"/>
      <point x="44.400000000000006" y="482.79999999999995" type="line"/>
    </contour>
    <contour>
      <point x="44.400000000000006" y="231.20000000000002" type="line"/>
      <point x="421.1" y="231.20000000000002" type="line"/>
      <point x="421.1" y="297.3" type="line"/>
      <point x="44.400000000000006" y="297.3" type="line"/>
    </contour>
  </outline>
</glyph>
<glyph name="greater" format="2">
  <advance width="465.2"/>
  <unicode hex="003E"/>
  <outline>
    <contour>
      <point x="46.1" y="106.3" type="line"/>
      <point x="419.1" y="338.0" type="line"/>
      <point x="419.1" y="377.0" type="line"/>
      <point x="46.1" y="609.7" type="line"/>
      <point x="46.1" y="534.9" type="line"/>
      <point x="327.1" y="357.0" type="line"/>
      <point x="46.1" y="181.1" type="line"/>
    </contour>
  </outline>
</glyph>
<glyph name="question" format="2">
  <advance width="472.6"/>
  <unicode hex="003F"/>
  <outline>
    <contour>
      <point x="184.5" y="222.0" type="line"/>
      <point x="245.5" y="222.0" type="line"/>
      <point x="261.29999999999995" y="321.8" type="line"/>
      <point x="378.20000000000005" y="375.40000000000003"/>
      <point x="433.09999999999997" y="434.40000000000003"/>
      <point x="433.09999999999997" y="542.0999999999999" type="curve" smooth="yes"/>
      <point x="433.09999999999997" y="657.4"/>
      <point x="349.4" y="724.0"/>
      <point x="219.5" y="724.0" type="curve" smooth="yes"/>
      <point x="90.7" y="724.0"/>
      <point x="31.0" y="667.1"/>
      <point x="31.0" y="604.6" type="curve" smooth="yes"/>
      <point x="31.0" y="550.7"/>
      <point x="74.10000000000001" y="532.8000000000001"/>
      <point x="148.4" y="532.8000000000001" type="curve"/>
      <point x="148.4" y="616.8000000000001"/>
      <point x="170.2" y="666.1"/>
      <point x="220.7" y="666.1" type="curve" smooth="yes"/>
      <point x="266.59999999999997" y="666.1"/>
      <point x="291.1" y="618.8000000000001"/>
      <point x="291.1" y="551.8000000000001" type="curve" smooth="yes"/>
      <point x="291.1" y="468.8"/>
      <point x="267.7" y="397.1"/>
      <point x="168.7" y="348.90000000000003" type="curve"/>
    </contour>
    <contour>
      <point x="213.20000000000002" y="-8.0" type="curve" smooth="yes"/>
      <point x="252.29999999999998" y="-8.0"/>
      <point x="285.79999999999995" y="10.6"/>
      <point x="285.79999999999995" y="68.39999999999999" type="curve" smooth="yes"/>
      <point x="285.79999999999995" y="126.20000000000002"/>
      <point x="252.29999999999998" y="144.79999999999998"/>
      <point x="213.20000000000002" y="144.79999999999998" type="curve" smooth="yes"/>
      <point x="173.4" y="144.79999999999998"/>
      <point x="142.3" y="126.20000000000002"/>
      <point x="142.3" y="68.39999999999999" type="curve" smooth="yes"/>
      <point x="142.3" y="10.6"/>
      <point x="173.4" y="-8.0"/>
    </contour>
  </outline>
</glyph>
<glyph name="bracketleft" format="2">
  <advance width="360.8"/>
  <unicode hex="005B"/>
  <outline>
    <contour>
      <point x="77.4" y="-128.0" type="line"/>
      <point x="316.4" y="-128.0" type="line"/>
      <point x="316.4" y="-78.6" type="line"/>
      <point x="278.7" y="-78.6" type="line" smooth="yes"/>
      <point x="240.0" y="-78.6"/>
      <point x="207.5" y="-69.6"/>
      <point x="207.5" y="-6.6" type="curve" smooth="yes"/>
      <point x="207.5" y="638.6" type="line" smooth="yes"/>
      <point x="207.5" y="701.5999999999999"/>
      <point x="240.0" y="710.5999999999999"/>
      <point x="278.7" y="710.5999999999999" type="curve" smooth="yes"/>
      <point x="316.4" y="710.5999999999999" type="line"/>
      <point x="316.4" y="760.0" type="line"/>
      <point x="77.4" y="760.0" type="line"/>
    </contour>
  </outline>
</glyph>
<glyph name="backslash" format="2">
  <advance width="250.9"/>
  <unicode hex="005C"/>
  <outline>
    <contour>
      <point x="189.1" y="-121.0" type="line"/>
      <point x="250.9" y="-121.0" type="line"/>
      <point x="61.5" y="760.0" type="line"/>
      <point x="0.0" y="760.0" type="line"/>
    </contour>
  </outline>
</glyph>
<glyph name="bracketright" format="2">
  <advance width="373.40000000000003"/>
  <unicode hex="005D"/>
  <outline>
    <contour>
      <point x="58.0" y="-128.0" type="line"/>
      <point x="296.0" y="-128.0" type="line"/>
      <point x="296.0" y="760.0" type="line"/>
      <point x="58.0" y="760.0" type="line"/>
      <point x="58.0" y="710.5999999999999" type="line"/>
      <point x="95.0" y="710.5999999999999" type="line" smooth="yes"/>
      <point x="134.4" y="710.5999999999999"/>
      <point x="166.2" y="701.5999999999999"/>
      <point x="166.2" y="638.6" type="curve" smooth="yes"/>
      <point x="166.2" y="-6.6" type="line" smooth="yes"/>
      <point x="166.2" y="-69.6"/>
      <point x="134.4" y="-78.6"/>
      <point x="95.0" y="-78.6" type="curve" smooth="yes"/>
      <point x="58.0" y="-78.6" type="line"/>
    </contour>
  </outline>
</glyph>
<glyph name="asciicircum" format="2">
  <advance width="464.5"/>
  <unicode hex="005E"/>
  <outline>
    <contour>
      <point x="29.099999999999998" y="264.0" type="line"/>
      <point x="96.2" y="264.0" type="line"/>
      <point x="231.1" y="611.2" type="line"/>
      <point x="367.3" y="264.0" type="line"/>
      <point x="434.8" y="264.0" type="line"/>
      <point x="249.7" y="714.0" type="line"/>
      <point x="213.5" y="714.0" type="line"/>
    </contour>
  </outline>
</glyph>
<glyph name="underscore" format="2">
  <advance width="399.5"/>
  <unicode hex="005F"/>
  <outline>
    <contour>
      <point x="-5.0" y="-141.7" type="line"/>
      <point x="403.79999999999995" y="-141.7" type="line"/>
      <point x="403.79999999999995" y="-83.0" type="line"/>
      <point x="-5.0" y="-83.0" type="line"/>
    </contour>
  </outline>
</glyph>
<glyph name="braceleft" format="2">
  <advance width="395.5"/>
  <unicode hex="007B"/>
  <outline>
    <contour>
      <point x="272.5" y="-126.0" type="curve" smooth="yes"/>
      <point x="353.8" y="-126.0" type="line"/>
      <point x="353.8" y="-76.6" type="line"/>
      <point x="319.9" y="-76.6" type="line" smooth="yes"/>
      <point x="270.6" y="-76.6"/>
      <point x="257.5" y="-40.599999999999994"/>
      <point x="257.5" y="23.7" type="curve" smooth="yes"/>
      <point x="257.5" y="195.0" type="line" smooth="yes"/>
      <point x="257.5" y="258.0"/>
      <point x="227.7" y="299.3"/>
      <point x="162.5" y="316.0" type="curve"/>
      <point x="162.5" y="321.7" type="line"/>
      <point x="229.1" y="337.40000000000003"/>
      <point x="257.5" y="378.0"/>
      <point x="257.5" y="440.0" type="curve" smooth="yes"/>
      <point x="257.5" y="611.0" type="line" smooth="yes"/>
      <point x="257.5" y="676.3"/>
      <point x="270.6" y="710.5999999999999"/>
      <point x="320.2" y="710.5999999999999" type="curve" smooth="yes"/>
      <point x="353.8" y="710.5999999999999" type="line"/>
      <point x="353.8" y="760.0" type="line"/>
      <point x="272.5" y="760.0" type="line" smooth="yes"/>
      <point x="175.5" y="760.0"/>
      <point x="124.7" y="707.0"/>
      <point x="124.7" y="615.3" type="curve" smooth="yes"/>
      <point x="124.7" y="442.0" type="line" smooth="yes"/>
      <point x="124.7" y="365.4"/>
      <point x="80.7" y="347.4"/>
      <point x="23.8" y="345.4" type="curve"/>
      <point x="23.8" y="291.3" type="line"/>
      <point x="80.7" y="288.3"/>
      <point x="124.7" y="271.0"/>
      <point x="124.7" y="192.0" type="curve" smooth="yes"/>
      <point x="124.7" y="20.7" type="line" smooth="yes"/>
      <point x="124.7" y="-70.0"/>
      <point x="175.5" y="-126.0"/>
    </contour>
  </outline>
</glyph>
<glyph name="braceright" format="2">
  <advance width="404.8"/>
  <unicode hex="007D"/>
  <outline>
    <contour>
      <point x="51.699999999999996" y="-126.0" type="line"/>
      <point x="133.0" y="-126.0" type="line" smooth="yes"/>
      <point x="230.0" y="-126.0"/>
      <point x="279.8" y="-70.0"/>
      <point x="279.8" y="20.7" type="curve" smooth="yes"/>
      <point x="279.8" y="192.0" type="line" smooth="yes"/>
      <point x="279.8" y="271.0"/>
      <point x="325.09999999999997" y="288.3"/>
      <point x="381.7" y="291.3" type="curve"/>
      <point x="381.7" y="345.4" type="line"/>
      <point x="325.09999999999997" y="347.4"/>
      <point x="279.8" y="365.4"/>
      <point x="279.8" y="442.0" type="curve" smooth="yes"/>
      <point x="279.8" y="615.3" type="line" smooth="yes"/>
      <point x="279.8" y="707.0"/>
      <point x="230.0" y="760.0"/>
      <point x="133.0" y="760.0" type="curve" smooth="yes"/>
      <point x="51.699999999999996" y="760.0" type="line"/>
      <point x="51.699999999999996" y="710.5999999999999" type="line"/>
      <point x="85.60000000000001" y="710.5999999999999" type="line" smooth="yes"/>
      <point x="135.2" y="710.5999999999999"/>
      <point x="147.3" y="676.3"/>
      <point x="147.3" y="611.0" type="curve" smooth="yes"/>
      <point x="147.3" y="440.0" type="line" smooth="yes"/>
      <point x="147.3" y="378.0"/>
      <point x="176.7" y="337.40000000000003"/>
      <point x="244.00000000000003" y="321.7" type="curve"/>
      <point x="244.00000000000003" y="316.0" type="line"/>
      <point x="176.39999999999998" y="299.3"/>
      <point x="147.3" y="258.0"/>
      <point x="147.3" y="195.0" type="curve" smooth="yes"/>
      <point x="147.3" y="23.7" type="line" smooth="yes"/>
      <point x="147.3" y="-40.599999999999994"/>
      <point x="135.2" y="-76.6"/>
      <point x="85.6" y="-76.6" type="curve" smooth="yes"/>
      <point x="51.699999999999996" y="-76.6" type="line"/>
    </contour>
  </outline>
</glyph>
<glyph name="asciitilde" format="2">
  <advance width="465.2"/>
  <unicode hex="007E"/>
  <outline>
    <contour>
      <point x="27.6" y="264.3" type="curve"/>
      <point x="92.9" y="264.3" type="line"/>
      <point x="96.5" y="347.0"/>
      <point x="112.4" y="381.29999999999995"/>
      <point x="144.5" y="381.29999999999995" type="curve" smooth="yes"/>
      <point x="166.8" y="381.29999999999995"/>
      <point x="181.6" y="364.90000000000003"/>
      <point x="214.9" y="329.29999999999995" type="curve" smooth="yes"/>
      <point x="261.4" y="277.8"/>
      <point x="287.8" y="264.3"/>
      <point x="324.2" y="264.3" type="curve" smooth="yes"/>
      <point x="410.7" y="264.3"/>
      <point x="434.79999999999995" y="354.2"/>
      <point x="438.0" y="448.7" type="curve"/>
      <point x="372.40000000000003" y="448.7" type="line"/>
      <point x="369.2" y="366.8"/>
      <point x="354.90000000000003" y="331.7"/>
      <point x="323.1" y="331.7" type="curve" smooth="yes"/>
      <point x="300.6" y="331.7"/>
      <point x="286.0" y="349.9"/>
      <point x="255.39999999999998" y="381.7" type="curve" smooth="yes"/>
      <point x="209.0" y="428.7"/>
      <point x="182.70000000000002" y="448.7"/>
      <point x="143.0" y="448.7" type="curve" smooth="yes"/>
      <point x="56.199999999999996" y="448.7"/>
      <point x="30.900000000000002" y="360.1"/>
    </contour>
  </outline>
</glyph>
<glyph name="multiply" format="2">
  <advance width="465.2"/>
  <unicode hex="00D7"/>
  <outline>
    <contour>
      <point x="99.2" y="157.1" type="line"/>
      <point x="232.79999999999998" y="309.2" type="line"/>
      <point x="365.0" y="158.5" type="line"/>
      <point x="413.1" y="201.70000000000002" type="line"/>
      <point x="276.0" y="358.7" type="line"/>
      <point x="413.1" y="515.4" type="line"/>
      <point x="364.3" y="558.1999999999999" type="line"/>
      <point x="232.79999999999998" y="408.5" type="line"/>
      <point x="99.89999999999999" y="559.3" type="line"/>
      <point x="50.8" y="516.8000000000001" type="line"/>
      <point x="189.6" y="359.0" type="line"/>
      <point x="50.8" y="200.6" type="line"/>
    </contour>
  </outline>
</glyph>
<glyph name="divide" format="2">
  <advance width="465.2"/>
  <unicode hex="00F7"/>
  <outline>
    <contour>
      <point x="46.1" y="324.3" type="line"/>
      <point x="419.1" y="324.3" type="line"/>
      <point x="419.1" y="390.7" type="line"/>
      <point x="46.1" y="390.7" type="line"/>
    </contour>
    <contour>
      <point x="233.1" y="109.6" type="curve" smooth="yes"/>
      <point x="260.3" y="109.6"/>
      <point x="282.59999999999997" y="125.3"/>
      <point x="282.59999999999997" y="168.29999999999998" type="curve" smooth="yes"/>
      <point x="282.59999999999997" y="212.29999999999998"/>
      <point x="260.3" y="227.0"/>
      <point x="233.1" y="227.0" type="curve" smooth="yes"/>
      <point x="204.20000000000002" y="227.0"/>
      <point x="182.9" y="212.29999999999998"/>
      <point x="182.9" y="168.29999999999998" type="curve" smooth="yes"/>
      <point x="182.9" y="125.3"/>
      <point x="204.20000000000002" y="109.6"/>
    </contour>
    <contour>
      <point x="233.1" y="488.3" type="curve" smooth="yes"/>
      <point x="260.3" y="488.3"/>
      <point x="282.59999999999997" y="503.7"/>
      <point x="282.59999999999997" y="546.6999999999999" type="curve" smooth="yes"/>
      <point x="282.59999999999997" y="590.6999999999999"/>
      <point x="260.3" y="605.4"/>
      <point x="233.1" y="605.4" type="curve" smooth="yes"/>
      <point x="204.20000000000002" y="605.4"/>
      <point x="182.9" y="590.6999999999999"/>
      <point x="182.9" y="546.6999999999999" type="curve" smooth="yes"/>
      <point x="182.9" y="503.7"/>
      <point x="204.20000000000002" y="488.3"/>
    </contour>
  </outline>
</glyph>
<glyph name="anudatta-deva" format="2">
  <unicode hex="0952"/>
  <anchor x="-299.0" y="420.0" name="_vedic"/>
  <outline>
    <contour>
      <point x="-501.70000000000005" y="-154.0" type="line"/>
      <point x="-95.60000000000001" y="-154.0" type="line"/>
      <point x="-95.60000000000001" y="-82.0" type="line"/>
      <point x="-501.70000000000005" y="-82.0" type="line"/>
    </contour>
  </outline>
</glyph>
<glyph name="danda-deva" format="2">
  <advance width="387.1"/>
  <unicode hex="0964"/>
  <outline>
    <contour>
      <point x="322.1" y="-35.0" type="line"/>
      <point x="330.1" y="-32.0" type="line"/>
      <point x="330.1" y="588.0" type="line"/>
      <point x="243.1" y="625.0" type="line"/>
      <point x="240.1" y="625.0" type="line"/>
      <point x="240.1" y="2.0" type="line"/>
    </contour>
  </outline>
</glyph>
<glyph name="dbldanda-deva" format="2">
  <advance width="548.7"/>
  <unicode hex="0965"/>
  <outline>
    <contour>
      <point x="484.7" y="-35.0" type="line"/>
      <point x="491.7" y="-32.0" type="line"/>
      <point x="491.7" y="588.0" type="line"/>
      <point x="405.7" y="625.0" type="line"/>
      <point x="402.7" y="625.0" type="line"/>
      <point x="402.7" y="2.0" type="line"/>
    </contour>
    <contour>
      <point x="322.1" y="-35.0" type="line"/>
      <point x="330.1" y="-32.0" type="line"/>
      <point x="330.1" y="588.0" type="line"/>
      <point x="243.1" y="625.0" type="line"/>
      <point x="240.1" y="625.0" type="line"/>
      <point x="240.1" y="2.0" type="line"/>
    </contour>
  </outline>
</glyph>
<glyph name="anji-beng" format="2">
  <advance width="517.4"/>
  <unicode hex="0980"/>
  <anchor x="276.0" y="583.0" name="top"/>
  <outline>
    <contour>
      <point x="427.8" y="-33.6" type="curve" smooth="yes"/>
      <point x="478.6" y="-33.6"/>
      <point x="507.3" y="-1.5999999999999999"/>
      <point x="507.3" y="46.400000000000006" type="curve" smooth="yes"/>
      <point x="507.3" y="93.3"/>
      <point x="475.7" y="124.30000000000001"/>
      <point x="436.5" y="124.30000000000001" type="curve" smooth="yes"/>
      <point x="393.7" y="124.30000000000001"/>
      <point x="378.4" y="91.30000000000001"/>
      <point x="377.09999999999997" y="62.0" type="curve"/>
      <point x="415.6" y="57.0" type="line"/>
      <point x="415.6" y="471.09999999999997" type="line" smooth="yes"/>
      <point x="415.6" y="562.4"/>
      <point x="352.1" y="631.0"/>
      <point x="250.7" y="631.0" type="curve" smooth="yes"/>
      <point x="135.9" y="631.0"/>
      <point x="41.1" y="539.4"/>
      <point x="41.1" y="406.5" type="curve" smooth="yes"/>
      <point x="41.1" y="277.8"/>
      <point x="116.3" y="206.7"/>
      <point x="206.5" y="206.7" type="curve" smooth="yes"/>
      <point x="266.3" y="206.7"/>
      <point x="301.79999999999995" y="245.29999999999998"/>
      <point x="301.79999999999995" y="302.2" type="curve" smooth="yes"/>
      <point x="301.79999999999995" y="356.40000000000003"/>
      <point x="271.0" y="390.3"/>
      <point x="225.8" y="390.3" type="curve" smooth="yes"/>
      <point x="182.70000000000002" y="390.3"/>
      <point x="153.6" y="359.1"/>
      <point x="153.6" y="312.2" type="curve" smooth="yes"/>
      <point x="153.6" y="294.5"/>
      <point x="156.6" y="277.2"/>
      <point x="160.9" y="267.59999999999997" type="curve"/>
      <point x="205.9" y="290.2" type="line"/>
      <point x="195.3" y="287.2"/>
      <point x="183.70000000000002" y="286.2"/>
      <point x="173.10000000000002" y="286.2" type="curve" smooth="yes"/>
      <point x="143.8" y="286.2"/>
      <point x="126.39999999999999" y="316.5"/>
      <point x="126.39999999999999" y="371.7" type="curve" smooth="yes"/>
      <point x="126.39999999999999" y="466.5"/>
      <point x="219.5" y="537.6999999999999"/>
      <point x="278.8" y="537.6999999999999" type="curve" smooth="yes"/>
      <point x="315.1" y="537.6999999999999"/>
      <point x="328.4" y="517.6999999999999"/>
      <point x="328.4" y="478.2" type="curve" smooth="yes"/>
      <point x="328.4" y="90.2" type="line" smooth="yes"/>
      <point x="328.4" y="19.3"/>
      <point x="365.0" y="-33.6"/>
    </contour>
  </outline>
</glyph>
<glyph name="anusvara-beng" format="2">
  <advance width="339.5"/>
  <unicode hex="0982"/>
  <anchor x="-205.1" y="0.0" name="vedic"/>
  <outline>
    <contour>
      <point x="166.6" y="335.0" type="curve" smooth="yes"/>
      <point x="243.10000000000002" y="335.0"/>
      <point x="298.4" y="395.7"/>
      <point x="298.4" y="481.0" type="curve" smooth="yes"/>
      <point x="298.4" y="559.0"/>
      <point x="250.0" y="622.0"/>
      <point x="174.8" y="622.0" type="curve" smooth="yes"/>
      <point x="98.6" y="622.0"/>
      <point x="43.900000000000006" y="560.0"/>
      <point x="43.900000000000006" y="476.0" type="curve" smooth="yes"/>
      <point x="43.900000000000006" y="399.59999999999997"/>
      <point x="92.5" y="335.0"/>
    </contour>
    <contour>
      <point x="143.5" y="407.0" type="curve" smooth="yes"/>
      <point x="128.0" y="407.0"/>
      <point x="115.5" y="419.0"/>
      <point x="115.5" y="442.7" type="curve" smooth="yes"/>
      <point x="115.5" y="489.3"/>
      <point x="166.1" y="548.0"/>
      <point x="201.9" y="548.0" type="curve" smooth="yes"/>
      <point x="219.3" y="548.0"/>
      <point x="228.5" y="534.3"/>
      <point x="228.5" y="517.0" type="curve" smooth="yes"/>
      <point x="228.5" y="472.7"/>
      <point x="180.3" y="407.0"/>
    </contour>
    <contour>
      <point x="283.8" y="-67.0" type="curve"/>
      <point x="331.79999999999995" y="-49.0" type="line"/>
      <point x="273.1" y="98.8"/>
      <point x="195.0" y="231.3"/>
      <point x="105.30000000000001" y="298.59999999999997" type="curve"/>
      <point x="43.3" y="180.0" type="line"/>
      <point x="129.3" y="130.0"/>
      <point x="191.3" y="81.7"/>
    </contour>
  </outline>
</glyph>
<glyph name="visarga-beng" format="2">
  <advance width="346.5"/>
  <unicode hex="0983"/>
  <anchor x="-205.1" y="0.0" name="vedic"/>
  <outline>
    <contour>
      <point x="168.70000000000002" y="334.4" type="curve" smooth="yes"/>
      <point x="246.70000000000002" y="334.4"/>
      <point x="302.9" y="395.4"/>
      <point x="302.9" y="481.0" type="curve" smooth="yes"/>
      <point x="302.9" y="559.6"/>
      <point x="253.9" y="622.6"/>
      <point x="176.9" y="622.6" type="curve" smooth="yes"/>
      <point x="99.5" y="622.6"/>
      <point x="43.900000000000006" y="560.6"/>
      <point x="43.900000000000006" y="476.0" type="curve" smooth="yes"/>
      <point x="43.900000000000006" y="399.29999999999995"/>
      <point x="93.39999999999999" y="334.4"/>
    </contour>
    <contour>
      <point x="145.9" y="406.4" type="curve" smooth="yes"/>
      <point x="130.4" y="406.4"/>
      <point x="117.6" y="418.4"/>
      <point x="117.6" y="441.8" type="curve" smooth="yes"/>
      <point x="117.6" y="488.7"/>
      <point x="167.9" y="548.6"/>
      <point x="204.0" y="548.6" type="curve" smooth="yes"/>
      <point x="221.70000000000002" y="548.6"/>
      <point x="230.9" y="534.9"/>
      <point x="230.9" y="517.6" type="curve" smooth="yes"/>
      <point x="230.9" y="473.3"/>
      <point x="183.6" y="406.4"/>
    </contour>
    <contour>
      <point x="169.0" y="-17.9" type="curve" smooth="yes"/>
      <point x="246.4" y="-17.9"/>
      <point x="302.0" y="42.1"/>
      <point x="302.0" y="128.1" type="curve" smooth="yes"/>
      <point x="302.0" y="206.10000000000002"/>
      <point x="253.3" y="268.1"/>
      <point x="176.9" y="268.1" type="curve" smooth="yes"/>
      <point x="100.1" y="268.1"/>
      <point x="44.50000000000001" y="206.4"/>
      <point x="44.50000000000001" y="122.4" type="curve" smooth="yes"/>
      <point x="44.50000000000001" y="46.0"/>
      <point x="93.69999999999999" y="-17.9"/>
    </contour>
    <contour>
      <point x="146.2" y="53.5" type="curve" smooth="yes"/>
      <point x="130.4" y="53.5"/>
      <point x="117.9" y="64.8"/>
      <point x="117.9" y="88.89999999999999" type="curve" smooth="yes"/>
      <point x="117.9" y="135.79999999999998"/>
      <point x="167.9" y="195.4"/>
      <point x="204.0" y="195.4" type="curve" smooth="yes"/>
      <point x="221.4" y="195.4"/>
      <point x="230.6" y="181.70000000000002"/>
      <point x="230.6" y="164.70000000000002" type="curve" smooth="yes"/>
      <point x="230.6" y="120.4"/>
      <point x="183.6" y="53.5"/>
    </contour>
  </outline>
</glyph>
<glyph name="a-beng" format="2">
  <advance width="708.3"/>
  <unicode hex="0985"/>
  <anchor x="647.9" y="0.0" name="bottom"/>
  <anchor x="648.6" y="87.0" name="bottom.rakaar"/>
  <anchor x="647.9" y="11.0" name="bottom.rvocalic"/>
  <anchor x="630.7" y="14.0" name="bottom.virama"/>
  <anchor x="647.9" y="550.0" name="top"/>
  <anchor x="647.9" y="550.0" name="topright"/>
  <anchor x="353.79999999999995" y="0.0" name="vedic"/>
  <outline>
    <contour>
      <point x="637.8" y="-24.0" type="line"/>
      <point x="646.5" y="-22.0" type="line"/>
      <point x="646.5" y="550.0" type="line"/>
      <point x="740.5" y="550.0" type="line"/>
      <point x="701.3" y="622.0" type="line"/>
      <point x="-32.2" y="622.0" type="line"/>
      <point x="6.699999999999999" y="550.0" type="line"/>
      <point x="559.6" y="550.0" type="line"/>
      <point x="559.6" y="89.30000000000001" type="line"/>
      <point x="576.4" y="93.7" type="line"/>
      <point x="549.0" y="164.2"/>
      <point x="509.6" y="211.8"/>
      <point x="467.5" y="243.1" type="curve"/>
      <point x="434.29999999999995" y="160.0" type="line"/>
      <point x="491.4" y="127.6"/>
      <point x="538.0" y="81.5"/>
      <point x="575.5" y="15.200000000000001" type="curve"/>
    </contour>
    <contour>
      <point x="313.8" y="50.9" type="curve" smooth="yes"/>
      <point x="416.9" y="50.9"/>
      <point x="501.5" y="127.99999999999999"/>
      <point x="501.5" y="277.0" type="curve" smooth="yes"/>
      <point x="501.5" y="400.40000000000003"/>
      <point x="432.9" y="500.0"/>
      <point x="303.0" y="500.0" type="curve" smooth="yes"/>
      <point x="224.0" y="500.0"/>
      <point x="174.60000000000002" y="454.0"/>
      <point x="174.60000000000002" y="380.0" type="curve" smooth="yes"/>
      <point x="174.60000000000002" y="315.0"/>
      <point x="216.4" y="269.0"/>
      <point x="279.2" y="269.0" type="curve" smooth="yes"/>
      <point x="341.6" y="269.0"/>
      <point x="374.1" y="316.0"/>
      <point x="374.1" y="379.0" type="curve" smooth="yes"/>
      <point x="374.1" y="464.3"/>
      <point x="316.2" y="531.0"/>
      <point x="277.40000000000003" y="563.0" type="curve"/>
      <point x="119.2" y="562.0" type="line"/>
      <point x="250.29999999999998" y="531.0"/>
      <point x="296.6" y="460.0"/>
      <point x="306.2" y="374.0" type="curve"/>
      <point x="317.7" y="382.0"/>
      <point x="335.70000000000005" y="390.0"/>
      <point x="357.3" y="390.0" type="curve" smooth="yes"/>
      <point x="394.0" y="390.0"/>
      <point x="433.7" y="363.4"/>
      <point x="434.29999999999995" y="294.0" type="curve" smooth="yes"/>
      <point x="434.9" y="216.0"/>
      <point x="381.6" y="180.7"/>
      <point x="310.0" y="180.7" type="curve" smooth="yes"/>
      <point x="203.6" y="180.7"/>
      <point x="118.4" y="253.4"/>
      <point x="63.5" y="481.8" type="curve"/>
      <point x="8.5" y="469.20000000000005" type="line"/>
      <point x="66.7" y="178.6"/>
      <point x="162.2" y="50.9"/>
    </contour>
  </outline>
</glyph>
<glyph name="i-beng" format="2">
  <advance width="445.7"/>
  <unicode hex="0987"/>
  <anchor x="285.5" y="52.0" name="bottom"/>
  <anchor x="403.4" y="-83.7" name="bottom.rakaar"/>
  <anchor x="360.4" y="48.0" name="bottom.rvocalic"/>
  <anchor x="275.3" y="55.0" name="bottom.virama"/>
  <anchor x="311.9" y="610.0" name="top"/>
  <anchor x="261.5" y="612.0" name="topright"/>
  <anchor x="222.5" y="0.0" name="vedic"/>
  <outline>
    <contour>
      <point x="342.0" y="598.0" type="curve"/>
      <point x="397.8" y="598.0" type="line"/>
      <point x="393.09999999999997" y="745.0"/>
      <point x="343.0" y="815.0999999999999"/>
      <point x="252.5" y="815.0999999999999" type="curve" smooth="yes"/>
      <point x="204.4" y="815.0999999999999"/>
      <point x="172.0" y="805.1"/>
      <point x="123.39999999999999" y="805.1" type="curve" smooth="yes"/>
      <point x="61.199999999999996" y="805.1"/>
      <point x="34.7" y="827.1999999999999"/>
      <point x="34.7" y="887.1" type="curve" smooth="yes"/>
      <point x="34.7" y="899.8"/>
      <point x="35.7" y="914.5"/>
      <point x="37.400000000000006" y="926.5999999999999" type="curve"/>
      <point x="-10.8" y="932.3" type="line"/>
      <point x="-15.5" y="908.9"/>
      <point x="-17.799999999999997" y="882.1999999999999"/>
      <point x="-17.799999999999997" y="857.4" type="curve" smooth="yes"/>
      <point x="-17.799999999999997" y="757.4"/>
      <point x="30.6" y="695.0999999999999"/>
      <point x="128.60000000000002" y="695.0999999999999" type="curve" smooth="yes"/>
      <point x="188.3" y="695.0999999999999"/>
      <point x="224.70000000000002" y="705.6999999999999"/>
      <point x="263.20000000000005" y="705.6999999999999" type="curve" smooth="yes"/>
      <point x="309.3" y="705.6999999999999"/>
      <point x="338.90000000000003" y="681.7"/>
    </contour>
    <component base="ha-beng"/>
  </outline>
</glyph>
<glyph name="ii-beng" format="2">
  <advance width="612.4"/>
  <unicode hex="0988"/>
  <anchor x="541.3000000000001" y="-22.0" name="bottom"/>
  <anchor x="544.3000000000001" y="47.0" name="bottom.rakaar"/>
  <anchor x="532.9" y="-26.0" name="bottom.rvocalic"/>
  <anchor x="529.8" y="-38.0" name="bottom.virama"/>
  <anchor x="376.7" y="610.0" name="top"/>
  <anchor x="332.70000000000005" y="612.0" name="topright"/>
  <anchor x="306.20000000000005" y="0.0" name="vedic"/>
  <outline>
    <contour>
      <point x="501.3" y="-67.1" type="curve"/>
      <point x="550.3000000000001" y="-47.8" type="line"/>
      <point x="529.7" y="21.799999999999997"/>
      <point x="521.8" y="71.8"/>
      <point x="521.8" y="133.5" type="curve" smooth="yes"/>
      <point x="521.8" y="223.20000000000002"/>
      <point x="545.7" y="314.6"/>
      <point x="586.3" y="391.0" type="curve"/>
      <point x="471.1" y="485.8" type="line"/>
      <point x="395.40000000000003" y="427.9"/>
      <point x="354.1" y="355.5"/>
      <point x="315.9" y="280.70000000000005" type="curve"/>
      <point x="344.1" y="249.5" type="line"/>
      <point x="349.1" y="269.5"/>
      <point x="350.8" y="291.79999999999995"/>
      <point x="350.8" y="312.5" type="curve" smooth="yes"/>
      <point x="350.8" y="410.8"/>
      <point x="307.1" y="498.0"/>
      <point x="170.5" y="498.0" type="curve" smooth="yes"/>
      <point x="90.6" y="498.0"/>
      <point x="44.800000000000004" y="458.0"/>
      <point x="44.800000000000004" y="393.0" type="curve" smooth="yes"/>
      <point x="44.800000000000004" y="329.0"/>
      <point x="87.39999999999999" y="294.0"/>
      <point x="140.5" y="294.0" type="curve" smooth="yes"/>
      <point x="195.6" y="294.0"/>
      <point x="233.9" y="333.6"/>
      <point x="233.2" y="403.3" type="curve" smooth="yes"/>
      <point x="231.8" y="468.3"/>
      <point x="189.9" y="535.0"/>
      <point x="161.9" y="557.0" type="curve"/>
      <point x="34.6" y="557.0" type="line"/>
      <point x="77.8" y="542.0"/>
      <point x="127.9" y="509.3"/>
      <point x="164.0" y="460.0" type="curve"/>
      <point x="141.5" y="379.0" type="line"/>
      <point x="158.79999999999998" y="398.0"/>
      <point x="189.1" y="409.8"/>
      <point x="214.4" y="409.8" type="curve" smooth="yes"/>
      <point x="264.5" y="409.8"/>
      <point x="289.8" y="376.0"/>
      <point x="289.8" y="322.9" type="curve" smooth="yes"/>
      <point x="289.8" y="286.2"/>
      <point x="280.5" y="247.2"/>
      <point x="262.3" y="215.79999999999998" type="curve" smooth="yes"/>
      <point x="242.9" y="180.9"/>
      <point x="216.7" y="161.10000000000002"/>
      <point x="183.9" y="161.10000000000002" type="curve" smooth="yes"/>
      <point x="147.5" y="161.10000000000002"/>
      <point x="120.60000000000001" y="188.4"/>
      <point x="96.1" y="238.4" type="curve"/>
      <point x="47.2" y="214.8" type="line"/>
      <point x="86.6" y="109.1"/>
      <point x="141.10000000000002" y="41.1"/>
      <point x="218.89999999999998" y="41.1" type="curve" smooth="yes"/>
      <point x="289.4" y="41.1"/>
      <point x="335.59999999999997" y="114.19999999999999"/>
      <point x="386.5" y="200.1" type="curve" smooth="yes"/>
      <point x="425.5" y="264.8"/>
      <point x="460.1" y="326.4"/>
      <point x="513.3" y="378.0" type="curve"/>
      <point x="484.9" y="393.9" type="line"/>
      <point x="456.7" y="322.9"/>
      <point x="442.29999999999995" y="257.1"/>
      <point x="442.29999999999995" y="179.0" type="curve" smooth="yes"/>
      <point x="442.29999999999995" y="84.1"/>
      <point x="469.5" y="3.1999999999999997"/>
    </contour>
    <contour>
      <point x="6.699999999999999" y="550.0" type="line"/>
      <point x="644.6" y="550.0" type="line"/>
      <point x="606.4" y="622.0" type="line"/>
      <point x="-32.2" y="622.0" type="line"/>
    </contour>
    <contour>
      <point x="469.2" y="598.0" type="curve"/>
      <point x="526.4000000000001" y="598.0" type="line"/>
      <point x="516.1" y="738.0"/>
      <point x="471.2" y="820.5"/>
      <point x="354.0" y="820.5" type="curve" smooth="yes"/>
      <point x="290.70000000000005" y="820.5"/>
      <point x="263.3" y="806.8"/>
      <point x="188.0" y="806.8" type="curve" smooth="yes"/>
      <point x="117.69999999999999" y="806.8"/>
      <point x="89.0" y="828.9"/>
      <point x="89.0" y="892.3" type="curve" smooth="yes"/>
      <point x="89.0" y="901.9"/>
      <point x="89.7" y="914.9"/>
      <point x="91.7" y="926.6" type="curve"/>
      <point x="44.199999999999996" y="932.3" type="line"/>
      <point x="39.199999999999996" y="909.6"/>
      <point x="36.5" y="885.3000000000001"/>
      <point x="36.5" y="862.0" type="curve" smooth="yes"/>
      <point x="36.5" y="760.0"/>
      <point x="88.80000000000001" y="694.7"/>
      <point x="202.6" y="694.7" type="curve" smooth="yes"/>
      <point x="275.7" y="694.7"/>
      <point x="320.5" y="710.4"/>
      <point x="375.7" y="710.4" type="curve" smooth="yes"/>
      <point x="437.1" y="710.4"/>
      <point x="461.9" y="681.0"/>
    </contour>
  </outline>
</glyph>
<glyph name="u-beng" format="2">
  <advance width="545.6"/>
  <unicode hex="0989"/>
  <anchor x="426.79999999999995" y="0.3999999999999999" name="bottom"/>
  <anchor x="480.90000000000003" y="-9.0" name="bottom.rakaar"/>
  <anchor x="415.09999999999997" y="27.4" name="bottom.rvocalic"/>
  <anchor x="359.8" y="0.3999999999999999" name="bottom.virama"/>
  <anchor x="349.4" y="605.7" name="top"/>
  <anchor x="289.7" y="612.7" name="topright"/>
  <anchor x="272.8" y="0.0" name="vedic"/>
  <anchor x="294.0" y="-108.0" name="nukta"/>
  <outline>
    <contour>
      <point x="431.2" y="598.0" type="curve"/>
      <point x="487.7" y="598.0" type="line"/>
      <point x="478.59999999999997" y="744.0"/>
      <point x="427.7" y="815.8000000000001"/>
      <point x="326.40000000000003" y="815.8000000000001" type="curve" smooth="yes"/>
      <point x="273.4" y="815.8000000000001"/>
      <point x="240.5" y="806.1"/>
      <point x="188.5" y="806.1" type="curve" smooth="yes"/>
      <point x="116.8" y="806.1"/>
      <point x="89.5" y="830.0"/>
      <point x="89.5" y="886.6999999999999" type="curve" smooth="yes"/>
      <point x="89.5" y="898.1"/>
      <point x="90.5" y="912.5"/>
      <point x="92.2" y="926.3" type="curve"/>
      <point x="43.3" y="932.3" type="line"/>
      <point x="38.3" y="908.6"/>
      <point x="36.3" y="883.6"/>
      <point x="36.3" y="859.2" type="curve" smooth="yes"/>
      <point x="36.3" y="759.7"/>
      <point x="88.60000000000001" y="695.1"/>
      <point x="199.4" y="695.1" type="curve" smooth="yes"/>
      <point x="260.6" y="695.1"/>
      <point x="301.8" y="706.1"/>
      <point x="339.1" y="706.1" type="curve" smooth="yes"/>
      <point x="394.70000000000005" y="706.1"/>
      <point x="423.3" y="681.4"/>
    </contour>
    <component base="dda-beng"/>
  </outline>
</glyph>
<glyph name="uu-beng" format="2">
  <advance width="633.6999999999999"/>
  <unicode hex="098A"/>
  <anchor x="505.5" y="-7.0" name="bottom"/>
  <anchor x="559.5999999999999" y="-15.0" name="bottom.rakaar"/>
  <anchor x="493.1" y="20.0" name="bottom.rvocalic"/>
  <anchor x="437.1" y="-6.0" name="bottom.virama"/>
  <anchor x="403.8" y="608.0" name="top"/>
  <anchor x="382.0" y="612.0" name="topright"/>
  <anchor x="316.5" y="0.0" name="vedic"/>
  <outline>
    <contour>
      <point x="391.59999999999997" y="3.8" type="curve" smooth="yes"/>
      <point x="545.3000000000001" y="3.8"/>
      <point x="614.9000000000001" y="103.9"/>
      <point x="614.9000000000001" y="243.2" type="curve" smooth="yes"/>
      <point x="614.9000000000001" y="349.90000000000003"/>
      <point x="575.0" y="425.1"/>
      <point x="522.3" y="475.0" type="curve"/>
      <point x="478.7" y="397.8"/>
      <point x="432.5" y="353.90000000000003"/>
      <point x="397.5" y="353.90000000000003" type="curve" smooth="yes"/>
      <point x="383.40000000000003" y="353.90000000000003"/>
      <point x="369.09999999999997" y="361.6"/>
      <point x="369.09999999999997" y="383.90000000000003" type="curve" smooth="yes"/>
      <point x="369.09999999999997" y="550.0" type="line"/>
      <point x="665.9" y="550.0" type="line"/>
      <point x="625.0" y="622.0" type="line"/>
      <point x="-32.2" y="622.0" type="line"/>
      <point x="8.0" y="550.0" type="line"/>
      <point x="282.2" y="550.0" type="line"/>
      <point x="282.2" y="376.0" type="line" smooth="yes"/>
      <point x="282.2" y="330.7"/>
      <point x="294.7" y="299.0"/>
      <point x="319.0" y="274.0" type="curve" smooth="yes"/>
      <point x="343.29999999999995" y="249.3"/>
      <point x="371.7" y="236.4"/>
      <point x="409.29999999999995" y="236.4" type="curve" smooth="yes"/>
      <point x="467.09999999999997" y="236.4"/>
      <point x="530.9" y="284.0"/>
      <point x="568.7" y="357.0" type="curve"/>
      <point x="517.9" y="350.0" type="line"/>
      <point x="537.7" y="329.5"/>
      <point x="550.2" y="300.8"/>
      <point x="550.2" y="263.5" type="curve" smooth="yes"/>
      <point x="550.2" y="182.3"/>
      <point x="495.3" y="130.20000000000002"/>
      <point x="409.6" y="129.9" type="curve" smooth="yes"/>
      <point x="261.5" y="129.3"/>
      <point x="218.6" y="278.3"/>
      <point x="167.0" y="493.3" type="curve"/>
      <point x="115.8" y="478.6" type="line"/>
      <point x="142.4" y="307.3"/>
      <point x="177.5" y="195.29999999999998"/>
      <point x="228.0" y="116.3" type="curve"/>
      <point x="266.3" y="122.3" type="line"/>
      <point x="175.1" y="155.3"/>
      <point x="114.8" y="274.0"/>
      <point x="56.2" y="487.3" type="curve"/>
      <point x="5.000000000000001" y="473.3" type="line"/>
      <point x="63.1" y="160.3"/>
      <point x="186.3" y="3.8"/>
    </contour>
    <contour>
      <point x="518.9" y="598.0" type="curve"/>
      <point x="576.0999999999999" y="598.0" type="line"/>
      <point x="565.1999999999999" y="738.0"/>
      <point x="507.1" y="821.9"/>
      <point x="387.70000000000005" y="821.9" type="curve" smooth="yes"/>
      <point x="316.5" y="821.9"/>
      <point x="276.7" y="804.6"/>
      <point x="186.1" y="804.6" type="curve" smooth="yes"/>
      <point x="115.7" y="804.6"/>
      <point x="89.89999999999999" y="830.3"/>
      <point x="89.89999999999999" y="886.6999999999999" type="curve" smooth="yes"/>
      <point x="89.89999999999999" y="898.4"/>
      <point x="90.9" y="912.8"/>
      <point x="92.6" y="926.5999999999999" type="curve"/>
      <point x="43.7" y="932.3" type="line"/>
      <point x="39.0" y="908.9000000000001"/>
      <point x="36.0" y="883.9"/>
      <point x="36.0" y="859.2" type="curve" smooth="yes"/>
      <point x="36.0" y="759.1"/>
      <point x="86.5" y="694.2"/>
      <point x="203.9" y="694.2" type="curve" smooth="yes"/>
      <point x="286.9" y="694.2"/>
      <point x="340.4" y="713.5"/>
      <point x="405.90000000000003" y="713.5" type="curve" smooth="yes"/>
      <point x="472.4" y="713.5"/>
      <point x="510.3" y="681.0"/>
    </contour>
  </outline>
</glyph>
<glyph name="rVocalic-beng" format="2">
  <advance width="685.5"/>
  <unicode hex="098B"/>
  <anchor x="470.79999999999995" y="0.0" name="bottom"/>
  <anchor x="470.79999999999995" y="87.0" name="bottom.rakaar"/>
  <anchor x="406.90000000000003" y="114.9" name="bottom.rvocalic"/>
  <anchor x="452.9" y="14.0" name="bottom.virama"/>
  <anchor x="470.79999999999995" y="550.0" name="top"/>
  <anchor x="473.1" y="550.0" name="topright"/>
  <anchor x="342.4" y="0.0" name="vedic"/>
  <outline>
    <contour>
      <point x="461.8" y="-26.4" type="line"/>
      <point x="470.79999999999995" y="-24.1" type="line"/>
      <point x="470.79999999999995" y="639.0" type="line"/>
      <point x="389.9" y="687.0" type="line"/>
      <point x="383.6" y="685.0" type="line"/>
      <point x="383.6" y="444.0" type="line"/>
      <point x="392.2" y="491.79999999999995" type="line"/>
      <point x="279.2" y="450.59999999999997"/>
      <point x="156.3" y="389.09999999999997"/>
      <point x="66.3" y="329.3" type="curve"/>
      <point x="130.1" y="193.0" type="line"/>
      <point x="240.79999999999998" y="173.79999999999998"/>
      <point x="338.8" y="119.8"/>
      <point x="399.5" y="13.100000000000001" type="curve"/>
    </contour>
    <contour>
      <point x="383.6" y="87.2" type="line"/>
      <point x="400.4" y="91.30000000000001" type="line"/>
      <point x="354.4" y="210.3"/>
      <point x="260.9" y="262.6"/>
      <point x="181.60000000000002" y="286.40000000000003" type="curve"/>
      <point x="192.6" y="251.9" type="line"/>
      <point x="247.6" y="294.5"/>
      <point x="334.09999999999997" y="337.3"/>
      <point x="399.2" y="360.20000000000005" type="curve"/>
      <point x="383.6" y="396.6" type="line"/>
    </contour>
    <contour>
      <point x="123.9" y="421.4" type="curve" smooth="yes"/>
      <point x="185.4" y="421.4"/>
      <point x="264.1" y="454.3"/>
      <point x="309.5" y="535.8" type="curve"/>
      <point x="275.6" y="535.0" type="line"/>
      <point x="296.29999999999995" y="512.7"/>
      <point x="317.40000000000003" y="484.9"/>
      <point x="336.09999999999997" y="442.0" type="curve"/>
      <point x="383.0" y="454.0" type="line"/>
      <point x="359.2" y="528.0"/>
      <point x="320.40000000000003" y="595.3000000000001"/>
      <point x="268.5" y="632.3000000000001" type="curve"/>
      <point x="229.7" y="560.0"/>
      <point x="174.9" y="515.6"/>
      <point x="119.69999999999999" y="515.6" type="curve" smooth="yes"/>
      <point x="109.2" y="515.6"/>
      <point x="95.2" y="518.2"/>
      <point x="88.0" y="521.5" type="curve"/>
      <point x="132.0" y="481.2" type="line"/>
      <point x="149.9" y="498.2"/>
      <point x="156.20000000000002" y="514.2"/>
      <point x="156.20000000000002" y="542.2" type="curve" smooth="yes"/>
      <point x="156.20000000000002" y="578.2"/>
      <point x="134.0" y="610.2"/>
      <point x="86.8" y="610.2" type="curve" smooth="yes"/>
      <point x="39.9" y="610.2"/>
      <point x="10.3" y="578.9000000000001"/>
      <point x="10.3" y="528.9" type="curve" smooth="yes"/>
      <point x="10.3" y="457.8"/>
      <point x="60.9" y="421.4"/>
    </contour>
    <contour>
      <point x="615.3" y="58.4" type="line"/>
      <point x="623.7" y="60.4" type="line"/>
      <point x="623.7" y="550.0" type="line"/>
      <point x="717.7" y="550.0" type="line"/>
      <point x="678.2" y="622.0" type="line"/>
      <point x="615.3" y="622.0" type="line"/>
      <point x="607.5999999999999" y="677.0" type="line"/>
      <point x="545.2" y="713.0" type="line"/>
      <point x="538.2" y="710.0" type="line"/>
      <point x="538.2" y="173.9" type="line"/>
      <point x="555.0" y="177.6" type="line"/>
      <point x="527.6" y="252.6"/>
      <point x="487.3" y="298.70000000000005"/>
      <point x="438.0" y="333.4" type="curve"/>
      <point x="428.0" y="232.89999999999998" type="line"/>
      <point x="480.40000000000003" y="201.9"/>
      <point x="520.7" y="160.1"/>
      <point x="554.1" y="97.9" type="curve"/>
    </contour>
  </outline>
</glyph>
<glyph name="lVocalic-beng" format="2">
  <advance width="481.0"/>
  <unicode hex="098C"/>
  <anchor x="374.9" y="550.0" name="top"/>
  <anchor x="240.0" y="0.0" name="vedic"/>
  <outline>
    <contour>
      <point x="272.1" y="-9.0" type="line"/>
      <point x="360.09999999999997" y="6.0"/>
      <point x="466.6" y="90.6"/>
      <point x="466.6" y="270.3" type="curve" smooth="yes"/>
      <point x="466.6" y="410.8"/>
      <point x="400.8" y="471.1"/>
      <point x="263.9" y="505.6" type="curve" smooth="yes"/>
      <point x="181.20000000000002" y="527.0999999999999"/>
      <point x="128.3" y="541.0"/>
      <point x="128.3" y="616.6" type="curve" smooth="yes"/>
      <point x="128.3" y="647.0"/>
      <point x="134.29999999999998" y="671.0"/>
      <point x="145.29999999999998" y="699.0" type="curve"/>
      <point x="95.3" y="715.0" type="line"/>
      <point x="77.5" y="680.7"/>
      <point x="57.7" y="630.4"/>
      <point x="57.7" y="570.9" type="curve" smooth="yes"/>
      <point x="57.7" y="456.5"/>
      <point x="124.39999999999999" y="416.5"/>
      <point x="236.5" y="389.0" type="curve" smooth="yes"/>
      <point x="338.90000000000003" y="363.8"/>
      <point x="399.70000000000005" y="348.4"/>
      <point x="399.70000000000005" y="241.7" type="curve" smooth="yes"/>
      <point x="399.70000000000005" y="166.7"/>
      <point x="365.4" y="111.69999999999999"/>
      <point x="314.40000000000003" y="104.0" type="curve"/>
      <point x="361.79999999999995" y="76.0" type="line"/>
      <point x="362.09999999999997" y="210.0"/>
      <point x="301.5" y="325.0"/>
      <point x="183.5" y="325.0" type="curve" smooth="yes"/>
      <point x="80.5" y="325.0"/>
      <point x="32.7" y="245.4"/>
      <point x="32.7" y="158.1" type="curve" smooth="yes"/>
      <point x="32.7" y="57.4"/>
      <point x="81.8" y="6.0"/>
      <point x="145.1" y="6.0" type="curve" smooth="yes"/>
      <point x="197.6" y="6.0"/>
      <point x="220.5" y="42.9"/>
      <point x="220.5" y="89.0" type="curve" smooth="yes"/>
      <point x="220.5" y="135.7"/>
      <point x="192.0" y="166.0"/>
      <point x="150.5" y="166.0" type="curve" smooth="yes"/>
      <point x="114.3" y="166.0"/>
      <point x="84.6" y="139.0"/>
      <point x="85.3" y="104.0" type="curve"/>
      <point x="137.1" y="99.3" type="line"/>
      <point x="118.6" y="107.0"/>
      <point x="105.39999999999999" y="125.7"/>
      <point x="105.39999999999999" y="158.0" type="curve" smooth="yes"/>
      <point x="105.39999999999999" y="195.0"/>
      <point x="129.5" y="224.0"/>
      <point x="168.79999999999998" y="224.0" type="curve" smooth="yes"/>
      <point x="243.6" y="224.0"/>
      <point x="269.09999999999997" y="125.3"/>
      <point x="269.09999999999997" y="42.0" type="curve" smooth="yes"/>
      <point x="269.09999999999997" y="26.7"/>
      <point x="268.1" y="11.7"/>
      <point x="265.8" y="-4.0" type="curve"/>
    </contour>
  </outline>
</glyph>
<glyph name="e-beng" format="2">
  <advance width="589.6"/>
  <unicode hex="098F"/>
  <anchor x="532.4" y="0.0" name="bottom"/>
  <anchor x="532.4" y="-5.0" name="bottom.rvocalic"/>
  <anchor x="515.2" y="8.0" name="bottom.virama"/>
  <anchor x="450.59999999999997" y="550.0" name="top"/>
  <anchor x="453.59999999999997" y="550.0" name="topright"/>
  <anchor x="294.3" y="0.0" name="vedic"/>
  <outline>
    <contour>
      <point x="522.7" y="-29.0" type="line"/>
      <point x="531.7" y="-27.0" type="line"/>
      <point x="531.7" y="490.09999999999997" type="line" smooth="yes"/>
      <point x="531.7" y="575.4000000000001"/>
      <point x="482.09999999999997" y="633.0"/>
      <point x="397.6" y="633.0" type="curve" smooth="yes"/>
      <point x="281.4" y="633.0"/>
      <point x="172.70000000000002" y="513.0"/>
      <point x="172.70000000000002" y="386.0" type="curve" smooth="yes"/>
      <point x="172.70000000000002" y="304.0"/>
      <point x="225.1" y="259.0"/>
      <point x="287.09999999999997" y="258.0" type="curve" smooth="yes"/>
      <point x="350.8" y="257.0"/>
      <point x="385.3" y="300.70000000000005"/>
      <point x="385.3" y="354.0" type="curve" smooth="yes"/>
      <point x="385.3" y="403.0"/>
      <point x="356.40000000000003" y="438.0"/>
      <point x="313.1" y="438.0" type="curve" smooth="yes"/>
      <point x="292.5" y="438.0"/>
      <point x="272.7" y="428.0"/>
      <point x="261.1" y="408.0" type="curve"/>
      <point x="310.0" y="403.0" type="line"/>
      <point x="311.40000000000003" y="478.5"/>
      <point x="364.29999999999995" y="553.3000000000001"/>
      <point x="409.7" y="553.3000000000001" type="curve" smooth="yes"/>
      <point x="434.90000000000003" y="553.3000000000001"/>
      <point x="444.5" y="531.3000000000001"/>
      <point x="444.5" y="501.5" type="curve" smooth="yes"/>
      <point x="444.5" y="235.0" type="line" smooth="yes"/>
      <point x="444.5" y="189.79999999999998"/>
      <point x="449.2" y="128.70000000000002"/>
      <point x="456.2" y="92.39999999999999" type="curve"/>
      <point x="419.2" y="169.5"/>
      <point x="374.4" y="186.10000000000002"/>
      <point x="322.0" y="186.10000000000002" type="curve" smooth="yes"/>
      <point x="280.1" y="186.10000000000002"/>
      <point x="247.7" y="178.5"/>
      <point x="196.5" y="178.5" type="curve" smooth="yes"/>
      <point x="133.9" y="178.5"/>
      <point x="90.9" y="212.6"/>
      <point x="90.9" y="296.5" type="curve" smooth="yes"/>
      <point x="90.9" y="328.5"/>
      <point x="94.6" y="358.3"/>
      <point x="101.60000000000001" y="387.3" type="curve"/>
      <point x="48.6" y="395.90000000000003" type="line"/>
      <point x="36.6" y="354.2"/>
      <point x="29.6" y="305.2"/>
      <point x="29.6" y="257.4" type="curve" smooth="yes"/>
      <point x="29.6" y="101.8"/>
      <point x="114.2" y="49.699999999999996"/>
      <point x="206.0" y="49.699999999999996" type="curve" smooth="yes"/>
      <point x="270.6" y="49.699999999999996"/>
      <point x="314.5" y="66.6"/>
      <point x="366.9" y="66.6" type="curve" smooth="yes"/>
      <point x="407.0" y="66.6"/>
      <point x="437.5" y="52.2"/>
      <point x="467.90000000000003" y="5.199999999999999" type="curve"/>
    </contour>
  </outline>
</glyph>
<glyph name="ai-beng" format="2">
  <advance width="679.8"/>
  <unicode hex="0990"/>
  <anchor x="478.7" y="603.0" name="top"/>
  <anchor x="436.20000000000005" y="599.0" name="topright"/>
  <anchor x="339.4" y="0.0" name="vedic"/>
  <anchor x="532.4" y="0.0" name="bottom"/>
  <anchor x="532.4" y="-5.0" name="bottom.rvocalic"/>
  <anchor x="515.2" y="8.0" name="bottom.virama"/>
  <outline>
    <contour>
      <point x="513.4" y="306.5" type="line"/>
      <point x="576.7" y="370.1"/>
      <point x="628.4" y="448.0"/>
      <point x="628.4" y="565.8" type="curve" smooth="yes"/>
      <point x="628.4" y="739.8"/>
      <point x="500.6" y="768.3"/>
      <point x="384.1" y="789.4" type="curve" smooth="yes"/>
      <point x="282.9" y="807.7"/>
      <point x="207.70000000000002" y="824.0"/>
      <point x="207.70000000000002" y="910.1" type="curve" smooth="yes"/>
      <point x="207.70000000000002" y="939.5"/>
      <point x="214.7" y="971.2"/>
      <point x="226.3" y="996.8" type="curve"/>
      <point x="174.2" y="1014.4" type="line"/>
      <point x="155.0" y="971.0999999999999"/>
      <point x="143.0" y="928.5"/>
      <point x="143.0" y="879.8000000000001" type="curve" smooth="yes"/>
      <point x="143.0" y="740.6999999999999"/>
      <point x="249.20000000000002" y="708.6"/>
      <point x="370.09999999999997" y="688.4" type="curve" smooth="yes"/>
      <point x="484.8" y="670.0"/>
      <point x="569.1999999999999" y="657.0"/>
      <point x="569.1999999999999" y="553.4" type="curve" smooth="yes"/>
      <point x="569.1999999999999" y="486.7"/>
      <point x="544.8000000000001" y="440.40000000000003"/>
      <point x="490.90000000000003" y="395.1" type="curve"/>
    </contour>
    <component base="e-beng"/>
  </outline>
</glyph>
<glyph name="o-beng" format="2">
  <advance width="628.5"/>
  <unicode hex="0993"/>
  <anchor x="486.59999999999997" y="6.1" name="bottom"/>
  <anchor x="538.6999999999999" y="0.0" name="bottom.rakaar"/>
  <anchor x="476.2" y="30.4" name="bottom.rvocalic"/>
  <anchor x="422.90000000000003" y="6.0" name="bottom.virama"/>
  <anchor x="418.8" y="527.1" name="top"/>
  <anchor x="421.1" y="527.1" name="topright"/>
  <anchor x="313.9" y="0.0" name="vedic"/>
  <outline>
    <contour>
      <point x="388.1" y="31.0" type="curve" smooth="yes"/>
      <point x="513.4" y="31.0"/>
      <point x="593.0" y="110.9"/>
      <point x="593.0" y="223.79999999999998" type="curve" smooth="yes"/>
      <point x="593.0" y="345.3"/>
      <point x="485.2" y="423.1"/>
      <point x="425.3" y="423.1" type="curve" smooth="yes"/>
      <point x="385.4" y="423.1"/>
      <point x="350.7" y="397.5"/>
      <point x="350.7" y="343.7" type="curve" smooth="yes"/>
      <point x="350.7" y="293.0"/>
      <point x="381.59999999999997" y="259.7"/>
      <point x="430.0" y="259.7" type="curve" smooth="yes"/>
      <point x="505.9" y="259.7"/>
      <point x="568.8" y="365.4"/>
      <point x="568.8" y="468.7" type="curve" smooth="yes"/>
      <point x="568.8" y="562.7"/>
      <point x="507.09999999999997" y="630.0"/>
      <point x="398.4" y="630.0" type="curve" smooth="yes"/>
      <point x="266.70000000000005" y="630.0"/>
      <point x="158.7" y="529.8"/>
      <point x="158.7" y="419.4" type="curve" smooth="yes"/>
      <point x="158.7" y="347.7"/>
      <point x="199.5" y="309.7"/>
      <point x="250.9" y="309.7" type="curve" smooth="yes"/>
      <point x="302.9" y="309.7"/>
      <point x="333.4" y="344.7"/>
      <point x="333.4" y="397.29999999999995" type="curve" smooth="yes"/>
      <point x="333.4" y="437.59999999999997"/>
      <point x="308.5" y="468.2"/>
      <point x="275.2" y="468.2" type="curve" smooth="yes"/>
      <point x="249.60000000000002" y="468.2"/>
      <point x="231.79999999999998" y="455.2"/>
      <point x="225.6" y="440.3" type="curve"/>
      <point x="283.7" y="414.6" type="line"/>
      <point x="291.59999999999997" y="499.9"/>
      <point x="362.2" y="557.0"/>
      <point x="427.6" y="557.0" type="curve" smooth="yes"/>
      <point x="466.09999999999997" y="557.0"/>
      <point x="484.0" y="535.7"/>
      <point x="484.0" y="501.2" type="curve" smooth="yes"/>
      <point x="484.0" y="460.6"/>
      <point x="459.9" y="417.5"/>
      <point x="417.8" y="397.8" type="curve"/>
      <point x="435.7" y="338.09999999999997" type="line"/>
      <point x="473.20000000000005" y="339.4"/>
      <point x="522.2" y="312.7"/>
      <point x="522.2" y="256.4" type="curve" smooth="yes"/>
      <point x="522.2" y="190.39999999999998"/>
      <point x="468.9" y="153.60000000000002"/>
      <point x="386.40000000000003" y="153.60000000000002" type="curve" smooth="yes"/>
      <point x="250.0" y="153.60000000000002"/>
      <point x="142.1" y="238.7"/>
      <point x="70.39999999999999" y="544.9" type="curve"/>
      <point x="15.4" y="531.3" type="line"/>
      <point x="79.39999999999999" y="182.2"/>
      <point x="208.4" y="31.0"/>
    </contour>
  </outline>
</glyph>
<glyph name="au-beng" format="2">
  <advance width="701.2"/>
  <unicode hex="0994"/>
  <anchor x="569.0" y="7.0" name="bottom"/>
  <anchor x="628.0" y="-1.0" name="bottom.rakaar"/>
  <anchor x="552.0" y="33.0" name="bottom.rvocalic"/>
  <anchor x="489.0" y="7.0" name="bottom.virama"/>
  <anchor x="596.0" y="603.0" name="top"/>
  <anchor x="535.0" y="599.0" name="topright"/>
  <anchor x="350.6" y="0.0" name="vedic"/>
  <outline>
    <contour>
      <point x="534.8" y="309.8" type="line"/>
      <point x="598.8000000000001" y="373.4"/>
      <point x="649.8" y="449.8"/>
      <point x="649.8" y="566.4" type="curve" smooth="yes"/>
      <point x="649.8" y="738.2"/>
      <point x="522.7" y="768.3000000000001"/>
      <point x="405.90000000000003" y="789.4" type="curve" smooth="yes"/>
      <point x="312.2" y="806.5"/>
      <point x="229.8" y="821.6"/>
      <point x="229.8" y="910.1" type="curve" smooth="yes"/>
      <point x="229.8" y="939.5"/>
      <point x="236.79999999999998" y="971.2"/>
      <point x="247.70000000000002" y="996.8" type="curve"/>
      <point x="195.6" y="1014.4" type="line"/>
      <point x="177.10000000000002" y="971.0999999999999"/>
      <point x="165.1" y="928.5"/>
      <point x="165.1" y="879.8000000000001" type="curve" smooth="yes"/>
      <point x="165.1" y="740.6999999999999"/>
      <point x="271.3" y="708.6"/>
      <point x="392.20000000000005" y="688.4" type="curve" smooth="yes"/>
      <point x="500.0" y="670.6"/>
      <point x="591.3" y="659.1"/>
      <point x="591.3" y="552.8" type="curve" smooth="yes"/>
      <point x="591.3" y="484.59999999999997"/>
      <point x="566.6" y="439.5"/>
      <point x="513.0" y="393.90000000000003" type="curve"/>
    </contour>
    <component base="o-beng"/>
  </outline>
</glyph>
<glyph name="ka-beng" format="2">
  <advance width="649.1999999999999"/>
  <unicode hex="0995"/>
  <anchor x="406.2" y="34.0" name="bottom"/>
  <anchor x="409.29999999999995" y="61.8" name="bottom.rakaar"/>
  <anchor x="411.40000000000003" y="10.299999999999999" name="bottom.rvocalic"/>
  <anchor x="397.5" y="-3.0" name="bottom.virama"/>
  <anchor x="186.0" y="44.8" name="nukta"/>
  <anchor x="385.5" y="583.0" name="top"/>
  <anchor x="386.79999999999995" y="571.0" name="topright"/>
  <anchor x="324.09999999999997" y="0.0" name="vedic"/>
  <outline>
    <contour>
      <point x="402.4" y="-24.0" type="line"/>
      <point x="411.40000000000003" y="-22.0" type="line"/>
      <point x="411.40000000000003" y="411.4" type="line"/>
      <point x="395.1" y="385.7" type="line"/>
      <point x="400.40000000000003" y="387.7"/>
      <point x="406.7" y="388.7"/>
      <point x="412.0" y="388.7" type="curve" smooth="yes"/>
      <point x="505.29999999999995" y="388.7"/>
      <point x="574.0999999999999" y="334.0"/>
      <point x="574.0999999999999" y="267.4" type="curve" smooth="yes"/>
      <point x="574.0999999999999" y="251.7"/>
      <point x="571.8" y="241.7"/>
      <point x="563.5" y="228.7" type="curve"/>
      <point x="583.6" y="226.2" type="line"/>
      <point x="579.6999999999999" y="271.2"/>
      <point x="554.8000000000001" y="293.5"/>
      <point x="513.9" y="293.5" type="curve" smooth="yes"/>
      <point x="471.8" y="293.5"/>
      <point x="441.9" y="262.2"/>
      <point x="441.9" y="214.5" type="curve" smooth="yes"/>
      <point x="441.9" y="166.2"/>
      <point x="469.8" y="126.5"/>
      <point x="522.5" y="126.5" type="curve" smooth="yes"/>
      <point x="587.6" y="126.5"/>
      <point x="628.1" y="181.89999999999998"/>
      <point x="628.1" y="272.5" type="curve" smooth="yes"/>
      <point x="628.1" y="401.5"/>
      <point x="538.7" y="501.90000000000003"/>
      <point x="397.8" y="514.6" type="curve"/>
      <point x="411.40000000000003" y="491.0" type="line"/>
      <point x="411.40000000000003" y="550.0" type="line"/>
      <point x="680.7" y="550.0" type="line"/>
      <point x="641.8" y="622.0" type="line"/>
      <point x="-32.2" y="622.0" type="line"/>
      <point x="7.0" y="550.0" type="line"/>
      <point x="324.2" y="550.0" type="line"/>
      <point x="324.2" y="469.0" type="line"/>
      <point x="334.2" y="517.3000000000001" type="line"/>
      <point x="217.8" y="477.5"/>
      <point x="99.8" y="417.0"/>
      <point x="7.1" y="348.2" type="curve"/>
      <point x="69.8" y="202.6" type="line"/>
      <point x="182.9" y="181.0"/>
      <point x="277.5" y="123.1"/>
      <point x="340.4" y="15.500000000000002" type="curve"/>
    </contour>
    <contour>
      <point x="324.2" y="90.80000000000001" type="line"/>
      <point x="340.29999999999995" y="96.4" type="line"/>
      <point x="299.2" y="205.8"/>
      <point x="214.6" y="268.0"/>
      <point x="137.1" y="294.2" type="curve"/>
      <point x="142.3" y="274.0" type="line"/>
      <point x="199.3" y="320.70000000000005"/>
      <point x="278.3" y="358.09999999999997"/>
      <point x="339.79999999999995" y="382.1" type="curve"/>
      <point x="324.2" y="422.0" type="line"/>
    </contour>
  </outline>
</glyph>
<glyph name="kha-beng" format="2">
  <advance width="561.1999999999999"/>
  <unicode hex="0996"/>
  <anchor x="493.2" y="34.0" name="bottom"/>
  <anchor x="498.7" y="87.0" name="bottom.rakaar"/>
  <anchor x="498.7" y="9.6" name="bottom.rvocalic"/>
  <anchor x="480.09999999999997" y="6.300000000000001" name="bottom.virama"/>
  <anchor x="466.6" y="573.0" name="top"/>
  <anchor x="453.2" y="564.0" name="topright"/>
  <anchor x="264.79999999999995" y="0.0" name="vedic"/>
  <outline>
    <contour>
      <point x="490.4" y="-24.0" type="line"/>
      <point x="498.7" y="-22.0" type="line"/>
      <point x="498.7" y="550.0" type="line"/>
      <point x="593.4" y="550.0" type="line"/>
      <point x="553.9" y="622.0" type="line"/>
      <point x="491.0" y="622.0" type="line"/>
      <point x="483.0" y="677.0" type="line"/>
      <point x="419.20000000000005" y="713.0" type="line"/>
      <point x="412.20000000000005" y="710.0" type="line"/>
      <point x="412.20000000000005" y="90.7" type="line"/>
      <point x="427.59999999999997" y="97.2" type="line"/>
      <point x="387.0" y="199.7"/>
      <point x="312.0" y="258.5"/>
      <point x="236.8" y="287.4" type="curve"/>
      <point x="245.4" y="259.2" type="line"/>
      <point x="332.5" y="282.2"/>
      <point x="374.7" y="337.90000000000003"/>
      <point x="374.7" y="429.5" type="curve" smooth="yes"/>
      <point x="374.7" y="532.3"/>
      <point x="310.0" y="595.0"/>
      <point x="257.40000000000003" y="631.3000000000001" type="curve"/>
      <point x="220.1" y="558.1"/>
      <point x="174.60000000000002" y="504.2"/>
      <point x="119.4" y="504.2" type="curve" smooth="yes"/>
      <point x="109.5" y="504.2"/>
      <point x="95.8" y="505.5"/>
      <point x="89.5" y="509.5" type="curve"/>
      <point x="132.0" y="474.0" type="line"/>
      <point x="149.9" y="491.0"/>
      <point x="156.20000000000002" y="507.0"/>
      <point x="156.20000000000002" y="535.0" type="curve" smooth="yes"/>
      <point x="156.20000000000002" y="571.0"/>
      <point x="134.0" y="603.0"/>
      <point x="86.8" y="603.0" type="curve" smooth="yes"/>
      <point x="39.9" y="603.0"/>
      <point x="10.3" y="571.0"/>
      <point x="10.3" y="521.6999999999999" type="curve" smooth="yes"/>
      <point x="10.3" y="446.9"/>
      <point x="62.1" y="408.2"/>
      <point x="123.5" y="408.2" type="curve" smooth="yes"/>
      <point x="185.6" y="408.2"/>
      <point x="253.0" y="443.3"/>
      <point x="298.3" y="531.3" type="curve"/>
      <point x="258.2" y="533.0" type="line"/>
      <point x="277.0" y="514.8000000000001"/>
      <point x="292.3" y="491.5"/>
      <point x="292.3" y="457.7" type="curve" smooth="yes"/>
      <point x="292.3" y="379.0"/>
      <point x="213.60000000000002" y="347.2"/>
      <point x="98.8" y="345.8" type="curve"/>
      <point x="146.0" y="205.8" type="line"/>
      <point x="266.5" y="189.3"/>
      <point x="365.3" y="124.6"/>
      <point x="427.7" y="17.3" type="curve"/>
    </contour>
  </outline>
</glyph>
<glyph name="ga-beng" format="2">
  <advance width="561.3000000000001"/>
  <unicode hex="0997"/>
  <anchor x="485.7" y="66.8" name="bottom"/>
  <anchor x="499.5" y="-15.0" name="bottom.rakaar"/>
  <anchor x="499.5" y="-3.0" name="bottom.rvocalic"/>
  <anchor x="463.29999999999995" y="8.0" name="bottom.virama"/>
  <anchor x="468.8" y="573.0" name="top"/>
  <anchor x="455.4" y="564.0" name="topright"/>
  <anchor x="280.3" y="0.0" name="vedic"/>
  <outline>
    <contour>
      <point x="491.5" y="-35.0" type="line"/>
      <point x="499.5" y="-33.0" type="line"/>
      <point x="499.5" y="550.0" type="line"/>
      <point x="593.5" y="550.0" type="line"/>
      <point x="554.0" y="622.0" type="line"/>
      <point x="491.1" y="622.0" type="line"/>
      <point x="483.4" y="677.0" type="line"/>
      <point x="421.0" y="713.0" type="line"/>
      <point x="414.0" y="710.0" type="line"/>
      <point x="414.0" y="589.5" type="line" smooth="yes"/>
      <point x="414.0" y="530.0"/>
      <point x="417.7" y="472.7"/>
      <point x="422.3" y="428.2" type="curve"/>
      <point x="433.6" y="425.0" type="line"/>
      <point x="382.6" y="570.3"/>
      <point x="304.29999999999995" y="634.0"/>
      <point x="215.20000000000002" y="634.0" type="curve" smooth="yes"/>
      <point x="128.7" y="634.0"/>
      <point x="47.0" y="569.5"/>
      <point x="-3.1999999999999993" y="433.7" type="curve"/>
      <point x="99.2" y="351.2" type="line"/>
      <point x="124.2" y="381.2"/>
      <point x="160.9" y="404.5"/>
      <point x="194.9" y="404.5" type="curve" smooth="yes"/>
      <point x="226.1" y="404.5"/>
      <point x="242.3" y="387.5"/>
      <point x="242.3" y="359.29999999999995" type="curve" smooth="yes"/>
      <point x="242.3" y="315.2"/>
      <point x="195.5" y="280.9"/>
      <point x="110.30000000000001" y="250.8" type="curve"/>
      <point x="180.7" y="132.1" type="line"/>
      <point x="300.0" y="189.7"/>
      <point x="338.0" y="263.29999999999995"/>
      <point x="338.0" y="342.6" type="curve" smooth="yes"/>
      <point x="338.0" y="416.90000000000003"/>
      <point x="293.8" y="474.2"/>
      <point x="218.89999999999998" y="474.2" type="curve" smooth="yes"/>
      <point x="176.60000000000002" y="474.2"/>
      <point x="144.1" y="459.6"/>
      <point x="120.89999999999999" y="439.4" type="curve"/>
      <point x="137.1" y="422.40000000000003" type="line"/>
      <point x="153.1" y="484.7"/>
      <point x="197.70000000000002" y="532.8"/>
      <point x="249.6" y="532.8" type="curve" smooth="yes"/>
      <point x="307.5" y="532.8"/>
      <point x="367.5" y="481.09999999999997"/>
      <point x="423.1" y="326.59999999999997" type="curve"/>
      <point x="412.6" y="402.8" type="line"/>
      <point x="412.6" y="1.0" type="line"/>
    </contour>
  </outline>
</glyph>
<glyph name="gha-beng" format="2">
  <advance width="489.5"/>
  <unicode hex="0998"/>
  <anchor x="422.1" y="34.0" name="bottom"/>
  <anchor x="425.2" y="87.0" name="bottom.rakaar"/>
  <anchor x="427.3" y="8.2" name="bottom.rvocalic"/>
  <anchor x="410.1" y="6.300000000000001" name="bottom.virama"/>
  <anchor x="401.40000000000003" y="583.0" name="top"/>
  <anchor x="402.7" y="571.0" name="topright"/>
  <anchor x="244.4" y="0.0" name="vedic"/>
  <outline>
    <contour>
      <point x="418.29999999999995" y="-24.0" type="line"/>
      <point x="427.3" y="-22.0" type="line"/>
      <point x="427.3" y="550.0" type="line"/>
      <point x="521.0" y="550.0" type="line"/>
      <point x="481.79999999999995" y="622.0" type="line"/>
      <point x="-32.2" y="622.0" type="line"/>
      <point x="7.0" y="550.0" type="line"/>
      <point x="340.09999999999997" y="550.0" type="line"/>
      <point x="340.09999999999997" y="89.30000000000001" type="line"/>
      <point x="356.9" y="93.7" type="line"/>
      <point x="312.7" y="207.60000000000002"/>
      <point x="227.60000000000002" y="267.7"/>
      <point x="140.7" y="294.40000000000003" type="curve"/>
      <point x="148.0" y="266.0" type="line"/>
      <point x="194.29999999999998" y="301.79999999999995"/>
      <point x="257.09999999999997" y="335.29999999999995"/>
      <point x="317.90000000000003" y="365.09999999999997" type="curve"/>
      <point x="266.7" y="467.0" type="line"/>
      <point x="246.0" y="450.4"/>
      <point x="227.1" y="441.8"/>
      <point x="202.4" y="441.8" type="curve" smooth="yes"/>
      <point x="170.7" y="441.8"/>
      <point x="149.1" y="461.4"/>
      <point x="149.1" y="492.7" type="curve" smooth="yes"/>
      <point x="149.1" y="528.3"/>
      <point x="172.0" y="550.0"/>
      <point x="211.9" y="561.0" type="curve"/>
      <point x="95.1" y="601.7" type="line"/>
      <point x="56.3" y="588.1"/>
      <point x="20.7" y="556.4"/>
      <point x="20.7" y="502.7" type="curve" smooth="yes"/>
      <point x="20.7" y="427.5"/>
      <point x="86.4" y="396.7"/>
      <point x="146.4" y="392.1" type="curve"/>
      <point x="151.29999999999998" y="410.5" type="line"/>
      <point x="109.8" y="390.5"/>
      <point x="65.8" y="366.7"/>
      <point x="26.1" y="339.1" type="curve"/>
      <point x="86.89999999999999" y="201.6" type="line"/>
      <point x="197.4" y="181.8"/>
      <point x="295.59999999999997" y="122.2"/>
      <point x="356.29999999999995" y="15.200000000000001" type="curve"/>
    </contour>
  </outline>
</glyph>
<glyph name="nga-beng" format="2">
  <advance width="539.4"/>
  <unicode hex="0999"/>
  <anchor x="375.1" y="3.7" name="bottom"/>
  <anchor x="484.2" y="-8.7" name="bottom.rakaar"/>
  <anchor x="395.0" y="-15.6" name="bottom.rvocalic"/>
  <anchor x="362.40000000000003" y="0.0" name="bottom.virama"/>
  <anchor x="327.6" y="582.3" name="top"/>
  <anchor x="322.5" y="571.0" name="topright"/>
  <anchor x="269.2" y="0.0" name="vedic"/>
  <outline>
    <contour>
      <point x="324.9" y="4.7" type="curve" smooth="yes"/>
      <point x="463.09999999999997" y="4.7"/>
      <point x="524.7" y="108.7"/>
      <point x="524.7" y="249.10000000000002" type="curve" smooth="yes"/>
      <point x="524.7" y="336.8"/>
      <point x="485.1" y="407.5"/>
      <point x="448.7" y="450.5" type="curve"/>
      <point x="403.9" y="370.0"/>
      <point x="341.3" y="320.8"/>
      <point x="298.79999999999995" y="320.8" type="curve" smooth="yes"/>
      <point x="282.20000000000005" y="320.8"/>
      <point x="270.9" y="330.79999999999995"/>
      <point x="270.9" y="351.79999999999995" type="curve" smooth="yes"/>
      <point x="270.9" y="465.29999999999995" type="line" smooth="yes"/>
      <point x="270.9" y="526.5"/>
      <point x="286.7" y="563.7"/>
      <point x="320.7" y="563.7" type="curve" smooth="yes"/>
      <point x="343.0" y="563.7"/>
      <point x="356.20000000000005" y="548.8"/>
      <point x="356.20000000000005" y="523.7" type="curve" smooth="yes"/>
      <point x="356.20000000000005" y="496.4"/>
      <point x="339.5" y="470.7"/>
      <point x="296.8" y="470.7" type="curve" smooth="yes"/>
      <point x="214.3" y="470.7"/>
      <point x="180.0" y="519.3"/>
      <point x="136.6" y="624.3" type="curve"/>
      <point x="88.7" y="604.0" type="line"/>
      <point x="135.4" y="485.0"/>
      <point x="187.9" y="397.7"/>
      <point x="300.5" y="397.7" type="curve" smooth="yes"/>
      <point x="386.09999999999997" y="397.7"/>
      <point x="427.7" y="456.2"/>
      <point x="427.7" y="517.0" type="curve" smooth="yes"/>
      <point x="427.70000000000005" y="583.0"/>
      <point x="392.3" y="634.0"/>
      <point x="316.4" y="634.0" type="curve" smooth="yes"/>
      <point x="237.9" y="634.0"/>
      <point x="188.1" y="571.0"/>
      <point x="188.1" y="472.0" type="curve" smooth="yes"/>
      <point x="188.1" y="337.79999999999995" type="line" smooth="yes"/>
      <point x="188.1" y="292.5"/>
      <point x="207.10000000000002" y="261.5"/>
      <point x="226.6" y="242.6" type="curve" smooth="yes"/>
      <point x="250.2" y="218.9"/>
      <point x="279.8" y="209.3"/>
      <point x="312.90000000000003" y="209.3" type="curve" smooth="yes"/>
      <point x="374.6" y="209.3"/>
      <point x="449.5" y="261.90000000000003"/>
      <point x="478.6" y="323.59999999999997" type="curve"/>
      <point x="433.8" y="342.5" type="line"/>
      <point x="449.3" y="317.2"/>
      <point x="461.2" y="286.20000000000005"/>
      <point x="461.2" y="253.9" type="curve" smooth="yes"/>
      <point x="461.2" y="176.10000000000002"/>
      <point x="409.40000000000003" y="127.5"/>
      <point x="318.59999999999997" y="127.5" type="curve" smooth="yes"/>
      <point x="184.4" y="127.5"/>
      <point x="120.89999999999999" y="229.5"/>
      <point x="64.1" y="494.0" type="curve"/>
      <point x="10.2" y="480.4" type="line"/>
      <point x="63.0" y="160.6"/>
      <point x="150.9" y="4.7"/>
    </contour>
  </outline>
</glyph>
<glyph name="ca-beng" format="2">
  <advance width="456.3"/>
  <unicode hex="099A"/>
  <anchor x="313.7" y="7.0" name="bottom"/>
  <anchor x="383.2" y="0.0" name="bottom.rakaar"/>
  <anchor x="327.0" y="-0.3000000000000007" name="bottom.rvocalic"/>
  <anchor x="252.7" y="27.0" name="bottom.virama"/>
  <anchor x="124.50000000000001" y="583.0" name="top"/>
  <anchor x="125.80000000000001" y="571.0" name="topright"/>
  <anchor x="227.79999999999998" y="0.0" name="vedic"/>
  <outline>
    <contour>
      <point x="205.5" y="6.0" type="curve" smooth="yes"/>
      <point x="351.1" y="6.0"/>
      <point x="427.9" y="195.0"/>
      <point x="427.9" y="305.0" type="curve" smooth="yes"/>
      <point x="427.9" y="362.3"/>
      <point x="380.0" y="401.0"/>
      <point x="352.3" y="415.0" type="curve"/>
      <point x="278.5" y="420.0"/>
      <point x="194.0" y="454.40000000000003"/>
      <point x="144.1" y="554.0" type="curve"/>
      <point x="142.4" y="472.6" type="line"/>
      <point x="174.0" y="380.0"/>
      <point x="246.0" y="311.40000000000003"/>
      <point x="351.8" y="303.09999999999997" type="curve"/>
      <point x="310.3" y="345.7" type="line"/>
      <point x="302.3" y="200.0"/>
      <point x="238.0" y="103.9"/>
      <point x="187.79999999999998" y="103.9" type="curve" smooth="yes"/>
      <point x="164.5" y="103.9"/>
      <point x="149.4" y="117.8"/>
      <point x="149.4" y="146.4" type="curve" smooth="yes"/>
      <point x="149.4" y="550.0" type="line"/>
      <point x="488.5" y="550.0" type="line"/>
      <point x="450.3" y="622.0" type="line"/>
      <point x="-32.2" y="622.0" type="line"/>
      <point x="9.0" y="550.0" type="line"/>
      <point x="62.50000000000001" y="550.0" type="line"/>
      <point x="62.50000000000001" y="142.2" type="line" smooth="yes"/>
      <point x="62.50000000000001" y="59.900000000000006"/>
      <point x="131.5" y="6.0"/>
    </contour>
  </outline>
</glyph>
<glyph name="cha-beng" format="2">
  <advance width="498.9"/>
  <unicode hex="099B"/>
  <anchor x="303.90000000000003" y="10.299999999999999" name="bottom"/>
  <anchor x="417.7" y="-130.1" name="bottom.rakaar"/>
  <anchor x="379.3" y="0.8999999999999995" name="bottom.rvocalic"/>
  <anchor x="297.70000000000005" y="7.8999999999999995" name="bottom.virama"/>
  <anchor x="104.89999999999999" y="583.0" name="top"/>
  <anchor x="106.2" y="571.0" name="topright"/>
  <anchor x="249.3" y="0.0" name="vedic"/>
  <outline>
    <contour>
      <point x="477.90000000000003" y="-139.2" type="curve"/>
      <point x="513.8000000000001" y="-98.2" type="line"/>
      <point x="428.6" y="-2.1000000000000005"/>
      <point x="315.3" y="91.0"/>
      <point x="208.4" y="117.7" type="curve"/>
      <point x="178.50000000000003" y="83.60000000000001" type="line"/>
      <point x="191.7" y="75.39999999999999"/>
      <point x="218.2" y="72.1"/>
      <point x="243.89999999999998" y="72.1" type="curve" smooth="yes"/>
      <point x="377.1" y="72.1"/>
      <point x="470.70000000000005" y="151.1"/>
      <point x="470.70000000000005" y="287.59999999999997" type="curve" smooth="yes"/>
      <point x="470.70000000000005" y="418.7"/>
      <point x="376.7" y="489.29999999999995"/>
      <point x="268.2" y="489.29999999999995" type="curve" smooth="yes"/>
      <point x="207.0" y="489.29999999999995"/>
      <point x="150.1" y="506.0"/>
      <point x="123.8" y="551.0" type="curve"/>
      <point x="119.8" y="503.0" type="line"/>
      <point x="146.6" y="443.0"/>
      <point x="200.20000000000002" y="413.09999999999997"/>
      <point x="244.5" y="406.8" type="curve"/>
      <point x="219.5" y="450.0" type="line"/>
      <point x="215.39999999999998" y="366.0"/>
      <point x="188.3" y="304.29999999999995"/>
      <point x="155.1" y="304.29999999999995" type="curve" smooth="yes"/>
      <point x="139.3" y="304.29999999999995"/>
      <point x="129.1" y="315.2"/>
      <point x="129.1" y="333.2" type="curve" smooth="yes"/>
      <point x="129.1" y="550.0" type="line"/>
      <point x="531.1" y="550.0" type="line"/>
      <point x="490.20000000000005" y="622.0" type="line"/>
      <point x="-32.2" y="622.0" type="line"/>
      <point x="7.0" y="550.0" type="line"/>
      <point x="44.3" y="550.0" type="line"/>
      <point x="44.3" y="333.09999999999997" type="line" smooth="yes"/>
      <point x="44.3" y="272.8"/>
      <point x="103.30000000000001" y="218.0"/>
      <point x="175.20000000000002" y="218.0" type="curve" smooth="yes"/>
      <point x="260.0" y="218.0"/>
      <point x="318.8" y="283.7"/>
      <point x="333.59999999999997" y="444.0" type="curve"/>
      <point x="292.3" y="417.6" type="line"/>
      <point x="336.9" y="417.6"/>
      <point x="380.7" y="390.2"/>
      <point x="380.7" y="312.2" type="curve" smooth="yes"/>
      <point x="380.7" y="216.70000000000002"/>
      <point x="307.79999999999995" y="174.4"/>
      <point x="210.6" y="174.4" type="curve" smooth="yes"/>
      <point x="157.0" y="174.4"/>
      <point x="109.2" y="185.2"/>
      <point x="69.7" y="209.5" type="curve"/>
      <point x="100.3" y="61.5" type="line"/>
      <point x="219.9" y="35.4"/>
      <point x="335.1" y="-9.5"/>
    </contour>
  </outline>
</glyph>
<glyph name="ja-beng" format="2">
  <advance width="727.3000000000001"/>
  <unicode hex="099C"/>
  <anchor x="648.0" y="57.099999999999994" name="bottom"/>
  <anchor x="659.6" y="56.5" name="bottom.rakaar"/>
  <anchor x="660.0" y="-29.0" name="bottom.rvocalic"/>
  <anchor x="645.1" y="-27.8" name="bottom.virama"/>
  <anchor x="395.2" y="582.3" name="top"/>
  <anchor x="396.2" y="571.0" name="topright"/>
  <anchor x="363.29999999999995" y="0.0" name="vedic"/>
  <outline>
    <contour>
      <point x="317.5" y="-8.2" type="curve" smooth="yes"/>
      <point x="448.1" y="-8.2"/>
      <point x="503.0" y="85.4"/>
      <point x="503.0" y="211.9" type="curve" smooth="yes"/>
      <point x="503.0" y="304.70000000000005"/>
      <point x="460.6" y="376.0"/>
      <point x="420.0" y="418.6" type="curve"/>
      <point x="376.8" y="356.7"/>
      <point x="337.40000000000003" y="322.40000000000003"/>
      <point x="303.4" y="322.40000000000003" type="curve" smooth="yes"/>
      <point x="276.7" y="322.40000000000003"/>
      <point x="257.2" y="340.40000000000003"/>
      <point x="257.2" y="373.1" type="curve" smooth="yes"/>
      <point x="257.2" y="432.8"/>
      <point x="343.90000000000003" y="504.5"/>
      <point x="440.1" y="550.0" type="curve"/>
      <point x="759.5" y="550.0" type="line"/>
      <point x="720.6" y="622.0" type="line"/>
      <point x="-32.2" y="622.0" type="line"/>
      <point x="7.0" y="550.0" type="line"/>
      <point x="312.6" y="550.0" type="line"/>
      <point x="286.7" y="581.0" type="line"/>
      <point x="241.29999999999998" y="551.5"/>
      <point x="165.0" y="476.7"/>
      <point x="165.0" y="383.7" type="curve" smooth="yes"/>
      <point x="165.0" y="281.0"/>
      <point x="236.10000000000002" y="208.8"/>
      <point x="313.29999999999995" y="208.8" type="curve" smooth="yes"/>
      <point x="369.6" y="208.8"/>
      <point x="424.9" y="247.8"/>
      <point x="465.6" y="311.4" type="curve"/>
      <point x="415.59999999999997" y="316.8" type="line"/>
      <point x="431.5" y="293.5"/>
      <point x="443.40000000000003" y="265.09999999999997"/>
      <point x="443.40000000000003" y="230.2" type="curve" smooth="yes"/>
      <point x="443.40000000000003" y="162.3"/>
      <point x="395.5" y="117.5"/>
      <point x="316.7" y="117.5" type="curve" smooth="yes"/>
      <point x="188.1" y="117.5"/>
      <point x="110.8" y="229.1"/>
      <point x="69.7" y="481.2" type="curve"/>
      <point x="13.6" y="470.0" type="line"/>
      <point x="56.199999999999996" y="140.6"/>
      <point x="151.1" y="-8.2"/>
    </contour>
    <contour>
      <point x="610.0999999999999" y="-60.4" type="curve"/>
      <point x="660.0" y="-41.8" type="line"/>
      <point x="637.8" y="30.5"/>
      <point x="631.8" y="82.9"/>
      <point x="631.8" y="146.2" type="curve" smooth="yes"/>
      <point x="631.8" y="232.79999999999998"/>
      <point x="658.0" y="316.5"/>
      <point x="706.4" y="380.0" type="curve"/>
      <point x="643.5" y="469.0" type="line"/>
      <point x="534.3000000000001" y="459.7"/>
      <point x="467.29999999999995" y="499.3"/>
      <point x="435.4" y="587.6" type="curve"/>
      <point x="389.40000000000003" y="549.0" type="line"/>
      <point x="426.79999999999995" y="419.7"/>
      <point x="525.4" y="365.79999999999995"/>
      <point x="611.7" y="351.29999999999995" type="curve"/>
      <point x="591.1" y="400.8" type="line"/>
      <point x="563.5" y="332.5"/>
      <point x="551.9" y="267.0"/>
      <point x="551.9" y="190.1" type="curve" smooth="yes"/>
      <point x="551.9" y="91.69999999999999"/>
      <point x="578.0" y="11.6"/>
    </contour>
  </outline>
</glyph>
<glyph name="jha-beng" format="2">
  <advance width="621.9"/>
  <unicode hex="099D"/>
  <anchor x="404.1" y="34.0" name="bottom"/>
  <anchor x="407.2" y="86.7" name="bottom.rakaar"/>
  <anchor x="409.3" y="7.9" name="bottom.rvocalic"/>
  <anchor x="393.3" y="18.2" name="bottom.virama"/>
  <anchor x="377.70000000000005" y="583.0" name="top"/>
  <anchor x="430.7" y="583.0" name="topleft"/>
  <anchor x="378.7" y="571.0" name="topright"/>
  <anchor x="310.59999999999997" y="0.0" name="vedic"/>
  <outline>
    <contour>
      <point x="400.29999999999995" y="-24.0" type="line"/>
      <point x="409.3" y="-22.0" type="line"/>
      <point x="409.3" y="622.0" type="line"/>
      <point x="-32.2" y="622.0" type="line"/>
      <point x="7.0" y="550.0" type="line"/>
      <point x="322.09999999999997" y="550.0" type="line"/>
      <point x="322.09999999999997" y="469.3" type="line"/>
      <point x="332.09999999999997" y="517.3000000000001" type="line"/>
      <point x="216.0" y="477.8"/>
      <point x="98.3" y="417.3"/>
      <point x="5.0" y="348.2" type="curve"/>
      <point x="67.69999999999999" y="202.6" type="line"/>
      <point x="180.2" y="181.29999999999998"/>
      <point x="276.70000000000005" y="122.5"/>
      <point x="338.29999999999995" y="15.500000000000002" type="curve"/>
    </contour>
    <contour>
      <point x="322.09999999999997" y="90.80000000000001" type="line"/>
      <point x="338.9" y="96.4" type="line"/>
      <point x="295.9" y="207.6"/>
      <point x="210.2" y="268.59999999999997"/>
      <point x="135.0" y="294.2" type="curve"/>
      <point x="140.2" y="273.7" type="line"/>
      <point x="197.5" y="321.0"/>
      <point x="276.20000000000005" y="358.09999999999997"/>
      <point x="337.7" y="382.1" type="curve"/>
      <point x="322.09999999999997" y="421.40000000000003" type="line"/>
    </contour>
    <contour>
      <point x="551.6999999999999" y="58.4" type="line"/>
      <point x="560.4" y="60.4" type="line"/>
      <point x="560.4" y="550.0" type="line"/>
      <point x="654.1" y="550.0" type="line"/>
      <point x="614.9" y="622.0" type="line"/>
      <point x="552.0" y="622.0" type="line"/>
      <point x="544.0" y="677.0" type="line"/>
      <point x="481.6" y="713.0" type="line"/>
      <point x="474.6" y="710.0" type="line"/>
      <point x="474.6" y="173.9" type="line"/>
      <point x="491.40000000000003" y="177.6" type="line"/>
      <point x="464.6" y="251.4"/>
      <point x="423.7" y="298.70000000000005"/>
      <point x="374.4" y="333.4" type="curve"/>
      <point x="364.7" y="232.89999999999998" type="line"/>
      <point x="416.8" y="201.9"/>
      <point x="457.7" y="159.2"/>
      <point x="490.5" y="97.9" type="curve"/>
    </contour>
  </outline>
</glyph>
<glyph name="nya-beng" format="2">
  <advance width="837.8"/>
  <unicode hex="099E"/>
  <anchor x="526.5" y="29.0" name="bottom"/>
  <anchor x="553.1" y="82.0" name="bottom.rakaar"/>
  <anchor x="531.7" y="2.9000000000000004" name="bottom.rvocalic"/>
  <anchor x="514.5" y="9.0" name="bottom.virama"/>
  <anchor x="430.5" y="582.3" name="top"/>
  <anchor x="431.09999999999997" y="571.0" name="topright"/>
  <anchor x="418.9" y="0.0" name="vedic"/>
  <outline>
    <contour>
      <point x="669.0" y="30.8" type="curve" smooth="yes"/>
      <point x="753.2" y="30.8"/>
      <point x="795.1999999999999" y="100.8"/>
      <point x="795.1999999999999" y="184.8" type="curve" smooth="yes"/>
      <point x="795.1999999999999" y="239.7"/>
      <point x="776.0" y="297.1"/>
      <point x="730.2" y="337.1" type="curve"/>
      <point x="747.1999999999999" y="290.1" type="line"/>
      <point x="773.0" y="319.4"/>
      <point x="793.9000000000001" y="372.4"/>
      <point x="793.9000000000001" y="437.1" type="curve" smooth="yes"/>
      <point x="793.9000000000001" y="527.4"/>
      <point x="749.5" y="599.4"/>
      <point x="676.3" y="599.4" type="curve" smooth="yes"/>
      <point x="570.5999999999999" y="599.4"/>
      <point x="509.5" y="454.1"/>
      <point x="501.90000000000003" y="370.1" type="curve"/>
      <point x="501.90000000000003" y="264.1" type="line"/>
      <point x="517.8" y="140.10000000000002"/>
      <point x="578.1999999999999" y="30.8"/>
    </contour>
    <contour>
      <point x="661.3" y="141.10000000000002" type="curve" smooth="yes"/>
      <point x="597.6" y="141.10000000000002"/>
      <point x="537.8" y="216.8"/>
      <point x="537.8" y="311.40000000000003" type="curve" smooth="yes"/>
      <point x="537.8" y="397.40000000000003"/>
      <point x="592.7" y="498.8"/>
      <point x="669.3" y="498.8" type="curve" smooth="yes"/>
      <point x="697.5" y="498.8"/>
      <point x="717.6" y="481.40000000000003"/>
      <point x="717.6" y="447.1" type="curve" smooth="yes"/>
      <point x="717.6" y="409.8"/>
      <point x="688.8" y="376.1"/>
      <point x="656.8000000000001" y="360.1" type="curve"/>
      <point x="709.1999999999999" y="351.1" type="line"/>
      <point x="692.0" y="375.1"/>
      <point x="671.9" y="391.1"/>
      <point x="641.0" y="391.1" type="curve" smooth="yes"/>
      <point x="600.9" y="391.1"/>
      <point x="574.4000000000001" y="359.40000000000003"/>
      <point x="574.4000000000001" y="313.1" type="curve" smooth="yes"/>
      <point x="574.4000000000001" y="263.1"/>
      <point x="604.9" y="233.8"/>
      <point x="646.0" y="233.8" type="curve" smooth="yes"/>
      <point x="682.0999999999999" y="233.8"/>
      <point x="709.3000000000001" y="250.8"/>
      <point x="732.5" y="280.1" type="curve"/>
      <point x="689.3000000000001" y="304.1" type="line"/>
      <point x="706.1" y="286.1"/>
      <point x="729.3" y="259.40000000000003"/>
      <point x="729.3" y="219.10000000000002" type="curve" smooth="yes"/>
      <point x="729.3" y="169.10000000000002"/>
      <point x="703.5" y="141.10000000000002"/>
    </contour>
    <component base="e-beng"/>
  </outline>
</glyph>
<glyph name="tta-beng" format="2">
  <advance width="475.2"/>
  <unicode hex="099F"/>
  <anchor x="317.1" y="7.0" name="bottom"/>
  <anchor x="386.0" y="0.5999999999999996" name="bottom.rakaar"/>
  <anchor x="326.5" y="6.600000000000001" name="bottom.rvocalic"/>
  <anchor x="255.5" y="27.6" name="bottom.virama"/>
  <anchor x="244.0" y="662.7" name="top"/>
  <anchor x="179.9" y="637.4" name="topright"/>
  <anchor x="237.60000000000002" y="0.0" name="vedic"/>
  <anchor x="209.5" y="-100.0" name="nukta"/>
  <outline>
    <contour>
      <point x="352.4" y="598.0" type="curve"/>
      <point x="408.20000000000005" y="598.0" type="line"/>
      <point x="404.2" y="745.3000000000001"/>
      <point x="355.3" y="815.0999999999999"/>
      <point x="264.40000000000003" y="815.0999999999999" type="curve" smooth="yes"/>
      <point x="216.7" y="815.0999999999999"/>
      <point x="184.20000000000002" y="805.4"/>
      <point x="136.79999999999998" y="805.4" type="curve" smooth="yes"/>
      <point x="75.60000000000001" y="805.4"/>
      <point x="47.8" y="828.4"/>
      <point x="47.8" y="886.8" type="curve" smooth="yes"/>
      <point x="47.8" y="899.5"/>
      <point x="48.8" y="914.2"/>
      <point x="50.800000000000004" y="926.5999999999999" type="curve"/>
      <point x="3.3000000000000007" y="932.3" type="line"/>
      <point x="-1.6999999999999993" y="909.1999999999999"/>
      <point x="-3.999999999999999" y="882.2"/>
      <point x="-3.999999999999999" y="858.9" type="curve" smooth="yes"/>
      <point x="-3.999999999999999" y="759.8"/>
      <point x="43.400000000000006" y="695.4"/>
      <point x="144.10000000000002" y="695.4" type="curve" smooth="yes"/>
      <point x="201.2" y="695.4"/>
      <point x="235.4" y="705.6999999999999"/>
      <point x="274.90000000000003" y="705.6999999999999" type="curve" smooth="yes"/>
      <point x="320.59999999999997" y="705.6999999999999"/>
      <point x="349.6" y="682.0"/>
    </contour>
    <component base="ddha-beng"/>
  </outline>
</glyph>
<glyph name="ttha-beng" format="2">
  <advance width="494.4"/>
  <unicode hex="09A0"/>
  <anchor x="302.4" y="-29.0" name="bottom"/>
  <anchor x="443.0" y="-29.0" name="bottom.rakaar"/>
  <anchor x="353.09999999999997" y="-33.0" name="bottom.rvocalic"/>
  <anchor x="290.40000000000003" y="-12.0" name="bottom.virama"/>
  <anchor x="404.8" y="562.9" name="top"/>
  <anchor x="398.2" y="598.0" name="topleft"/>
  <anchor x="304.0" y="571.0" name="topright"/>
  <anchor x="247.2" y="0.0" name="vedic"/>
  <outline>
    <contour>
      <point x="257.5" y="-29.0" type="curve" smooth="yes"/>
      <point x="377.09999999999997" y="-29.0"/>
      <point x="453.0" y="50.4"/>
      <point x="453.0" y="190.0" type="curve" smooth="yes"/>
      <point x="453.0" y="325.3"/>
      <point x="370.4" y="442.8"/>
      <point x="282.40000000000003" y="550.0" type="curve"/>
      <point x="526.6" y="550.0" type="line"/>
      <point x="487.4" y="622.0" type="line"/>
      <point x="224.8" y="622.0" type="line"/>
      <point x="191.7" y="658.0"/>
      <point x="174.9" y="692.4"/>
      <point x="174.9" y="726.4" type="curve" smooth="yes"/>
      <point x="174.9" y="763.7"/>
      <point x="202.1" y="799.0"/>
      <point x="242.7" y="824.0" type="curve"/>
      <point x="156.8" y="898.0" type="line"/>
      <point x="100.9" y="862.0"/>
      <point x="70.7" y="813.0"/>
      <point x="70.7" y="766.0" type="curve" smooth="yes"/>
      <point x="70.7" y="704.3000000000001"/>
      <point x="106.10000000000001" y="665.0"/>
      <point x="147.6" y="622.0" type="curve"/>
      <point x="-32.2" y="622.0" type="line"/>
      <point x="7.0" y="550.0" type="line"/>
      <point x="188.6" y="550.0" type="line"/>
      <point x="197.1" y="523.6"/>
      <point x="202.7" y="495.09999999999997"/>
      <point x="202.7" y="457.0" type="curve" smooth="yes"/>
      <point x="202.7" y="348.0"/>
      <point x="134.4" y="269.0"/>
      <point x="19.6" y="242.3" type="curve"/>
      <point x="30.599999999999998" y="79.9"/>
      <point x="113.80000000000001" y="-29.0"/>
    </contour>
    <contour>
      <point x="234.89999999999998" y="60.9" type="curve" smooth="yes"/>
      <point x="177.5" y="60.9"/>
      <point x="141.0" y="112.0"/>
      <point x="139.6" y="174.6" type="curve"/>
      <point x="127.1" y="142.7" type="line"/>
      <point x="225.7" y="174.7"/>
      <point x="277.7" y="253.5"/>
      <point x="277.7" y="362.7" type="curve" smooth="yes"/>
      <point x="277.7" y="435.90000000000003"/>
      <point x="259.7" y="499.0"/>
      <point x="225.8" y="557.0" type="curve"/>
      <point x="214.2" y="557.0" type="line"/>
      <point x="301.79999999999995" y="445.2"/>
      <point x="339.7" y="340.09999999999997"/>
      <point x="339.7" y="222.4" type="curve" smooth="yes"/>
      <point x="339.7" y="116.4"/>
      <point x="297.2" y="60.9"/>
    </contour>
  </outline>
</glyph>
<glyph name="dda-beng" format="2">
  <advance width="545.6"/>
  <unicode hex="09A1"/>
  <anchor x="395.9" y="-1.0" name="bottom"/>
  <anchor x="483.0" y="-9.0" name="bottom.rakaar"/>
  <anchor x="400.5" y="3.0" name="bottom.rvocalic"/>
  <anchor x="361.2" y="-1.0" name="bottom.virama"/>
  <anchor x="294.0" y="-108.0" name="nukta"/>
  <anchor x="256.1" y="583.0" name="top"/>
  <anchor x="257.1" y="571.0" name="topright"/>
  <anchor x="272.8" y="0.0" name="vedic"/>
  <outline>
    <contour>
      <point x="318.3" y="5.0" type="curve" smooth="yes"/>
      <point x="457.5" y="5.0"/>
      <point x="527.1" y="103.9"/>
      <point x="527.1" y="243.2" type="curve" smooth="yes"/>
      <point x="527.1" y="349.90000000000003"/>
      <point x="486.2" y="425.1"/>
      <point x="434.20000000000005" y="475.0" type="curve"/>
      <point x="390.6" y="397.8"/>
      <point x="343.7" y="353.90000000000003"/>
      <point x="309.4" y="353.90000000000003" type="curve" smooth="yes"/>
      <point x="294.6" y="353.90000000000003"/>
      <point x="281.0" y="361.6"/>
      <point x="281.0" y="383.90000000000003" type="curve" smooth="yes"/>
      <point x="281.0" y="550.0" type="line"/>
      <point x="577.8" y="550.0" type="line"/>
      <point x="536.9" y="622.0" type="line"/>
      <point x="-32.2" y="622.0" type="line"/>
      <point x="8.0" y="550.0" type="line"/>
      <point x="193.79999999999998" y="550.0" type="line"/>
      <point x="193.79999999999998" y="376.0" type="line" smooth="yes"/>
      <point x="193.79999999999998" y="330.7"/>
      <point x="205.6" y="299.3"/>
      <point x="230.20000000000002" y="274.3" type="curve" smooth="yes"/>
      <point x="254.5" y="249.6"/>
      <point x="283.3" y="236.7"/>
      <point x="321.2" y="236.7" type="curve" smooth="yes"/>
      <point x="379.0" y="236.7"/>
      <point x="442.8" y="284.3"/>
      <point x="480.29999999999995" y="357.3" type="curve"/>
      <point x="428.6" y="345.2" type="line"/>
      <point x="447.7" y="325.9"/>
      <point x="460.6" y="297.2"/>
      <point x="460.6" y="261.4" type="curve" smooth="yes"/>
      <point x="460.6" y="182.89999999999998"/>
      <point x="407.20000000000005" y="130.8"/>
      <point x="318.7" y="130.8" type="curve" smooth="yes"/>
      <point x="170.70000000000002" y="130.8"/>
      <point x="105.6" y="252.79999999999998"/>
      <point x="67.2" y="480.6" type="curve"/>
      <point x="10.6" y="470.0" type="line"/>
      <point x="49.7" y="160.0"/>
      <point x="139.10000000000002" y="5.0"/>
    </contour>
  </outline>
</glyph>
<glyph name="ddha-beng" format="2">
  <advance width="475.2"/>
  <unicode hex="09A2"/>
  <anchor x="317.7" y="7.0" name="bottom"/>
  <anchor x="386.0" y="0.5999999999999996" name="bottom.rakaar"/>
  <anchor x="326.5" y="6.300000000000002" name="bottom.rvocalic"/>
  <anchor x="255.5" y="27.6" name="bottom.virama"/>
  <anchor x="209.5" y="-100.0" name="nukta"/>
  <anchor x="127.30000000000001" y="583.0" name="top"/>
  <anchor x="128.6" y="571.0" name="topright"/>
  <anchor x="237.60000000000002" y="0.0" name="vedic"/>
  <outline>
    <contour>
      <point x="206.2" y="6.6" type="curve" smooth="yes"/>
      <point x="342.5" y="6.6"/>
      <point x="442.90000000000003" y="177.0"/>
      <point x="442.90000000000003" y="318.0" type="curve" smooth="yes"/>
      <point x="442.90000000000003" y="417.3"/>
      <point x="389.40000000000003" y="460.0"/>
      <point x="330.7" y="460.0" type="curve" smooth="yes"/>
      <point x="268.3" y="460.0"/>
      <point x="229.4" y="416.09999999999997"/>
      <point x="229.4" y="360.0" type="curve" smooth="yes"/>
      <point x="229.4" y="304.4"/>
      <point x="261.59999999999997" y="264.4"/>
      <point x="317.1" y="264.4" type="curve" smooth="yes"/>
      <point x="337.8" y="264.4"/>
      <point x="358.2" y="277.40000000000003"/>
      <point x="374.5" y="298.4" type="curve"/>
      <point x="325.7" y="332.0" type="line"/>
      <point x="319.3" y="201.1"/>
      <point x="240.4" y="104.5"/>
      <point x="187.20000000000002" y="104.5" type="curve" smooth="yes"/>
      <point x="164.1" y="104.5"/>
      <point x="149.4" y="119.4"/>
      <point x="149.4" y="148.0" type="curve" smooth="yes"/>
      <point x="149.4" y="550.0" type="line"/>
      <point x="507.40000000000003" y="550.0" type="line"/>
      <point x="469.90000000000003" y="622.0" type="line"/>
      <point x="-32.2" y="622.0" type="line"/>
      <point x="9.0" y="550.0" type="line"/>
      <point x="62.50000000000001" y="550.0" type="line"/>
      <point x="62.50000000000001" y="143.8" type="line" smooth="yes"/>
      <point x="62.50000000000001" y="60.199999999999996"/>
      <point x="132.2" y="6.6"/>
    </contour>
  </outline>
</glyph>
<glyph name="nna-beng" format="2">
  <advance width="545.1999999999999"/>
  <unicode hex="09A3"/>
  <anchor x="468.9" y="66.8" name="bottom"/>
  <anchor x="482.7" y="-15.0" name="bottom.rakaar"/>
  <anchor x="482.7" y="-3.0" name="bottom.rvocalic"/>
  <anchor x="446.5" y="8.0" name="bottom.virama"/>
  <anchor x="452.7" y="573.0" name="top"/>
  <anchor x="438.6" y="564.0" name="topright"/>
  <anchor x="272.09999999999997" y="0.0" name="vedic"/>
  <outline>
    <contour>
      <point x="474.7" y="-35.0" type="line"/>
      <point x="482.7" y="-33.0" type="line"/>
      <point x="482.7" y="550.0" type="line"/>
      <point x="577.4" y="550.0" type="line"/>
      <point x="537.2" y="622.0" type="line"/>
      <point x="474.29999999999995" y="622.0" type="line"/>
      <point x="466.59999999999997" y="677.0" type="line"/>
      <point x="404.90000000000003" y="713.0" type="line"/>
      <point x="397.90000000000003" y="710.0" type="line"/>
      <point x="397.90000000000003" y="574.5" type="line" smooth="yes"/>
      <point x="397.90000000000003" y="512.0"/>
      <point x="401.2" y="438.3"/>
      <point x="405.5" y="392.59999999999997" type="curve"/>
      <point x="414.2" y="397.3" type="line"/>
      <point x="360.2" y="549.6"/>
      <point x="288.3" y="629.0"/>
      <point x="191.4" y="629.0" type="curve" smooth="yes"/>
      <point x="102.80000000000001" y="629.0"/>
      <point x="29.800000000000004" y="559.1"/>
      <point x="29.800000000000004" y="436.1" type="curve" smooth="yes"/>
      <point x="29.800000000000004" y="294.5"/>
      <point x="124.10000000000001" y="227.4"/>
      <point x="206.89999999999998" y="227.4" type="curve" smooth="yes"/>
      <point x="275.0" y="227.4"/>
      <point x="312.5" y="268.7"/>
      <point x="312.5" y="330.4" type="curve" smooth="yes"/>
      <point x="312.5" y="386.0"/>
      <point x="278.6" y="429.3"/>
      <point x="223.20000000000002" y="429.3" type="curve" smooth="yes"/>
      <point x="176.7" y="429.3"/>
      <point x="144.20000000000002" y="394.7"/>
      <point x="144.20000000000002" y="344.7" type="curve" smooth="yes"/>
      <point x="144.20000000000002" y="325.0"/>
      <point x="148.9" y="305.7"/>
      <point x="157.6" y="295.4" type="curve"/>
      <point x="200.1" y="332.0" type="line"/>
      <point x="189.5" y="328.3"/>
      <point x="177.20000000000002" y="325.9"/>
      <point x="165.9" y="325.9" type="curve" smooth="yes"/>
      <point x="136.5" y="325.9"/>
      <point x="111.6" y="355.0"/>
      <point x="111.6" y="407.2" type="curve" smooth="yes"/>
      <point x="111.6" y="469.40000000000003"/>
      <point x="150.4" y="510.59999999999997"/>
      <point x="215.3" y="510.59999999999997" type="curve" smooth="yes"/>
      <point x="292.1" y="510.59999999999997"/>
      <point x="350.3" y="456.5"/>
      <point x="406.4" y="296.7" type="curve"/>
      <point x="395.8" y="366.8" type="line"/>
      <point x="395.8" y="1.0" type="line"/>
    </contour>
  </outline>
</glyph>
<glyph name="ta-beng" format="2">
  <advance width="559.4"/>
  <unicode hex="09A4"/>
  <anchor x="420.6" y="9.0" name="bottom"/>
  <anchor x="499.4" y="0.0" name="bottom.rakaar"/>
  <anchor x="429.2" y="12.0" name="bottom.rvocalic"/>
  <anchor x="358.0" y="9.0" name="bottom.virama"/>
  <anchor x="337.2" y="583.0" name="top"/>
  <anchor x="338.2" y="571.0" name="topright"/>
  <anchor x="279.7" y="0.0" name="vedic"/>
  <outline>
    <contour>
      <point x="335.6" y="15.0" type="curve" smooth="yes"/>
      <point x="445.59999999999997" y="15.0"/>
      <point x="540.6" y="84.39999999999999"/>
      <point x="540.6" y="249.1" type="curve" smooth="yes"/>
      <point x="540.6" y="397.0"/>
      <point x="458.0" y="505.0"/>
      <point x="319.3" y="505.0" type="curve" smooth="yes"/>
      <point x="231.0" y="505.0"/>
      <point x="182.10000000000002" y="450.70000000000005"/>
      <point x="182.10000000000002" y="373.0" type="curve" smooth="yes"/>
      <point x="182.10000000000002" y="305.7"/>
      <point x="223.0" y="251.8"/>
      <point x="296.40000000000003" y="251.8" type="curve" smooth="yes"/>
      <point x="362.5" y="251.8"/>
      <point x="397.0" y="298.5"/>
      <point x="397.0" y="356.0" type="curve" smooth="yes"/>
      <point x="397.0" y="397.3"/>
      <point x="375.0" y="431.0"/>
      <point x="360.09999999999997" y="447.0" type="curve"/>
      <point x="323.5" y="374.0" type="line"/>
      <point x="334.09999999999997" y="380.0"/>
      <point x="354.7" y="388.0"/>
      <point x="376.3" y="388.0" type="curve" smooth="yes"/>
      <point x="428.0" y="388.0"/>
      <point x="465.7" y="354.0"/>
      <point x="465.7" y="277.4" type="curve" smooth="yes"/>
      <point x="465.7" y="189.9"/>
      <point x="412.40000000000003" y="142.1"/>
      <point x="330.2" y="142.1" type="curve" smooth="yes"/>
      <point x="205.29999999999998" y="142.1"/>
      <point x="121.1" y="228.6"/>
      <point x="60.5" y="491.6" type="curve"/>
      <point x="5.199999999999999" y="478.0" type="line"/>
      <point x="66.1" y="151.5"/>
      <point x="161.6" y="15.0"/>
    </contour>
    <contour>
      <point x="6.699999999999999" y="550.0" type="line"/>
      <point x="591.5999999999999" y="550.0" type="line"/>
      <point x="551.4" y="622.0" type="line"/>
      <point x="-32.2" y="622.0" type="line"/>
    </contour>
  </outline>
</glyph>
<glyph name="tha-beng" format="2">
  <advance width="520.0999999999999"/>
  <unicode hex="09A5"/>
  <anchor x="452.7" y="34.0" name="bottom"/>
  <anchor x="457.9" y="87.0" name="bottom.rakaar"/>
  <anchor x="457.9" y="9.6" name="bottom.rvocalic"/>
  <anchor x="439.3" y="14.0" name="bottom.virama"/>
  <anchor x="425.5" y="573.0" name="top"/>
  <anchor x="412.4" y="564.0" name="topright"/>
  <anchor x="259.90000000000003" y="0.0" name="vedic"/>
  <outline>
    <contour>
      <point x="449.59999999999997" y="-24.0" type="line"/>
      <point x="457.9" y="-22.0" type="line"/>
      <point x="457.9" y="550.0" type="line"/>
      <point x="552.3" y="550.0" type="line"/>
      <point x="513.1" y="622.0" type="line"/>
      <point x="450.2" y="622.0" type="line"/>
      <point x="442.20000000000005" y="677.0" type="line"/>
      <point x="377.7" y="713.0" type="line"/>
      <point x="371.4" y="710.0" type="line"/>
      <point x="371.4" y="90.7" type="line"/>
      <point x="386.8" y="97.2" type="line"/>
      <point x="344.1" y="206.0"/>
      <point x="254.3" y="262.1"/>
      <point x="175.3" y="290.4" type="curve"/>
      <point x="189.6" y="258.59999999999997" type="line"/>
      <point x="285.2" y="278.3"/>
      <point x="331.5" y="339.5"/>
      <point x="331.5" y="436.9" type="curve" smooth="yes"/>
      <point x="331.5" y="557.4"/>
      <point x="254.1" y="626.4"/>
      <point x="155.6" y="626.4" type="curve" smooth="yes"/>
      <point x="73.69999999999999" y="626.4"/>
      <point x="14.000000000000002" y="571.1"/>
      <point x="14.000000000000002" y="499.70000000000005" type="curve" smooth="yes"/>
      <point x="14.000000000000002" y="435.59999999999997"/>
      <point x="53.6" y="404.0"/>
      <point x="98.9" y="404.0" type="curve" smooth="yes"/>
      <point x="146.70000000000002" y="404.0"/>
      <point x="175.3" y="433.3"/>
      <point x="175.3" y="477.20000000000005" type="curve" smooth="yes"/>
      <point x="175.3" y="510.90000000000003"/>
      <point x="162.7" y="530.8000000000001"/>
      <point x="139.20000000000002" y="540.5999999999999" type="curve"/>
      <point x="141.6" y="505.0" type="line"/>
      <point x="151.0" y="526.0"/>
      <point x="167.6" y="540.1999999999999"/>
      <point x="191.5" y="540.1999999999999" type="curve" smooth="yes"/>
      <point x="226.8" y="540.1999999999999"/>
      <point x="248.6" y="509.2"/>
      <point x="248.6" y="463.40000000000003" type="curve" smooth="yes"/>
      <point x="248.6" y="377.09999999999997"/>
      <point x="164.70000000000002" y="346.9"/>
      <point x="55.0" y="346.4" type="curve"/>
      <point x="102.8" y="204.6" type="line"/>
      <point x="223.6" y="188.1"/>
      <point x="324.5" y="124.89999999999999"/>
      <point x="386.90000000000003" y="17.3" type="curve"/>
    </contour>
  </outline>
</glyph>
<glyph name="da-beng" format="2">
  <advance width="483.09999999999997"/>
  <unicode hex="09A6"/>
  <anchor x="409.1" y="66.7" name="bottom"/>
  <anchor x="421.59999999999997" y="58.0" name="bottom.rakaar"/>
  <anchor x="421.6" y="-27.5" name="bottom.rvocalic"/>
  <anchor x="407.1" y="-26.0" name="bottom.virama"/>
  <anchor x="118.2" y="583.0" name="top"/>
  <anchor x="119.5" y="571.0" name="topright"/>
  <anchor x="241.4" y="0.0" name="vedic"/>
  <outline>
    <contour>
      <point x="371.7" y="-58.9" type="curve"/>
      <point x="421.6" y="-40.0" type="line"/>
      <point x="400.70000000000005" y="32.6"/>
      <point x="393.09999999999997" y="83.5"/>
      <point x="393.09999999999997" y="146.5" type="curve" smooth="yes"/>
      <point x="393.09999999999997" y="234.1"/>
      <point x="416.4" y="323.0"/>
      <point x="456.1" y="398.0" type="curve"/>
      <point x="346.40000000000003" y="492.5" type="line"/>
      <point x="262.9" y="437.8"/>
      <point x="175.70000000000002" y="359.2"/>
      <point x="120.5" y="288.9" type="curve"/>
      <point x="142.70000000000002" y="252.0" type="line"/>
      <point x="142.70000000000002" y="550.0" type="line"/>
      <point x="515.3000000000001" y="550.0" type="line"/>
      <point x="476.40000000000003" y="622.0" type="line"/>
      <point x="-32.2" y="622.0" type="line"/>
      <point x="7.699999999999999" y="550.0" type="line"/>
      <point x="55.5" y="550.0" type="line"/>
      <point x="55.5" y="198.79999999999998" type="line"/>
      <point x="141.4" y="135.20000000000002" type="line"/>
      <point x="218.70000000000002" y="228.8"/>
      <point x="298.40000000000003" y="311.4"/>
      <point x="382.3" y="374.7" type="curve"/>
      <point x="351.3" y="399.0" type="line"/>
      <point x="325.3" y="331.3"/>
      <point x="313.0" y="265.8"/>
      <point x="313.0" y="190.1" type="curve" smooth="yes"/>
      <point x="313.0" y="94.4"/>
      <point x="340.2" y="11.299999999999999"/>
    </contour>
  </outline>
</glyph>
<glyph name="dha-beng" format="2">
  <advance width="483.1"/>
  <unicode hex="09A7"/>
  <anchor x="414.7" y="34.0" name="bottom"/>
  <anchor x="418.5" y="87.0" name="bottom.rakaar"/>
  <anchor x="419.90000000000003" y="8.2" name="bottom.rvocalic"/>
  <anchor x="402.7" y="14.0" name="bottom.virama"/>
  <anchor x="394.3" y="583.0" name="top"/>
  <anchor x="395.29999999999995" y="571.0" name="topright"/>
  <anchor x="241.4" y="0.0" name="vedic"/>
  <outline>
    <contour>
      <point x="410.9" y="-24.0" type="line"/>
      <point x="419.90000000000003" y="-22.0" type="line"/>
      <point x="419.90000000000003" y="550.0" type="line"/>
      <point x="514.6" y="550.0" type="line"/>
      <point x="474.4" y="622.0" type="line"/>
      <point x="332.7" y="622.0" type="line"/>
      <point x="332.7" y="455.0" type="line"/>
      <point x="343.0" y="500.3" type="line"/>
      <point x="227.60000000000002" y="457.59999999999997"/>
      <point x="108.3" y="401.9"/>
      <point x="15.5" y="336.2" type="curve"/>
      <point x="79.8" y="190.9" type="line"/>
      <point x="190.3" y="169.6"/>
      <point x="286.40000000000003" y="120.10000000000001"/>
      <point x="348.9" y="15.200000000000001" type="curve"/>
    </contour>
    <contour>
      <point x="332.7" y="91.4" type="line"/>
      <point x="349.5" y="95.5" type="line"/>
      <point x="310.70000000000005" y="198.9"/>
      <point x="223.20000000000002" y="257.6"/>
      <point x="143.79999999999998" y="283.7" type="curve"/>
      <point x="149.6" y="263.1" type="line"/>
      <point x="206.6" y="306.2"/>
      <point x="285.90000000000003" y="344.59999999999997"/>
      <point x="349.0" y="368.6" type="curve"/>
      <point x="332.7" y="405.90000000000003" type="line"/>
    </contour>
    <contour>
      <point x="188.8" y="397.7" type="curve"/>
      <point x="217.10000000000002" y="432.7" type="line"/>
      <point x="165.10000000000002" y="437.3"/>
      <point x="134.2" y="470.8"/>
      <point x="134.2" y="503.8" type="curve" smooth="yes"/>
      <point x="134.2" y="537.1"/>
      <point x="151.7" y="555.0"/>
      <point x="179.5" y="555.0" type="curve" smooth="yes"/>
      <point x="186.1" y="555.0"/>
      <point x="193.7" y="554.0"/>
      <point x="202.0" y="551.0" type="curve"/>
      <point x="164.1" y="590.0" type="line"/>
      <point x="156.5" y="577.0"/>
      <point x="154.2" y="562.0"/>
      <point x="154.2" y="545.0" type="curve" smooth="yes"/>
      <point x="154.2" y="506.0"/>
      <point x="182.4" y="484.0"/>
      <point x="213.9" y="484.0" type="curve" smooth="yes"/>
      <point x="249.1" y="484.0"/>
      <point x="277.0" y="511.0"/>
      <point x="277.0" y="552.0" type="curve" smooth="yes"/>
      <point x="277.0" y="600.0"/>
      <point x="245.1" y="640.0"/>
      <point x="177.1" y="640.0" type="curve" smooth="yes"/>
      <point x="102.5" y="640.0"/>
      <point x="53.8" y="592.0"/>
      <point x="53.8" y="522.0" type="curve" smooth="yes"/>
      <point x="53.8" y="430.7"/>
      <point x="138.0" y="397.7"/>
    </contour>
  </outline>
</glyph>
<glyph name="na-beng" format="2">
  <advance width="500.9"/>
  <unicode hex="09A8"/>
  <anchor x="419.4" y="76.7" name="bottom"/>
  <anchor x="433.5" y="87.0" name="bottom.rakaar"/>
  <anchor x="430.7" y="5.0" name="bottom.rvocalic"/>
  <anchor x="412.09999999999997" y="14.0" name="bottom.virama"/>
  <anchor x="405.8" y="583.0" name="top"/>
  <anchor x="407.8" y="571.0" name="topright"/>
  <anchor x="250.1" y="0.0" name="vedic"/>
  <outline>
    <contour>
      <point x="422.7" y="-26.0" type="line"/>
      <point x="430.7" y="-24.0" type="line"/>
      <point x="430.7" y="550.0" type="line"/>
      <point x="532.4" y="550.0" type="line"/>
      <point x="493.5" y="622.0" type="line"/>
      <point x="-32.2" y="622.0" type="line"/>
      <point x="7.0" y="550.0" type="line"/>
      <point x="344.5" y="550.0" type="line"/>
      <point x="344.5" y="359.0" type="line" smooth="yes"/>
      <point x="344.5" y="301.59999999999997"/>
      <point x="350.1" y="230.29999999999998"/>
      <point x="355.5" y="183.7" type="curve"/>
      <point x="366.2" y="184.29999999999998" type="line"/>
      <point x="345.6" y="308.90000000000003"/>
      <point x="273.7" y="437.9"/>
      <point x="146.4" y="437.9" type="curve" smooth="yes"/>
      <point x="74.19999999999999" y="437.9"/>
      <point x="20.4" y="390.2"/>
      <point x="20.4" y="308.3" type="curve" smooth="yes"/>
      <point x="20.4" y="235.70000000000002"/>
      <point x="64.6" y="181.70000000000002"/>
      <point x="135.2" y="181.70000000000002" type="curve" smooth="yes"/>
      <point x="202.29999999999998" y="181.70000000000002"/>
      <point x="236.5" y="230.4"/>
      <point x="236.5" y="285.6" type="curve" smooth="yes"/>
      <point x="236.5" y="310.9"/>
      <point x="227.5" y="336.9"/>
      <point x="205.89999999999998" y="352.6" type="curve"/>
      <point x="176.3" y="281.3" type="line"/>
      <point x="185.6" y="288.7"/>
      <point x="202.8" y="294.4"/>
      <point x="220.2" y="294.4" type="curve" smooth="yes"/>
      <point x="301.90000000000003" y="294.4"/>
      <point x="348.8" y="128.3"/>
      <point x="362.5" y="19.3" type="curve"/>
    </contour>
  </outline>
</glyph>
<glyph name="pa-beng" format="2">
  <advance width="596.6999999999999"/>
  <unicode hex="09AA"/>
  <anchor x="520.4000000000001" y="66.8" name="bottom"/>
  <anchor x="534.2" y="-15.0" name="bottom.rakaar"/>
  <anchor x="534.2" y="-3.0" name="bottom.rvocalic"/>
  <anchor x="498.3" y="8.0" name="bottom.virama"/>
  <anchor x="503.5" y="573.0" name="top"/>
  <anchor x="490.40000000000003" y="564.0" name="topright"/>
  <anchor x="298.2" y="0.0" name="vedic"/>
  <outline>
    <contour>
      <point x="526.5" y="-35.0" type="line"/>
      <point x="534.2" y="-33.0" type="line"/>
      <point x="534.2" y="550.0" type="line"/>
      <point x="628.9" y="550.0" type="line"/>
      <point x="588.7" y="622.0" type="line"/>
      <point x="525.8" y="622.0" type="line"/>
      <point x="518.1" y="677.0" type="line"/>
      <point x="455.70000000000005" y="713.0" type="line"/>
      <point x="449.40000000000003" y="710.0" type="line"/>
      <point x="449.40000000000003" y="521.1" type="line" smooth="yes"/>
      <point x="449.40000000000003" y="471.2"/>
      <point x="452.70000000000005" y="428.59999999999997"/>
      <point x="456.7" y="382.0" type="curve"/>
      <point x="462.5" y="394.0" type="line"/>
      <point x="408.8" y="543.7"/>
      <point x="329.0" y="629.3"/>
      <point x="227.7" y="629.3" type="curve" smooth="yes"/>
      <point x="125.5" y="629.3"/>
      <point x="43.8" y="538.4"/>
      <point x="2.3999999999999995" y="414.79999999999995" type="curve"/>
      <point x="95.3" y="336.3" type="line"/>
      <point x="110.0" y="353.6"/>
      <point x="128.9" y="362.59999999999997"/>
      <point x="148.1" y="362.59999999999997" type="curve" smooth="yes"/>
      <point x="172.0" y="362.59999999999997"/>
      <point x="186.9" y="347.5"/>
      <point x="186.9" y="320.6" type="curve" smooth="yes"/>
      <point x="186.9" y="290.29999999999995"/>
      <point x="168.3" y="261.4"/>
      <point x="141.29999999999998" y="237.1" type="curve"/>
      <point x="228.8" y="158.20000000000002" type="line"/>
      <point x="423.90000000000003" y="402.8" type="line"/>
      <point x="353.40000000000003" y="493.9" type="line"/>
      <point x="213.0" y="307.9" type="line"/>
      <point x="223.70000000000002" y="293.1" type="line"/>
      <point x="234.0" y="314.29999999999995"/>
      <point x="241.3" y="336.0"/>
      <point x="241.3" y="362.29999999999995" type="curve" smooth="yes"/>
      <point x="241.3" y="405.3"/>
      <point x="214.9" y="437.7"/>
      <point x="172.7" y="437.7" type="curve" smooth="yes"/>
      <point x="149.0" y="437.7"/>
      <point x="125.5" y="429.2"/>
      <point x="110.3" y="413.5" type="curve"/>
      <point x="137.5" y="393.5" type="line"/>
      <point x="150.3" y="464.9"/>
      <point x="197.1" y="529.3"/>
      <point x="254.70000000000002" y="529.3" type="curve" smooth="yes"/>
      <point x="332.8" y="529.3"/>
      <point x="405.4" y="422.2"/>
      <point x="453.70000000000005" y="273.9" type="curve"/>
      <point x="447.3" y="352.3" type="line"/>
      <point x="447.3" y="1.0" type="line"/>
    </contour>
  </outline>
</glyph>
<glyph name="pha-beng" format="2">
  <advance width="641.6999999999999"/>
  <unicode hex="09AB"/>
  <anchor x="427.5" y="34.0" name="bottom"/>
  <anchor x="430.6" y="87.0" name="bottom.rakaar"/>
  <anchor x="432.7" y="8.2" name="bottom.rvocalic"/>
  <anchor x="415.5" y="14.0" name="bottom.virama"/>
  <anchor x="407.09999999999997" y="583.0" name="top"/>
  <anchor x="408.4" y="571.0" name="topright"/>
  <anchor x="320.7" y="0.0" name="vedic"/>
  <outline>
    <contour>
      <point x="424.0" y="-24.0" type="line"/>
      <point x="432.7" y="-22.0" type="line"/>
      <point x="432.7" y="424.1" type="line"/>
      <point x="415.40000000000003" y="395.09999999999997" type="line"/>
      <point x="432.3" y="399.9"/>
      <point x="446.40000000000003" y="400.9"/>
      <point x="463.0" y="400.9" type="curve" smooth="yes"/>
      <point x="538.2" y="400.9"/>
      <point x="580.9" y="356.9"/>
      <point x="580.9" y="304.3" type="curve" smooth="yes"/>
      <point x="580.9" y="289.6"/>
      <point x="577.9" y="278.2"/>
      <point x="571.3000000000001" y="266.9" type="curve"/>
      <point x="591.7" y="262.8" type="line"/>
      <point x="587.8" y="304.8"/>
      <point x="564.9" y="326.1"/>
      <point x="527.4" y="326.1" type="curve" smooth="yes"/>
      <point x="488.6" y="326.1"/>
      <point x="459.3" y="296.8"/>
      <point x="459.3" y="250.8" type="curve" smooth="yes"/>
      <point x="459.3" y="205.8"/>
      <point x="485.9" y="167.8"/>
      <point x="536.3000000000001" y="167.8" type="curve" smooth="yes"/>
      <point x="594.0" y="167.8"/>
      <point x="632.2" y="219.4"/>
      <point x="632.2" y="303.70000000000005" type="curve" smooth="yes"/>
      <point x="632.2" y="438.70000000000005"/>
      <point x="529.3" y="516.0"/>
      <point x="404.7" y="516.0" type="curve" smooth="yes"/>
      <point x="380.4" y="516.0"/>
      <point x="367.09999999999997" y="515.0"/>
      <point x="345.8" y="512.0" type="curve"/>
      <point x="345.8" y="78.10000000000001" type="line"/>
      <point x="362.6" y="95.80000000000001" type="line"/>
      <point x="317.2" y="207.60000000000002"/>
      <point x="230.79999999999998" y="259.9"/>
      <point x="150.2" y="284.1" type="curve"/>
      <point x="153.0" y="249.2" type="line"/>
      <point x="196.0" y="286.59999999999997"/>
      <point x="255.4" y="323.29999999999995"/>
      <point x="314.6" y="358.9" type="curve"/>
      <point x="266.0" y="452.3"/>
      <point x="211.60000000000002" y="515.0"/>
      <point x="109.5" y="572.0" type="curve"/>
      <point x="102.2" y="550.0" type="line"/>
      <point x="673.2" y="550.0" type="line"/>
      <point x="634.6999999999999" y="622.0" type="line"/>
      <point x="-32.2" y="622.0" type="line"/>
      <point x="46.7" y="467.1" type="line"/>
      <point x="111.1" y="456.4"/>
      <point x="172.89999999999998" y="435.40000000000003"/>
      <point x="208.0" y="396.4" type="curve"/>
      <point x="210.1" y="431.6" type="line"/>
      <point x="166.29999999999998" y="410.6"/>
      <point x="76.2" y="357.6"/>
      <point x="35.9" y="325.0" type="curve"/>
      <point x="97.3" y="191.20000000000002" type="line"/>
      <point x="208.2" y="172.70000000000002"/>
      <point x="300.7" y="120.1"/>
      <point x="361.7" y="15.500000000000002" type="curve"/>
    </contour>
  </outline>
</glyph>
<glyph name="ba-beng" format="2">
  <advance width="471.8"/>
  <unicode hex="09AC"/>
  <anchor x="404.1" y="34.0" name="bottom"/>
  <anchor x="407.2" y="87.0" name="bottom.rakaar"/>
  <anchor x="409.3" y="7.9" name="bottom.rvocalic"/>
  <anchor x="392.1" y="14.0" name="bottom.virama"/>
  <anchor x="186.0" y="44.8" name="nukta"/>
  <anchor x="383.40000000000003" y="583.0" name="top"/>
  <anchor x="384.7" y="571.0" name="topright"/>
  <anchor x="235.9" y="0.0" name="vedic"/>
  <outline>
    <contour>
      <point x="400.29999999999995" y="-24.0" type="line"/>
      <point x="409.3" y="-22.0" type="line"/>
      <point x="409.3" y="550.0" type="line"/>
      <point x="503.3" y="550.0" type="line"/>
      <point x="463.79999999999995" y="622.0" type="line"/>
      <point x="-32.2" y="622.0" type="line"/>
      <point x="7.0" y="550.0" type="line"/>
      <point x="322.09999999999997" y="550.0" type="line"/>
      <point x="322.09999999999997" y="469.59999999999997" type="line"/>
      <point x="332.09999999999997" y="517.3000000000001" type="line"/>
      <point x="215.70000000000002" y="477.5"/>
      <point x="97.69999999999999" y="417.0"/>
      <point x="5.0" y="348.2" type="curve"/>
      <point x="67.69999999999999" y="202.6" type="line"/>
      <point x="180.79999999999998" y="181.0"/>
      <point x="276.1" y="123.1"/>
      <point x="338.29999999999995" y="15.500000000000002" type="curve"/>
    </contour>
    <contour>
      <point x="322.09999999999997" y="90.80000000000001" type="line"/>
      <point x="338.9" y="96.4" type="line"/>
      <point x="297.09999999999997" y="205.8"/>
      <point x="213.2" y="268.0"/>
      <point x="135.0" y="294.2" type="curve"/>
      <point x="140.2" y="274.0" type="line"/>
      <point x="197.20000000000002" y="320.70000000000005"/>
      <point x="276.20000000000005" y="358.09999999999997"/>
      <point x="337.7" y="382.1" type="curve"/>
      <point x="322.09999999999997" y="422.0" type="line"/>
    </contour>
  </outline>
</glyph>
<glyph name="bha-beng" format="2">
  <advance width="566.9"/>
  <unicode hex="09AD"/>
  <anchor x="408.9" y="12.0" name="bottom"/>
  <anchor x="494.8" y="4.0" name="bottom.rakaar"/>
  <anchor x="427.3" y="14.0" name="bottom.rvocalic"/>
  <anchor x="372.6" y="13.0" name="bottom.virama"/>
  <anchor x="324.59999999999997" y="583.0" name="top"/>
  <anchor x="325.9" y="571.0" name="topright"/>
  <anchor x="283.09999999999997" y="0.0" name="vedic"/>
  <outline>
    <contour>
      <point x="337.2" y="19.0" type="curve" smooth="yes"/>
      <point x="460.1" y="19.0"/>
      <point x="549.3" y="101.0"/>
      <point x="549.3" y="266.0" type="curve" smooth="yes"/>
      <point x="549.3" y="386.0"/>
      <point x="495.59999999999997" y="461.0"/>
      <point x="449.79999999999995" y="500.3" type="curve"/>
      <point x="398.3" y="403.20000000000005"/>
      <point x="347.7" y="361.09999999999997"/>
      <point x="289.0" y="356.4" type="curve"/>
      <point x="311.0" y="332.90000000000003" type="line"/>
      <point x="327.9" y="349.90000000000003"/>
      <point x="338.6" y="372.0"/>
      <point x="338.6" y="400.90000000000003" type="curve" smooth="yes"/>
      <point x="338.6" y="452.9"/>
      <point x="303.1" y="486.2"/>
      <point x="255.5" y="486.2" type="curve" smooth="yes"/>
      <point x="199.1" y="486.2"/>
      <point x="165.5" y="441.5"/>
      <point x="165.5" y="386.90000000000003" type="curve" smooth="yes"/>
      <point x="165.5" y="309.6"/>
      <point x="221.9" y="251.2"/>
      <point x="307.0" y="251.2" type="curve" smooth="yes"/>
      <point x="374.40000000000003" y="251.2"/>
      <point x="445.2" y="292.09999999999997"/>
      <point x="496.4" y="376.0" type="curve"/>
      <point x="458.20000000000005" y="373.40000000000003" type="line"/>
      <point x="474.79999999999995" y="350.70000000000005"/>
      <point x="485.1" y="322.90000000000003"/>
      <point x="485.1" y="284.2" type="curve" smooth="yes"/>
      <point x="485.1" y="199.0"/>
      <point x="425.4" y="144.8"/>
      <point x="333.5" y="144.8" type="curve" smooth="yes"/>
      <point x="210.20000000000002" y="144.8"/>
      <point x="123.1" y="231.6"/>
      <point x="62.1" y="492.59999999999997" type="curve"/>
      <point x="6.699999999999999" y="479.0" type="line"/>
      <point x="69.2" y="153.5"/>
      <point x="162.5" y="19.0"/>
    </contour>
    <contour>
      <point x="7.0" y="550.0" type="line"/>
      <point x="599.1" y="550.0" type="line"/>
      <point x="558.2" y="622.0" type="line"/>
      <point x="-32.2" y="622.0" type="line"/>
    </contour>
  </outline>
</glyph>
<glyph name="ma-beng" format="2">
  <advance width="516.1"/>
  <unicode hex="09AE"/>
  <anchor x="435.1" y="66.2" name="bottom"/>
  <anchor x="448.7" y="87.0" name="bottom.rakaar"/>
  <anchor x="445.9" y="6.800000000000001" name="bottom.rvocalic"/>
  <anchor x="426.59999999999997" y="14.0" name="bottom.virama"/>
  <anchor x="421.0" y="583.0" name="top"/>
  <anchor x="423.0" y="571.0" name="topright"/>
  <anchor x="257.7" y="0.0" name="vedic"/>
  <outline>
    <contour>
      <point x="437.9" y="-25.4" type="line"/>
      <point x="445.9" y="-23.4" type="line"/>
      <point x="445.9" y="550.0" type="line"/>
      <point x="547.6" y="550.0" type="line"/>
      <point x="508.40000000000003" y="622.0" type="line"/>
      <point x="-32.2" y="622.0" type="line"/>
      <point x="7.0" y="550.0" type="line"/>
      <point x="39.3" y="550.0" type="line"/>
      <point x="20.5" y="585.0" type="line"/>
      <point x="16.900000000000002" y="576.0"/>
      <point x="15.3" y="555.0"/>
      <point x="15.3" y="545.0" type="curve" smooth="yes"/>
      <point x="15.3" y="497.8"/>
      <point x="45.300000000000004" y="467.7"/>
      <point x="118.30000000000001" y="438.6" type="curve" smooth="yes"/>
      <point x="165.3" y="419.0"/>
      <point x="192.70000000000002" y="394.5"/>
      <point x="192.70000000000002" y="355.1" type="curve" smooth="yes"/>
      <point x="192.70000000000002" y="324.5"/>
      <point x="175.3" y="302.1"/>
      <point x="161.4" y="288.6" type="curve"/>
      <point x="253.5" y="319.3" type="line"/>
      <point x="232.6" y="329.3"/>
      <point x="212.8" y="337.3"/>
      <point x="183.3" y="337.3" type="curve" smooth="yes"/>
      <point x="112.0" y="338.0"/>
      <point x="73.80000000000001" y="296.3"/>
      <point x="73.80000000000001" y="233.0" type="curve" smooth="yes"/>
      <point x="73.80000000000001" y="166.4"/>
      <point x="118.69999999999999" y="125.8"/>
      <point x="175.70000000000002" y="125.8" type="curve" smooth="yes"/>
      <point x="238.9" y="125.1"/>
      <point x="268.6" y="166.70000000000002"/>
      <point x="284.5" y="224.1" type="curve"/>
      <point x="246.3" y="212.89999999999998" type="line"/>
      <point x="319.2" y="200.10000000000002"/>
      <point x="353.7" y="114.19999999999999"/>
      <point x="375.59999999999997" y="18.7" type="curve"/>
    </contour>
    <contour>
      <point x="371.5" y="123.89999999999999" type="curve"/>
      <point x="381.3" y="131.2" type="line"/>
      <point x="361.1" y="231.6"/>
      <point x="314.7" y="285.2"/>
      <point x="269.1" y="311.9" type="curve"/>
      <point x="286.9" y="253.0" type="line"/>
      <point x="294.6" y="279.3"/>
      <point x="296.3" y="298.3"/>
      <point x="296.3" y="319.0" type="curve" smooth="yes"/>
      <point x="296.3" y="388.6"/>
      <point x="265.8" y="426.9"/>
      <point x="219.8" y="456.3" type="curve" smooth="yes"/>
      <point x="182.60000000000002" y="480.3"/>
      <point x="157.2" y="502.90000000000003"/>
      <point x="157.2" y="543.0" type="curve" smooth="yes"/>
      <point x="157.2" y="554.3"/>
      <point x="160.20000000000002" y="566.0"/>
      <point x="166.20000000000002" y="574.0" type="curve"/>
      <point x="102.0" y="550.0" type="line"/>
      <point x="359.0" y="550.0" type="line"/>
      <point x="359.0" y="328.20000000000005" type="line" smooth="yes"/>
      <point x="359.0" y="269.0"/>
      <point x="363.6" y="187.79999999999998"/>
    </contour>
  </outline>
</glyph>
<glyph name="ya-beng" format="2">
  <advance width="505.0"/>
  <unicode hex="09AF"/>
  <anchor x="429.59999999999997" y="34.0" name="bottom"/>
  <anchor x="433.4" y="87.0" name="bottom.rakaar"/>
  <anchor x="434.8" y="8.2" name="bottom.rvocalic"/>
  <anchor x="417.59999999999997" y="14.0" name="bottom.virama"/>
  <anchor x="211.8" y="46.199999999999996" name="nukta"/>
  <anchor x="409.2" y="583.0" name="top"/>
  <anchor x="411.2" y="571.0" name="topright"/>
  <anchor x="252.0" y="0.0" name="vedic"/>
  <outline>
    <contour>
      <point x="426.8" y="-24.0" type="line"/>
      <point x="434.8" y="-22.0" type="line"/>
      <point x="434.8" y="550.0" type="line"/>
      <point x="536.5" y="550.0" type="line"/>
      <point x="496.3" y="622.0" type="line"/>
      <point x="-32.2" y="622.0" type="line"/>
      <point x="46.400000000000006" y="467.4" type="line"/>
      <point x="112.0" y="457.0"/>
      <point x="172.89999999999998" y="435.40000000000003"/>
      <point x="208.0" y="396.4" type="curve"/>
      <point x="210.1" y="431.6" type="line"/>
      <point x="166.29999999999998" y="410.6"/>
      <point x="75.6" y="357.3"/>
      <point x="35.9" y="325.0" type="curve"/>
      <point x="97.3" y="191.20000000000002" type="line"/>
      <point x="208.2" y="172.4"/>
      <point x="302.79999999999995" y="120.1"/>
      <point x="363.8" y="15.500000000000002" type="curve"/>
    </contour>
    <contour>
      <point x="348.6" y="78.10000000000001" type="line"/>
      <point x="364.7" y="95.80000000000001" type="line"/>
      <point x="320.3" y="207.60000000000002"/>
      <point x="230.79999999999998" y="259.9"/>
      <point x="150.2" y="284.1" type="curve"/>
      <point x="153.0" y="249.2" type="line"/>
      <point x="195.39999999999998" y="286.29999999999995"/>
      <point x="255.4" y="323.59999999999997"/>
      <point x="314.6" y="358.59999999999997" type="curve"/>
      <point x="265.1" y="453.2"/>
      <point x="211.60000000000002" y="515.0"/>
      <point x="109.5" y="572.0" type="curve"/>
      <point x="105.7" y="550.0" type="line"/>
      <point x="348.6" y="550.0" type="line"/>
    </contour>
  </outline>
</glyph>
<glyph name="la-beng" format="2">
  <advance width="597.0"/>
  <unicode hex="09B2"/>
  <anchor x="519.7" y="66.8" name="bottom"/>
  <anchor x="533.8000000000001" y="-15.0" name="bottom.rakaar"/>
  <anchor x="533.8000000000001" y="-3.0" name="bottom.rvocalic"/>
  <anchor x="497.6" y="8.0" name="bottom.virama"/>
  <anchor x="510.3" y="582.3" name="top"/>
  <anchor x="512.0" y="571.0" name="topright"/>
  <anchor x="298.0" y="0.0" name="vedic"/>
  <outline>
    <contour>
      <point x="525.8" y="-35.0" type="line"/>
      <point x="533.8000000000001" y="-33.0" type="line"/>
      <point x="533.8000000000001" y="550.0" type="line"/>
      <point x="628.5" y="550.0" type="line"/>
      <point x="588.0" y="622.0" type="line"/>
      <point x="-32.2" y="622.0" type="line"/>
      <point x="7.0" y="550.0" type="line"/>
      <point x="446.59999999999997" y="550.0" type="line"/>
      <point x="446.59999999999997" y="456.2" type="line" smooth="yes"/>
      <point x="446.59999999999997" y="400.6"/>
      <point x="451.2" y="358.3"/>
      <point x="457.5" y="306.9" type="curve"/>
      <point x="464.5" y="313.0" type="line"/>
      <point x="436.9" y="416.0"/>
      <point x="398.8" y="478.9"/>
      <point x="342.3" y="478.9" type="curve" smooth="yes"/>
      <point x="299.90000000000003" y="478.9"/>
      <point x="265.1" y="430.0"/>
      <point x="265.2" y="347.2" type="curve"/>
      <point x="287.79999999999995" y="347.7" type="line"/>
      <point x="270.8" y="424.0"/>
      <point x="220.70000000000002" y="486.0"/>
      <point x="145.3" y="486.0" type="curve" smooth="yes"/>
      <point x="65.4" y="486.0"/>
      <point x="6.800000000000001" y="420.40000000000003"/>
      <point x="6.800000000000001" y="305.8" type="curve" smooth="yes"/>
      <point x="6.800000000000001" y="177.1"/>
      <point x="81.0" y="93.7"/>
      <point x="178.2" y="93.7" type="curve" smooth="yes"/>
      <point x="238.7" y="93.7"/>
      <point x="274.9" y="129.4"/>
      <point x="274.9" y="188.0" type="curve" smooth="yes"/>
      <point x="274.9" y="242.29999999999998"/>
      <point x="243.7" y="279.3"/>
      <point x="193.2" y="279.3" type="curve" smooth="yes"/>
      <point x="150.6" y="279.3"/>
      <point x="120.1" y="247.3"/>
      <point x="120.1" y="199.0" type="curve" smooth="yes"/>
      <point x="120.1" y="178.4"/>
      <point x="124.7" y="158.7"/>
      <point x="139.9" y="145.7" type="curve"/>
      <point x="173.5" y="187.0" type="line"/>
      <point x="163.9" y="182.20000000000002"/>
      <point x="153.0" y="179.8"/>
      <point x="140.20000000000002" y="179.8" type="curve" smooth="yes"/>
      <point x="112.39999999999999" y="179.8"/>
      <point x="88.8" y="211.1"/>
      <point x="88.8" y="261.20000000000005" type="curve" smooth="yes"/>
      <point x="88.8" y="320.6"/>
      <point x="124.1" y="355.2"/>
      <point x="179.9" y="355.2" type="curve" smooth="yes"/>
      <point x="234.6" y="355.2"/>
      <point x="277.6" y="324.8"/>
      <point x="297.40000000000003" y="262.2" type="curve"/>
      <point x="324.2" y="253.9" type="line"/>
      <point x="323.59999999999997" y="315.5"/>
      <point x="342.0" y="346.6"/>
      <point x="371.79999999999995" y="346.6" type="curve" smooth="yes"/>
      <point x="402.79999999999995" y="346.6"/>
      <point x="433.0" y="312.8"/>
      <point x="452.5" y="224.4" type="curve"/>
      <point x="446.59999999999997" y="276.5" type="line"/>
      <point x="446.59999999999997" y="1.0" type="line"/>
    </contour>
  </outline>
</glyph>
<glyph name="sha-beng" format="2">
  <advance width="579.6999999999999"/>
  <unicode hex="09B6"/>
  <anchor x="504.09999999999997" y="66.8" name="bottom"/>
  <anchor x="517.2" y="-15.0" name="bottom.rakaar"/>
  <anchor x="517.2" y="-3.0" name="bottom.rvocalic"/>
  <anchor x="481.3" y="8.0" name="bottom.virama"/>
  <anchor x="487.2" y="573.0" name="top"/>
  <anchor x="473.40000000000003" y="564.0" name="topright"/>
  <anchor x="289.5" y="0.0" name="vedic"/>
  <outline>
    <contour>
      <point x="509.2" y="-35.0" type="line"/>
      <point x="517.2" y="-33.0" type="line"/>
      <point x="517.2" y="550.0" type="line"/>
      <point x="611.9" y="550.0" type="line"/>
      <point x="572.4" y="622.0" type="line"/>
      <point x="509.5" y="622.0" type="line"/>
      <point x="501.8" y="677.0" type="line"/>
      <point x="439.40000000000003" y="713.0" type="line"/>
      <point x="432.40000000000003" y="710.0" type="line"/>
      <point x="432.40000000000003" y="604.1999999999999" type="line" smooth="yes"/>
      <point x="432.40000000000003" y="552.2"/>
      <point x="435.8" y="480.2"/>
      <point x="439.7" y="442.8" type="curve"/>
      <point x="449.4" y="441.3" type="line"/>
      <point x="408.4" y="562.6"/>
      <point x="354.8" y="631.0"/>
      <point x="289.7" y="631.0" type="curve" smooth="yes"/>
      <point x="242.7" y="631.0"/>
      <point x="204.4" y="595.0"/>
      <point x="176.2" y="545.0" type="curve"/>
      <point x="140.5" y="595.8"/>
      <point x="108.2" y="622.0"/>
      <point x="59.1" y="622.0" type="curve" smooth="yes"/>
      <point x="-32.2" y="622.0" type="line"/>
      <point x="8.0" y="550.0" type="line"/>
      <point x="57.7" y="550.0" type="line" smooth="yes"/>
      <point x="92.9" y="550.0"/>
      <point x="125.80000000000001" y="530.7"/>
      <point x="146.79999999999998" y="485.9" type="curve"/>
      <point x="163.1" y="512.9" type="line"/>
      <point x="44.699999999999996" y="464.0"/>
      <point x="16.3" y="395.3"/>
      <point x="16.3" y="339.3" type="curve" smooth="yes"/>
      <point x="16.3" y="272.0"/>
      <point x="61.8" y="248.0"/>
      <point x="98.6" y="248.0" type="curve" smooth="yes"/>
      <point x="147.3" y="248.0"/>
      <point x="180.70000000000002" y="283.6"/>
      <point x="194.0" y="336.3" type="curve"/>
      <point x="208.3" y="277.3"/>
      <point x="242.70000000000002" y="249.0"/>
      <point x="285.1" y="249.0" type="curve" smooth="yes"/>
      <point x="330.8" y="249.0"/>
      <point x="363.3" y="280.3"/>
      <point x="363.3" y="340.6" type="curve" smooth="yes"/>
      <point x="363.3" y="406.3"/>
      <point x="317.3" y="455.0"/>
      <point x="256.6" y="487.9" type="curve"/>
      <point x="264.2" y="459.0" type="line"/>
      <point x="276.6" y="494.8"/>
      <point x="293.3" y="523.3"/>
      <point x="320.40000000000003" y="523.3" type="curve" smooth="yes"/>
      <point x="351.0" y="523.3"/>
      <point x="400.7" y="479.4"/>
      <point x="438.5" y="354.3" type="curve"/>
      <point x="431.0" y="412.1" type="line"/>
      <point x="431.0" y="1.0" type="line"/>
    </contour>
  </outline>
</glyph>
<glyph name="ssa-beng" format="2">
  <advance width="505.6"/>
  <unicode hex="09B7"/>
  <anchor x="430.2" y="34.0" name="bottom"/>
  <anchor x="434.0" y="87.0" name="bottom.rakaar"/>
  <anchor x="435.4" y="8.2" name="bottom.rvocalic"/>
  <anchor x="418.2" y="6.300000000000001" name="bottom.virama"/>
  <anchor x="409.8" y="583.0" name="top"/>
  <anchor x="411.8" y="571.0" name="topright"/>
  <anchor x="252.3" y="0.0" name="vedic"/>
  <outline>
    <contour>
      <point x="427.4" y="-24.0" type="line"/>
      <point x="435.4" y="-22.0" type="line"/>
      <point x="435.4" y="550.0" type="line"/>
      <point x="537.0999999999999" y="550.0" type="line"/>
      <point x="497.2" y="622.0" type="line"/>
      <point x="-32.2" y="622.0" type="line"/>
      <point x="46.400000000000006" y="467.4" type="line"/>
      <point x="170.20000000000002" y="455.3"/>
      <point x="283.8" y="373.2"/>
      <point x="376.0" y="265.2" type="curve"/>
      <point x="400.5" y="312.5" type="line"/>
      <point x="354.5" y="379.9"/>
      <point x="215.2" y="523.0"/>
      <point x="93.6" y="578.0" type="curve"/>
      <point x="90.80000000000001" y="550.0" type="line"/>
      <point x="349.2" y="550.0" type="line"/>
      <point x="349.2" y="78.10000000000001" type="line"/>
      <point x="365.3" y="93.39999999999999" type="line"/>
      <point x="321.5" y="205.20000000000002"/>
      <point x="229.29999999999998" y="261.1"/>
      <point x="150.2" y="284.1" type="curve"/>
      <point x="162.39999999999998" y="246.4" type="line"/>
      <point x="203.3" y="282.4"/>
      <point x="258.3" y="321.3"/>
      <point x="313.8" y="357.5" type="curve"/>
      <point x="208.29999999999998" y="431.0" type="line"/>
      <point x="160.79999999999998" y="403.7"/>
      <point x="86.7" y="356.3"/>
      <point x="37.2" y="313.5" type="curve"/>
      <point x="99.8" y="191.20000000000002" type="line"/>
      <point x="208.8" y="172.70000000000002"/>
      <point x="303.7" y="119.8"/>
      <point x="364.7" y="15.200000000000001" type="curve"/>
    </contour>
  </outline>
</glyph>
<glyph name="sa-beng" format="2">
  <advance width="575.8"/>
  <unicode hex="09B8"/>
  <anchor x="498.5" y="66.8" name="bottom"/>
  <anchor x="512.3000000000001" y="-15.0" name="bottom.rakaar"/>
  <anchor x="512.3000000000001" y="-2.7" name="bottom.rvocalic"/>
  <anchor x="476.40000000000003" y="8.0" name="bottom.virama"/>
  <anchor x="489.1" y="582.3" name="top"/>
  <anchor x="490.79999999999995" y="571.0" name="topright"/>
  <anchor x="287.40000000000003" y="0.0" name="vedic"/>
  <outline>
    <contour>
      <point x="504.59999999999997" y="-35.0" type="line"/>
      <point x="512.6" y="-33.0" type="line"/>
      <point x="512.6" y="550.0" type="line"/>
      <point x="607.3000000000001" y="550.0" type="line"/>
      <point x="567.1" y="622.0" type="line"/>
      <point x="-32.2" y="622.0" type="line"/>
      <point x="66.2" y="452.0" type="line"/>
      <point x="76.4" y="454.0"/>
      <point x="94.7" y="457.0"/>
      <point x="115.6" y="457.0" type="curve" smooth="yes"/>
      <point x="181.1" y="457.0"/>
      <point x="238.6" y="419.7"/>
      <point x="245.3" y="292.7" type="curve"/>
      <point x="279.3" y="346.0" type="line"/>
      <point x="270.1" y="489.0"/>
      <point x="229.70000000000002" y="552.0"/>
      <point x="82.9" y="575.0" type="curve"/>
      <point x="102.0" y="550.0" type="line"/>
      <point x="426.0" y="550.0" type="line"/>
      <point x="426.0" y="460.3" type="line" smooth="yes"/>
      <point x="426.0" y="404.6"/>
      <point x="430.79999999999995" y="343.5"/>
      <point x="436.09999999999997" y="290.0" type="curve"/>
      <point x="447.2" y="296.6" type="line"/>
      <point x="409.6" y="404.1"/>
      <point x="377.6" y="448.3"/>
      <point x="334.7" y="448.3" type="curve" smooth="yes"/>
      <point x="301.9" y="448.3"/>
      <point x="272.40000000000003" y="413.3"/>
      <point x="245.20000000000002" y="343.20000000000005" type="curve" smooth="yes"/>
      <point x="216.7" y="269.3"/>
      <point x="195.3" y="221.4"/>
      <point x="160.4" y="221.4" type="curve" smooth="yes"/>
      <point x="133.20000000000002" y="221.4"/>
      <point x="115.0" y="237.9"/>
      <point x="86.5" y="296.7" type="curve"/>
      <point x="38.2" y="272.1" type="line"/>
      <point x="76.6" y="167.7"/>
      <point x="123.30000000000001" y="96.5"/>
      <point x="192.4" y="96.5" type="curve" smooth="yes"/>
      <point x="245.79999999999998" y="96.5"/>
      <point x="274.5" y="144.2"/>
      <point x="307.0" y="220.29999999999998" type="curve" smooth="yes"/>
      <point x="336.09999999999997" y="288.9"/>
      <point x="351.40000000000003" y="315.5"/>
      <point x="374.0" y="315.5" type="curve" smooth="yes"/>
      <point x="398.3" y="315.5"/>
      <point x="415.8" y="283.9"/>
      <point x="433.8" y="215.3" type="curve"/>
      <point x="425.7" y="285.7" type="line"/>
      <point x="425.7" y="1.0" type="line"/>
    </contour>
  </outline>
</glyph>
<glyph name="ha-beng" format="2">
  <advance width="445.7"/>
  <unicode hex="09B9"/>
  <anchor x="266.59999999999997" y="56.2" name="bottom"/>
  <anchor x="378.2" y="-83.0" name="bottom.rakaar"/>
  <anchor x="340.09999999999997" y="48.0" name="bottom.rvocalic"/>
  <anchor x="258.5" y="55.0" name="bottom.virama"/>
  <anchor x="225.3" y="583.0" name="top"/>
  <anchor x="220.3" y="571.0" name="topright"/>
  <anchor x="222.5" y="0.0" name="vedic"/>
  <outline>
    <contour>
      <point x="439.3" y="-93.0" type="curve"/>
      <point x="475.2" y="-52.0" type="line"/>
      <point x="387.29999999999995" y="46.0"/>
      <point x="278.3" y="138.5"/>
      <point x="170.1" y="164.5" type="curve"/>
      <point x="129.1" y="132.8" type="line"/>
      <point x="146.29999999999998" y="122.2"/>
      <point x="173.7" y="118.6"/>
      <point x="200.8" y="118.6" type="curve" smooth="yes"/>
      <point x="340.6" y="118.6"/>
      <point x="416.7" y="193.0"/>
      <point x="416.7" y="306.8" type="curve" smooth="yes"/>
      <point x="416.7" y="430.90000000000003"/>
      <point x="329.0" y="500.0"/>
      <point x="182.6" y="500.0" type="curve" smooth="yes"/>
      <point x="98.5" y="500.0"/>
      <point x="45.3" y="458.0"/>
      <point x="45.3" y="390.70000000000005" type="curve" smooth="yes"/>
      <point x="45.3" y="327.5"/>
      <point x="88.1" y="291.0"/>
      <point x="144.3" y="291.0" type="curve" smooth="yes"/>
      <point x="204.4" y="291.0"/>
      <point x="242.3" y="335.3"/>
      <point x="242.3" y="404.3" type="curve" smooth="yes"/>
      <point x="242.3" y="471.3"/>
      <point x="197.29999999999998" y="535.0"/>
      <point x="168.6" y="558.0" type="curve"/>
      <point x="29.4" y="558.0" type="line"/>
      <point x="90.2" y="541.0"/>
      <point x="134.6" y="510.3"/>
      <point x="170.0" y="462.0" type="curve"/>
      <point x="168.8" y="380.0" type="line"/>
      <point x="183.7" y="399.0"/>
      <point x="214.79999999999998" y="420.3"/>
      <point x="243.4" y="420.3" type="curve" smooth="yes"/>
      <point x="294.0" y="420.3"/>
      <point x="325.9" y="388.6"/>
      <point x="325.9" y="334.90000000000003" type="curve" smooth="yes"/>
      <point x="325.9" y="259.4"/>
      <point x="266.6" y="220.6"/>
      <point x="174.1" y="220.6" type="curve" smooth="yes"/>
      <point x="118.4" y="220.6"/>
      <point x="73.1" y="232.60000000000002"/>
      <point x="34.199999999999996" y="256.6" type="curve"/>
      <point x="63.5" y="108.60000000000001" type="line"/>
      <point x="183.2" y="82.3"/>
      <point x="294.40000000000003" y="37.3"/>
    </contour>
    <contour>
      <point x="7.0" y="550.0" type="line"/>
      <point x="477.9" y="550.0" type="line"/>
      <point x="437.40000000000003" y="622.0" type="line"/>
      <point x="-32.2" y="622.0" type="line"/>
    </contour>
  </outline>
</glyph>
<glyph name="nukta-beng" format="2">
  <unicode hex="09BC"/>
  <anchor x="0.0" y="-132.0" name="_nukta"/>
  <outline>
    <contour>
      <point x="0.0" y="-203.2" type="curve" smooth="yes"/>
      <point x="39.300000000000004" y="-203.2"/>
      <point x="66.6" y="-175.60000000000002"/>
      <point x="66.6" y="-132.0" type="curve" smooth="yes"/>
      <point x="66.6" y="-87.7"/>
      <point x="39.6" y="-59.8"/>
      <point x="0.0" y="-59.8" type="curve" smooth="yes"/>
      <point x="-40.6" y="-59.8"/>
      <point x="-68.3" y="-87.7"/>
      <point x="-68.3" y="-132.0" type="curve" smooth="yes"/>
      <point x="-68.3" y="-175.3"/>
      <point x="-40.300000000000004" y="-203.2"/>
    </contour>
  </outline>
</glyph>
<glyph name="avagraha-beng" format="2">
  <advance width="462.8"/>
  <unicode hex="09BD"/>
  <anchor x="205.1" y="583.0" name="top"/>
  <anchor x="203.79999999999998" y="571.0" name="topright"/>
  <outline>
    <contour>
      <point x="444.90000000000003" y="-93.0" type="curve"/>
      <point x="480.09999999999997" y="-52.0" type="line"/>
      <point x="392.9" y="46.0"/>
      <point x="283.2" y="138.5"/>
      <point x="175.7" y="164.5" type="curve"/>
      <point x="134.0" y="132.8" type="line"/>
      <point x="151.2" y="122.2"/>
      <point x="178.6" y="118.6"/>
      <point x="206.4" y="118.6" type="curve" smooth="yes"/>
      <point x="346.2" y="118.6"/>
      <point x="422.3" y="193.0"/>
      <point x="422.3" y="306.8" type="curve" smooth="yes"/>
      <point x="422.3" y="429.40000000000003"/>
      <point x="334.59999999999997" y="500.0"/>
      <point x="188.2" y="500.0" type="curve" smooth="yes"/>
      <point x="104.1" y="500.0"/>
      <point x="50.9" y="458.0"/>
      <point x="50.9" y="390.70000000000005" type="curve" smooth="yes"/>
      <point x="50.9" y="327.5"/>
      <point x="93.0" y="291.0"/>
      <point x="149.9" y="291.0" type="curve" smooth="yes"/>
      <point x="210.0" y="291.0"/>
      <point x="247.9" y="335.3"/>
      <point x="247.9" y="404.3" type="curve" smooth="yes"/>
      <point x="247.9" y="478.5"/>
      <point x="196.0" y="567.7"/>
      <point x="120.7" y="622.0" type="curve"/>
      <point x="-32.9" y="622.0" type="line"/>
      <point x="7.0" y="550.0" type="line"/>
      <point x="117.8" y="550.0" type="line"/>
      <point x="65.8" y="557.3" type="line"/>
      <point x="109.8" y="540.3000000000001"/>
      <point x="146.5" y="508.9"/>
      <point x="175.60000000000002" y="462.0" type="curve"/>
      <point x="174.4" y="380.0" type="line"/>
      <point x="189.3" y="399.0"/>
      <point x="220.4" y="420.3"/>
      <point x="249.0" y="420.3" type="curve" smooth="yes"/>
      <point x="299.6" y="420.3"/>
      <point x="330.79999999999995" y="386.8"/>
      <point x="330.79999999999995" y="334.90000000000003" type="curve" smooth="yes"/>
      <point x="330.79999999999995" y="259.4"/>
      <point x="271.5" y="220.6"/>
      <point x="179.7" y="220.6" type="curve" smooth="yes"/>
      <point x="123.30000000000001" y="220.6"/>
      <point x="78.0" y="232.60000000000002"/>
      <point x="39.099999999999994" y="256.6" type="curve"/>
      <point x="68.39999999999999" y="108.60000000000001" type="line"/>
      <point x="188.1" y="82.3"/>
      <point x="300.0" y="37.3"/>
    </contour>
  </outline>
</glyph>
<glyph name="aaMatra-beng" format="2">
  <advance width="211.2"/>
  <unicode hex="09BE"/>
  <anchor x="-205.1" y="0.0" name="vedic"/>
  <outline>
    <contour>
      <point x="141.7" y="-35.0" type="line"/>
      <point x="149.4" y="-33.0" type="line"/>
      <point x="149.4" y="550.0" type="line"/>
      <point x="243.39999999999998" y="550.0" type="line"/>
      <point x="204.20000000000002" y="622.0" type="line"/>
      <point x="141.0" y="622.0" type="line"/>
      <point x="133.3" y="677.0" type="line"/>
      <point x="70.9" y="713.0" type="line"/>
      <point x="63.900000000000006" y="710.0" type="line"/>
      <point x="63.900000000000006" y="635.6" type="line" smooth="yes"/>
      <point x="63.900000000000006" y="605.1"/>
      <point x="67.60000000000001" y="559.6"/>
      <point x="71.9" y="523.8" type="curve"/>
      <point x="79.1" y="525.4" type="line"/>
      <point x="65.8" y="594.5999999999999"/>
      <point x="38.7" y="622.0"/>
      <point x="-1.7999999999999994" y="622.0" type="curve" smooth="yes"/>
      <point x="-32.2" y="622.0" type="line"/>
      <point x="7.699999999999999" y="550.0" type="line"/>
      <point x="14.799999999999999" y="550.0" type="line" smooth="yes"/>
      <point x="39.4" y="550.0"/>
      <point x="55.900000000000006" y="517.6"/>
      <point x="62.50000000000001" y="477.4" type="curve"/>
      <point x="62.50000000000001" y="1.0" type="line"/>
    </contour>
  </outline>
</glyph>
<glyph name="iMatra-beng" format="2">
  <advance width="211.2"/>
  <unicode hex="09BF"/>
  <anchor x="613.2" y="583.0" name="top"/>
  <anchor x="533.7" y="593.0" name="topright"/>
  <outline>
    <contour>
      <point x="141.7" y="-35.0" type="line"/>
      <point x="149.4" y="-33.0" type="line"/>
      <point x="149.4" y="550.0" type="line"/>
      <point x="243.7" y="550.0" type="line"/>
      <point x="204.20000000000002" y="622.0" type="line"/>
      <point x="142.6" y="622.0" type="line"/>
      <point x="130.8" y="641.9"/>
      <point x="114.0" y="669.1"/>
      <point x="102.8" y="693.5" type="curve"/>
      <point x="129.70000000000002" y="759.1"/>
      <point x="202.2" y="821.7"/>
      <point x="285.5" y="821.7" type="curve" smooth="yes"/>
      <point x="373.4" y="821.7"/>
      <point x="454.5" y="771.8000000000001"/>
      <point x="550.1999999999999" y="668.9" type="curve"/>
      <point x="590.9" y="705.5999999999999" type="line"/>
      <point x="515.7" y="806.4"/>
      <point x="396.09999999999997" y="922.3"/>
      <point x="255.2" y="922.3" type="curve" smooth="yes"/>
      <point x="132.79999999999998" y="922.3"/>
      <point x="30.200000000000003" y="835.5"/>
      <point x="-16.7" y="715.6" type="curve"/>
      <point x="9.5" y="681.5999999999999"/>
      <point x="38.2" y="651.4"/>
      <point x="63.0" y="622.0" type="curve"/>
      <point x="-32.2" y="622.0" type="line"/>
      <point x="7.699999999999999" y="550.0" type="line"/>
      <point x="62.50000000000001" y="550.0" type="line"/>
      <point x="62.50000000000001" y="1.0" type="line"/>
    </contour>
  </outline>
</glyph>
<glyph name="iiMatra-beng" format="2">
  <advance width="211.2"/>
  <unicode hex="09C0"/>
  <anchor x="125.89999999999999" y="678.7" name="top"/>
  <anchor x="-4.800000000000001" y="601.0" name="topright"/>
  <anchor x="-205.1" y="0.0" name="vedic"/>
  <outline>
    <contour>
      <point x="141.7" y="-35.0" type="line"/>
      <point x="149.4" y="-33.0" type="line"/>
      <point x="149.4" y="550.0" type="line"/>
      <point x="243.39999999999998" y="550.0" type="line"/>
      <point x="203.9" y="622.0" type="line"/>
      <point x="144.70000000000002" y="622.0" type="line"/>
      <point x="127.5" y="816.0"/>
      <point x="5.299999999999999" y="939.0"/>
      <point x="-211.1" y="939.0" type="curve" smooth="yes"/>
      <point x="-390.5" y="939.0"/>
      <point x="-459.2" y="870.3"/>
      <point x="-459.2" y="793.6" type="curve" smooth="yes"/>
      <point x="-459.2" y="716.8"/>
      <point x="-403.09999999999997" y="683.7"/>
      <point x="-336.5" y="683.7" type="curve" smooth="yes"/>
      <point x="-278.8" y="683.7"/>
      <point x="-250.6" y="699.7"/>
      <point x="-207.20000000000002" y="699.7" type="curve" smooth="yes"/>
      <point x="-174.6" y="699.7"/>
      <point x="-149.4" y="684.7"/>
      <point x="-149.4" y="616.0" type="curve"/>
      <point x="-64.1" y="616.0" type="line"/>
      <point x="-67.8" y="652.0" type="line" smooth="yes"/>
      <point x="-76.8" y="739.0"/>
      <point x="-142.5" y="785.3"/>
      <point x="-223.9" y="785.3" type="curve" smooth="yes"/>
      <point x="-274.3" y="785.3"/>
      <point x="-314.3" y="776.3"/>
      <point x="-354.20000000000005" y="776.3" type="curve" smooth="yes"/>
      <point x="-383.29999999999995" y="776.3"/>
      <point x="-395.2" y="783.3"/>
      <point x="-395.2" y="797.9" type="curve" smooth="yes"/>
      <point x="-395.2" y="827.3000000000001"/>
      <point x="-345.3" y="844.4"/>
      <point x="-217.1" y="844.4" type="curve" smooth="yes"/>
      <point x="-46.5" y="844.4"/>
      <point x="61.800000000000004" y="795.4"/>
      <point x="64.1" y="622.0" type="curve"/>
      <point x="-32.2" y="622.0" type="line"/>
      <point x="7.699999999999999" y="550.0" type="line"/>
      <point x="62.50000000000001" y="550.0" type="line"/>
      <point x="62.50000000000001" y="1.0" type="line"/>
    </contour>
  </outline>
</glyph>
<glyph name="uuMatra-beng" format="2">
  <unicode hex="09C2"/>
  <anchor x="0.0" y="0.0" name="_bottom"/>
  <outline>
    <contour>
      <point x="153.29999999999998" y="-306.0" type="curve"/>
      <point x="183.6" y="-270.0" type="line"/>
      <point x="130.5" y="-208.7"/>
      <point x="59.2" y="-162.7"/>
      <point x="14.8" y="-140.0" type="curve"/>
      <point x="-29.599999999999998" y="-181.70000000000002"/>
      <point x="-72.4" y="-199.4"/>
      <point x="-112.7" y="-199.4" type="curve" smooth="yes"/>
      <point x="-147.0" y="-199.4"/>
      <point x="-168.5" y="-183.9"/>
      <point x="-168.5" y="-155.6" type="curve" smooth="yes"/>
      <point x="-168.5" y="-128.6"/>
      <point x="-148.9" y="-111.9"/>
      <point x="-112.0" y="-111.9" type="curve" smooth="yes"/>
      <point x="-84.6" y="-111.9"/>
      <point x="-61.1" y="-116.6"/>
      <point x="-34.0" y="-126.0" type="curve"/>
      <point x="11.299999999999999" y="-101.3" type="line"/>
      <point x="10.3" y="-40.3"/>
      <point x="-0.7" y="11.7"/>
      <point x="-14.9" y="52.0" type="curve"/>
      <point x="-81.8" y="32.7" type="line"/>
      <point x="-72.9" y="7.7"/>
      <point x="-65.3" y="-39.0"/>
      <point x="-65.3" y="-68.3" type="curve"/>
      <point x="-34.4" y="-51.0" type="line"/>
      <point x="-61.2" y="-39.7"/>
      <point x="-89.0" y="-32.7"/>
      <point x="-122.8" y="-32.7" type="curve" smooth="yes"/>
      <point x="-190.7" y="-32.7"/>
      <point x="-241.7" y="-77.5"/>
      <point x="-241.7" y="-150.8" type="curve" smooth="yes"/>
      <point x="-241.7" y="-225.5"/>
      <point x="-194.3" y="-279.9"/>
      <point x="-104.8" y="-280.6" type="curve" smooth="yes"/>
      <point x="-45.400000000000006" y="-281.3"/>
      <point x="8.0" y="-257.2"/>
      <point x="51.7" y="-206.6" type="curve"/>
      <point x="-0.7999999999999998" y="-204.3" type="line"/>
      <point x="46.300000000000004" y="-217.3"/>
      <point x="106.9" y="-262.3"/>
    </contour>
  </outline>
</glyph>
<glyph name="rVocalicMatra-beng" format="2">
  <unicode hex="09C3"/>
  <anchor x="0.0" y="0.0" name="_bottom.rvocalic"/>
  <outline>
    <contour>
      <point x="18.1" y="-285.8" type="curve"/>
      <point x="47.199999999999996" y="-243.0" type="line"/>
      <point x="14.899999999999999" y="-200.1"/>
      <point x="-56.8" y="-131.1"/>
      <point x="-139.60000000000002" y="-84.4" type="curve"/>
      <point x="-129.3" y="-115.69999999999999" type="line"/>
      <point x="-93.0" y="-84.6"/>
      <point x="-42.8" y="-55.599999999999994"/>
      <point x="0.0" y="-32.300000000000004" type="curve"/>
      <point x="0.0" y="-11.0" type="line"/>
      <point x="-55.400000000000006" y="46.699999999999996" type="line"/>
      <point x="-112.69999999999999" y="18.0"/>
      <point x="-195.3" y="-29.4"/>
      <point x="-258.5" y="-80.69999999999999" type="curve"/>
      <point x="-202.3" y="-153.70000000000002" type="line"/>
      <point x="-110.3" y="-182.3"/>
      <point x="-40.0" y="-228.4"/>
    </contour>
  </outline>
</glyph>
<glyph name="rrVocalicMatra-beng" format="2">
  <unicode hex="09C4"/>
  <anchor x="0.0" y="0.0" name="_bottom.rvocalic"/>
  <outline>
    <contour>
      <point x="19.3" y="-271.59999999999997" type="curve"/>
      <point x="47.0" y="-228.8" type="line"/>
      <point x="14.3" y="-189.60000000000002"/>
      <point x="-55.0" y="-128.5"/>
      <point x="-139.60000000000002" y="-86.5" type="curve"/>
      <point x="-129.3" y="-115.69999999999999" type="line"/>
      <point x="-93.0" y="-84.6"/>
      <point x="-42.8" y="-55.599999999999994"/>
      <point x="0.0" y="-32.300000000000004" type="curve"/>
      <point x="0.0" y="-11.0" type="line"/>
      <point x="-55.400000000000006" y="46.699999999999996" type="line"/>
      <point x="-112.69999999999999" y="18.0"/>
      <point x="-195.3" y="-29.4"/>
      <point x="-258.5" y="-80.69999999999999" type="curve"/>
      <point x="-201.7" y="-153.4" type="line"/>
      <point x="-108.19999999999999" y="-181.1"/>
      <point x="-38.5" y="-219.6"/>
    </contour>
    <contour>
      <point x="18.6" y="-428.5" type="curve"/>
      <point x="45.7" y="-391.5" type="line"/>
      <point x="18.900000000000002" y="-354.5"/>
      <point x="-49.7" y="-289.5"/>
      <point x="-133.29999999999998" y="-246.5" type="curve"/>
      <point x="-125.0" y="-272.5" type="line"/>
      <point x="-94.4" y="-246.20000000000002"/>
      <point x="-67.0" y="-224.9"/>
      <point x="-28.1" y="-204.0" type="curve"/>
      <point x="-117.89999999999999" y="-158.9" type="line"/>
      <point x="-165.9" y="-184.8"/>
      <point x="-204.8" y="-212.1"/>
      <point x="-247.1" y="-244.1" type="curve"/>
      <point x="-192.5" y="-309.8" type="line"/>
      <point x="-103.4" y="-337.1"/>
      <point x="-39.0" y="-375.5"/>
    </contour>
  </outline>
</glyph>
<glyph name="eMatra-beng" format="2">
  <advance width="358.5"/>
  <unicode hex="09C7"/>
  <outline>
    <contour>
      <point x="248.2" y="-26.0" type="curve" smooth="yes"/>
      <point x="313.6" y="-26.0"/>
      <point x="352.5" y="11.299999999999999"/>
      <point x="352.5" y="76.9" type="curve" smooth="yes"/>
      <point x="352.5" y="127.9"/>
      <point x="322.59999999999997" y="171.9"/>
      <point x="265.5" y="171.9" type="curve" smooth="yes"/>
      <point x="217.0" y="171.9"/>
      <point x="183.5" y="136.6"/>
      <point x="183.5" y="88.6" type="curve" smooth="yes"/>
      <point x="183.5" y="54.300000000000004"/>
      <point x="195.5" y="31.0"/>
      <point x="211.4" y="14.0" type="curve"/>
      <point x="243.20000000000002" y="28.700000000000003" type="line"/>
      <point x="166.5" y="50.2"/>
      <point x="133.4" y="126.60000000000001"/>
      <point x="133.4" y="248.39999999999998" type="curve" smooth="yes"/>
      <point x="133.4" y="425.7"/>
      <point x="248.0" y="550.0"/>
      <point x="352.2" y="550.0" type="curve" smooth="yes"/>
      <point x="390.7" y="550.0" type="line"/>
      <point x="352.5" y="622.0" type="line"/>
      <point x="-32.2" y="622.0" type="line"/>
      <point x="5.300000000000001" y="550.0" type="line"/>
      <point x="200.1" y="550.0" type="line"/>
      <point x="162.8" y="580.4" type="line"/>
      <point x="94.0" y="534.0"/>
      <point x="33.5" y="432.5"/>
      <point x="33.5" y="286.9" type="curve" smooth="yes"/>
      <point x="33.5" y="90.0"/>
      <point x="135.0" y="-26.0"/>
    </contour>
  </outline>
</glyph>
<glyph name="aiMatra-beng" format="2">
  <advance width="358.5"/>
  <unicode hex="09C8"/>
  <outline>
    <contour>
      <point x="296.2" y="598.0" type="curve"/>
      <point x="353.1" y="598.0" type="line"/>
      <point x="349.90000000000003" y="740.8"/>
      <point x="304.0" y="814.4000000000001"/>
      <point x="213.1" y="814.4000000000001" type="curve" smooth="yes"/>
      <point x="169.5" y="814.4000000000001"/>
      <point x="140.70000000000002" y="807.5"/>
      <point x="93.39999999999999" y="807.5" type="curve" smooth="yes"/>
      <point x="38.2" y="807.5"/>
      <point x="13.5" y="831.6999999999999"/>
      <point x="13.5" y="886.0" type="curve" smooth="yes"/>
      <point x="13.5" y="901.2"/>
      <point x="14.499999999999996" y="917.0"/>
      <point x="16.2" y="928.0" type="curve"/>
      <point x="-34.1" y="933.0" type="line"/>
      <point x="-38.8" y="908.9"/>
      <point x="-42.5" y="881.8"/>
      <point x="-42.5" y="855.0" type="curve" smooth="yes"/>
      <point x="-42.5" y="757.5"/>
      <point x="1.200000000000001" y="694.6999999999999"/>
      <point x="95.30000000000001" y="694.6999999999999" type="curve" smooth="yes"/>
      <point x="150.70000000000002" y="694.6999999999999"/>
      <point x="181.0" y="703.6"/>
      <point x="218.1" y="703.6" type="curve" smooth="yes"/>
      <point x="260.7" y="703.6"/>
      <point x="293.6" y="684.0"/>
    </contour>
    <component base="eMatra-beng"/>
  </outline>
</glyph>
<glyph name="taKhanda-beng" format="2">
  <advance width="478.6"/>
  <unicode hex="09CE"/>
  <anchor x="245.89999999999998" y="583.0" name="top"/>
  <anchor x="247.39999999999998" y="571.0" name="topright"/>
  <outline>
    <contour>
      <point x="445.1" y="-72.0" type="line"/>
      <point x="467.0" y="-37.0"/>
      <point x="482.3" y="7.0"/>
      <point x="482.3" y="51.0" type="curve" smooth="yes"/>
      <point x="482.3" y="140.0"/>
      <point x="410.5" y="198.0"/>
      <point x="280.6" y="233.9" type="curve" smooth="yes"/>
      <point x="152.0" y="269.2"/>
      <point x="117.6" y="309.0"/>
      <point x="117.6" y="382.8" type="curve" smooth="yes"/>
      <point x="117.6" y="475.3"/>
      <point x="175.6" y="509.4"/>
      <point x="240.89999999999998" y="509.4" type="curve" smooth="yes"/>
      <point x="293.0" y="509.4"/>
      <point x="324.1" y="491.70000000000005"/>
      <point x="324.1" y="455.70000000000005" type="curve" smooth="yes"/>
      <point x="324.1" y="431.1"/>
      <point x="309.59999999999997" y="414.0"/>
      <point x="282.59999999999997" y="414.0" type="curve" smooth="yes"/>
      <point x="247.3" y="414.0"/>
      <point x="200.4" y="443.0"/>
      <point x="193.79999999999998" y="524.0" type="curve"/>
      <point x="145.20000000000002" y="503.0" type="line"/>
      <point x="154.9" y="392.0"/>
      <point x="191.29999999999998" y="302.0"/>
      <point x="274.0" y="302.0" type="curve" smooth="yes"/>
      <point x="355.1" y="302.0"/>
      <point x="389.7" y="383.0"/>
      <point x="389.7" y="472.6" type="curve" smooth="yes"/>
      <point x="389.7" y="559.3"/>
      <point x="340.5" y="622.0"/>
      <point x="244.29999999999998" y="622.0" type="curve" smooth="yes"/>
      <point x="115.1" y="622.0"/>
      <point x="40.7" y="501.3"/>
      <point x="40.7" y="371.0" type="curve" smooth="yes"/>
      <point x="40.7" y="238.7"/>
      <point x="98.30000000000001" y="149.6"/>
      <point x="248.89999999999998" y="112.0" type="curve" smooth="yes"/>
      <point x="372.7" y="82.0"/>
      <point x="409.5" y="62.0"/>
      <point x="409.5" y="11.0" type="curve" smooth="yes"/>
      <point x="409.5" y="-11.0"/>
      <point x="405.20000000000005" y="-33.0"/>
      <point x="395.6" y="-55.0" type="curve"/>
    </contour>
  </outline>
</glyph>
<glyph name="auLength-beng" format="2">
  <advance width="211.2"/>
  <unicode hex="09D7"/>
  <anchor x="300.2" y="598.0" name="top"/>
  <anchor x="-15.100000000000001" y="600.0" name="topright"/>
  <anchor x="-205.1" y="0.0" name="vedic"/>
  <outline>
    <contour>
      <point x="141.7" y="-35.0" type="line"/>
      <point x="149.4" y="-32.699999999999996" type="line"/>
      <point x="149.4" y="550.0" type="line"/>
      <point x="243.39999999999998" y="550.0" type="line"/>
      <point x="203.9" y="622.0" type="line"/>
      <point x="-32.2" y="622.0" type="line"/>
      <point x="7.699999999999999" y="550.0" type="line"/>
      <point x="62.50000000000001" y="550.0" type="line"/>
      <point x="62.50000000000001" y="1.3" type="line"/>
    </contour>
    <contour>
      <point x="63.8" y="603.0" type="curve"/>
      <point x="148.0" y="603.0" type="line"/>
      <point x="145.1" y="741.0"/>
      <point x="63.5" y="822.3000000000001"/>
      <point x="-40.6" y="822.3000000000001" type="curve" smooth="yes"/>
      <point x="-107.5" y="822.3000000000001"/>
      <point x="-159.6" y="807.1999999999999"/>
      <point x="-234.3" y="807.1999999999999" type="curve" smooth="yes"/>
      <point x="-307.4" y="807.1999999999999"/>
      <point x="-347.90000000000003" y="825.0"/>
      <point x="-347.90000000000003" y="888.5999999999999" type="curve" smooth="yes"/>
      <point x="-347.90000000000003" y="900.3"/>
      <point x="-346.90000000000003" y="915.3000000000001"/>
      <point x="-344.90000000000003" y="928.0" type="curve"/>
      <point x="-395.5" y="933.0" type="line"/>
      <point x="-399.5" y="910.3000000000001"/>
      <point x="-401.79999999999995" y="885.0"/>
      <point x="-401.79999999999995" y="858.6" type="curve" smooth="yes"/>
      <point x="-401.79999999999995" y="750.6"/>
      <point x="-333.7" y="693.7"/>
      <point x="-226.89999999999998" y="693.7" type="curve" smooth="yes"/>
      <point x="-142.1" y="693.7"/>
      <point x="-91.8" y="715.4"/>
      <point x="-19.4" y="715.4" type="curve" smooth="yes"/>
      <point x="44.800000000000004" y="715.4"/>
      <point x="67.8" y="680.0"/>
      <point x="67.8" y="634.0" type="curve" smooth="yes"/>
      <point x="67.8" y="623.0"/>
      <point x="66.8" y="613.0"/>
    </contour>
  </outline>
</glyph>
